<svg id="Layer_1" data-name="Layer 1" xmlns="http://www.w3.org/2000/svg" viewBox="0 0 169.2 51.1"><defs><style>.cls-1{fill:#fff;}</style></defs><title>attia</title><path class="cls-1" d="M104,46.2c9-5.4,16.8-4.9,16.8-4.9-9.7-2.3-21.5,1.6-21.5,1.6a86.6,86.6,0,0,1,1.7-9.8c.1-1-1-1.6-2.7-1.8a2.6,2.6,0,0,0-2.5.6c-4,8.6-11.9,21.4-11.9,21.4s.4-2.3.4-2.3c-2.8,2.5-4.3,9.1-4.3,9.1a6.4,6.4,0,0,1,0-3.8c-2.6,2.3-1.9,7.4-1.9,7.4a32.3,32.3,0,0,1-8.2,9c-2.9,2.2-4.7.6-4.9.1s-.7-1.1-1.3-.4-.2,2.6-.2,2.6A4.7,4.7,0,0,0,68,78.7c5.8.5,13.6-11.4,13.6-11.4a23.1,23.1,0,0,0,6.1-.5,17.7,17.7,0,0,1-3.9-.4,20.1,20.1,0,0,0,8.1-1.8c-.1,7,1.1,8.3,4.1,8.8s2.7-.8,2.7-.8c-1.2-4-.5-12.8-.5-12.8,3.3-2.2,7-7.5,7-7.5s-6,2.4-6.1,2.4,2.9-1.7,10.6-6.6,19.7-4.3,19.7-4.3C120,39.1,104.2,46.1,104,46.2ZM92.4,54.5c-1.9,1-8.3,7.2-8.5,7.4,1.8-2.4,7.7-15.3,7.7-15.3l1.7-1Z" transform="translate(-63.4 -31.2)"/><path class="cls-1" d="M110.4,52.5l-.3.4-.2.5c-.1.2-.1.4-.2.6s-.1.4-.2.6h1.7a2.5,2.5,0,0,1,1.2.3l.2.3c.1.1.1.2.2.4a.9.9,0,0,0,.1.5v.4a.5.5,0,0,1-.2.4h-.1l-1.8-.4h-1.9c-.3,1.1-.7,2.3-1,3.6l-.9,3.7c-.2,1.2-.5,2.3-.7,3.5s-.4,2.1-.5,2.9,0,.7.1.8.2,0,.5-.3a12,12,0,0,0,1.7-2.1l1.6-2.5c.5-.9,1-1.7,1.4-2.6a12.8,12.8,0,0,0,.9-2.2l.3-.3h.4l.3.3a.3.3,0,0,1,0,.4l-.7,1.8c-.4.7-.7,1.5-1.2,2.3l-1.4,2.5a24.9,24.9,0,0,1-1.7,2.4,12.5,12.5,0,0,1-1.7,1.6,2.5,2.5,0,0,1-1.6.7,1.7,1.7,0,0,1-1.3-.4l-.6-.9a5.3,5.3,0,0,1-.1-1.3V69.3c.1-.9.2-1.8.4-2.9s.3-2.1.5-3.1.5-2.2.7-3.3.5-2.2.8-3.3h-2.4l-.8-.3a1,1,0,0,1-.5-.6c-.1-.3,0-.5.3-.5h1.9l1.9-.2c.1-.5.3-1,.4-1.5a5.8,5.8,0,0,1,.5-1.4c.4-1,.8-1.5,1.1-1.5l.8.2,1.1.4.9.5c.2.2.4.4.4.5s-.1.1-.2.2h-.1Z" transform="translate(-63.4 -31.2)"/><path class="cls-1" d="M117.9,52.5l-.3.4c-.1.2-.2.3-.2.5a1.4,1.4,0,0,0-.2.6c-.1.2-.1.4-.2.6h1.7a2.5,2.5,0,0,1,1.2.3l.2.3c.1.1.1.2.1.4a.9.9,0,0,1,.1.5.8.8,0,0,1,.1.4.5.5,0,0,1-.2.4h-.1l-1.8-.4h-1.9c-.3,1.1-.7,2.3-1,3.6l-.9,3.7c-.3,1.2-.5,2.3-.7,3.5s-.4,2.1-.5,2.9a1.9,1.9,0,0,0,0,.8q.2.2.6-.3a19.3,19.3,0,0,0,1.7-2.1c.5-.9,1.1-1.7,1.6-2.5l1.3-2.6a13.8,13.8,0,0,0,1-2.2l.3-.3h.4l.3.3v.4l-.8,1.8-1.1,2.3a16.5,16.5,0,0,1-1.5,2.5,14.3,14.3,0,0,1-1.6,2.4,12.5,12.5,0,0,1-1.7,1.6,2.5,2.5,0,0,1-1.6.7,1.7,1.7,0,0,1-1.3-.4,2.4,2.4,0,0,1-.6-.9,5.1,5.1,0,0,1-.2-1.3c0-.4.1-.8.1-1.2s.2-1.8.3-2.9l.6-3.1c.2-1.1.4-2.2.7-3.3a31.8,31.8,0,0,1,.8-3.3h-2.5l-.7-.3c-.3-.1-.4-.3-.5-.6s0-.5.3-.5h1.9l1.9-.2a8.3,8.3,0,0,1,.4-1.5,5.8,5.8,0,0,1,.5-1.4c.4-1,.7-1.5,1.1-1.5l.8.2,1.1.4.8.5c.3.2.4.4.4.5s0,.1-.1.2h0A.1.1,0,0,0,117.9,52.5Z" transform="translate(-63.4 -31.2)"/><path class="cls-1" d="M117.1,70.5c0-.3.1-.5.1-.8a1.7,1.7,0,0,1,.1-.7q.5-2.7,1.2-5.7a35.2,35.2,0,0,1,1.8-5.2c.1-.3.3-.5.5-.5h.7l.7.3.6.4.5.4c.2.1.3.3.1.5a1.9,1.9,0,0,0-.2.7,16.9,16.9,0,0,0-1,2.7c-.3.9-.6,1.9-.8,2.8s-.5,1.9-.7,2.8-.3,1.7-.5,2.4,0,.4.1.5l.5-.2a11.6,11.6,0,0,0,1.6-2.1c.5-.9,1-1.7,1.4-2.6a15.1,15.1,0,0,0,1.2-2.6,13.6,13.6,0,0,0,.9-2.3l.3-.3h.4l.3.3a.3.3,0,0,1,0,.4l-.7,1.8c-.3.7-.6,1.5-1,2.3s-.8,1.7-1.3,2.5a13.8,13.8,0,0,1-1.4,2.4,12.1,12.1,0,0,1-1.6,1.6,2.5,2.5,0,0,1-1.7.7l-.9-.2-.7-.7a2,2,0,0,1-.4-.8A2.8,2.8,0,0,1,117.1,70.5Zm6.2-19.8c.4-.8.7-1.1,1-1.1l1,.3,1.2.7c.6.4.6.9.2,1.6l-.8,1.2-1,1.4a4.3,4.3,0,0,1-1.1,1.2,1,1,0,0,1-.8.5.8.8,0,0,1-1-.7,5.7,5.7,0,0,1,.1-1.8l.6-2Z" transform="translate(-63.4 -31.2)"/><path class="cls-1" d="M130.3,70.5a2.2,2.2,0,0,1,.1-.8,1.7,1.7,0,0,1,.1-.7v-.3a18.2,18.2,0,0,1-1.9,3.1,3.2,3.2,0,0,1-2.4,1.3,2.1,2.1,0,0,1-1.8-.7,2.5,2.5,0,0,1-.8-1.7,13.9,13.9,0,0,1,.1-3.5,16.4,16.4,0,0,1,1-3.8,14.1,14.1,0,0,1,1.9-3.4,6.8,6.8,0,0,1,2.5-2.3,1,1,0,0,1,.9-.2,1.6,1.6,0,0,1,1,.2l1,.4,1.1.5a.3.3,0,0,0,.1-.2c0-.1.1-.2.1-.3a.6.6,0,0,1,.6-.5h.6l.7.3.7.4.4.4c.3.1.3.3.2.5a2.5,2.5,0,0,0-.4.7,17.3,17.3,0,0,0-.8,2.7c-.3.9-.6,1.9-.8,2.8s-.5,1.9-.6,2.8-.4,1.7-.5,2.4a.4.4,0,0,0,.1.5l.4-.2a12,12,0,0,0,1.7-2.1c.5-.9,1-1.7,1.4-2.6l1.1-2.6c.3-.8.6-1.6.8-2.3l.4-.3h.3q.3.1.3.3a.3.3,0,0,1,0,.4c-.1.5-.4,1-.6,1.8s-.6,1.5-1,2.3-.8,1.7-1.3,2.5a13.8,13.8,0,0,1-1.4,2.4,8.1,8.1,0,0,1-1.6,1.6,2.3,2.3,0,0,1-1.6.7l-.9-.2a2.3,2.3,0,0,1-.7-.7,1.2,1.2,0,0,1-.4-.8A1.4,1.4,0,0,1,130.3,70.5Zm-3,.6c.3,0,.6-.2.9-.7a7.4,7.4,0,0,0,1.1-1.6l1-2.2a22.5,22.5,0,0,0,.8-2.4c.3-.7.5-1.4.7-2s.4-1.1.5-1.4.1-.4.1-.6l.3-.4a1,1,0,0,0-1-.5,2.2,2.2,0,0,0-1.8,1,17.5,17.5,0,0,0-1.6,2.7,15.9,15.9,0,0,0-1,3.3,11.7,11.7,0,0,0-.5,3v.4a.6.6,0,0,0,0,.6.7.7,0,0,0,.1.5C127,71,127.1,71.1,127.3,71.1Z" transform="translate(-63.4 -31.2)"/><path class="cls-1" d="M155.1,48a6.4,6.4,0,0,1,2.8.6,3.9,3.9,0,0,1,1.7,1.9l.7.9a2.9,2.9,0,0,1,.2.9,4.9,4.9,0,0,1-.6,2.2,25.3,25.3,0,0,1-1.3,2.2c-.5.8-1,1.5-1.4,2.3a4.2,4.2,0,0,0-.6,2.1c0,.2-.1.3-.2.3l-.8-.2-.8-.5a2.3,2.3,0,0,1-.7-.7,1.3,1.3,0,0,1-.2-.9,3.3,3.3,0,0,1,.6-1.9l1.3-1.8c.5-.5.9-1.1,1.4-1.7a2.7,2.7,0,0,0,.6-1.7,1.9,1.9,0,0,0-.4-1.2,1.1,1.1,0,0,0-1.1-.6,5.7,5.7,0,0,0-3.7,1.5,20.1,20.1,0,0,0-3,3.9,29.1,29.1,0,0,0-2.2,5.1,19.2,19.2,0,0,0-.8,5,7.5,7.5,0,0,0,.9,3.9,3.6,3.6,0,0,0,3.1,1.6l1.5-.3a3.4,3.4,0,0,0,1.5-.6c.1-.1.2-.1.3.1s.1.3,0,.6a2.7,2.7,0,0,1-1.6,1.7,5.9,5.9,0,0,1-2.3.5,7.3,7.3,0,0,1-4.1-1.1,6.6,6.6,0,0,1-2.3-2.9,11.8,11.8,0,0,1-.9-4,18,18,0,0,1,.5-4.6,19.6,19.6,0,0,1,1.7-4.6,16.9,16.9,0,0,1,2.6-4.1,11.7,11.7,0,0,1,3.5-2.8A7.4,7.4,0,0,1,155.1,48Z" transform="translate(-63.4 -31.2)"/><path class="cls-1" d="M161.9,57.7a2.2,2.2,0,0,1,1.4-.1l1.3.5a4.7,4.7,0,0,1,1.7.3,7.1,7.1,0,0,1,1.5.8,3.1,3.1,0,0,1,.9,1.1,2.7,2.7,0,0,1,.3,1.2,13.7,13.7,0,0,1-.2,2.8,14.3,14.3,0,0,1-.9,2.7,14.3,14.3,0,0,0,2.3-2.6,11.1,11.1,0,0,0,1.7-3q.2-.3.3-.3h.4l.3.3a.3.3,0,0,1,0,.4,14.7,14.7,0,0,1-6,7.2,10.8,10.8,0,0,1-2.6,3,5.4,5.4,0,0,1-3.2,1.1,4.1,4.1,0,0,1-1.9-.5,4.8,4.8,0,0,1-2.2-2.7,5.3,5.3,0,0,1-.4-1.6,15.4,15.4,0,0,1,.4-3,28.1,28.1,0,0,1,1-3.1,9.8,9.8,0,0,1,1.7-2.6A7.9,7.9,0,0,1,161.9,57.7Zm-1.6,12.7h.4l1.1-.2,1.2-.3a15,15,0,0,0,.9-1.8,14.3,14.3,0,0,0,.8-2.2l.6-2.2a14.8,14.8,0,0,0,.1-2.1,2.8,2.8,0,0,0-.2-1.4,1.1,1.1,0,0,0-.6-.7,1.4,1.4,0,0,0-.9.1,3.9,3.9,0,0,0-1,.8,8.2,8.2,0,0,0-1.5,2.4,13.1,13.1,0,0,0-.9,2.8,13.3,13.3,0,0,0-.3,2.8A5.8,5.8,0,0,0,160.3,70.4Z" transform="translate(-63.4 -31.2)"/><path class="cls-1" d="M169.5,71.2c.1-1,.2-2.1.4-3.2s.5-2.3.7-3.4a33.7,33.7,0,0,1,1-3.4,28.3,28.3,0,0,1,1.1-3.1c.2-.3.3-.5.6-.5a3.8,3.8,0,0,1,1.3.4l1.2.8c.2.1.2.3.1.5l-.3.7a24.7,24.7,0,0,0-1,2.9c-.4,1.1-.6,2.2-.9,3.2l1.1-2.3c.5-.8.9-1.6,1.4-2.3a11,11,0,0,1,1.4-2.1,10.3,10.3,0,0,1,1.4-1.5.9.9,0,0,1,.7-.3h.5l.8.2.7.4a1,1,0,0,1,.5.4c.1.1.2.3.1.4a.8.8,0,0,1-.1.4c-.4,1.1-.8,2.2-1.1,3.3s-.7,2.2-1,3.3c.4-.7.7-1.5,1.2-2.3a17.1,17.1,0,0,1,1.3-2.3,19.1,19.1,0,0,1,1.4-2.1l1.4-1.5a1.1,1.1,0,0,1,.8-.3h.6l.9.4.8.4a.9.9,0,0,1,.3.6v.2c-.1,0-.1.1-.1.2l-.3.5a4.3,4.3,0,0,0-.1.5l-.9,2.6a27.6,27.6,0,0,0-.8,2.7l-.6,2.6c-.2.9-.4,1.6-.5,2.3s0,.4.1.5a.6.6,0,0,0,.5-.2,11.6,11.6,0,0,0,1.6-2.1c.5-.9,1-1.7,1.4-2.6a15.1,15.1,0,0,0,1.2-2.6,13.6,13.6,0,0,0,.9-2.3l.3-.3h.4l.3.3a.3.3,0,0,1,0,.4l-.7,1.8c-.3.7-.6,1.5-1,2.3s-.8,1.7-1.3,2.5a13.8,13.8,0,0,1-1.4,2.4l-1.6,1.6a2.6,2.6,0,0,1-3.4.1,1.7,1.7,0,0,1-.5-1.5c.1-.8.2-1.7.4-2.6a13.6,13.6,0,0,1,.6-2.9c.2-1,.5-2,.7-2.9s.6-1.9.9-2.7-.9,1.1-1.4,1.7l-1.3,2.3a19.6,19.6,0,0,0-1.3,2.5l-1,2.4c-.3.8-.5,1.5-.7,2.2a6.1,6.1,0,0,0-.3,1.7c-.1.2-.1.3-.2.3h-.4l-.7-.2a2,2,0,0,1-.8-.4l-.6-.6a1.1,1.1,0,0,1-.3-.7c.2-1.7.5-3.6.9-5.6a41,41,0,0,1,1.7-5.6,10.6,10.6,0,0,0-2,2.8c-.7,1.1-1.4,2.4-2,3.6s-1,2.4-1.4,3.6a8.9,8.9,0,0,0-.7,2.7c0,.2-.1.3-.2.3h-.3l-.8-.2-.8-.4-.6-.6A1.9,1.9,0,0,1,169.5,71.2Z" transform="translate(-63.4 -31.2)"/><path class="cls-1" d="M193.7,65.3a3.7,3.7,0,0,0,1.6-.5,5.1,5.1,0,0,0,1.6-.9l1.3-1.2a3.1,3.1,0,0,0,.8-1.3c.1-.2.2-.3.4-.3h.4c.1.1.2.2.2.3a.3.3,0,0,1,0,.4,3.9,3.9,0,0,1-1,1.6,10.7,10.7,0,0,1-1.6,1.4l-1.8,1.1a4.9,4.9,0,0,1-1.9.5,29.1,29.1,0,0,1,.4,3.1c.1,1.1.2,2.2.2,3.2a31.6,31.6,0,0,1-.3,3.2,25,25,0,0,1-.5,2.9,16.6,16.6,0,0,1-.6,1.6,4.1,4.1,0,0,1-.8,1.3,2.4,2.4,0,0,1-.9.6h-1.8l-.8-.3-.7-.5a.9.9,0,0,1-.3-.6,22.3,22.3,0,0,1,.3-3.3c.2-1.8.4-3.7.7-5.6s.7-4,1.1-5.9.9-3.9,1.4-5.8a55.2,55.2,0,0,1,1.7-5.3c.3-.9.6-1.6.8-2.1s.5-.7.8-.7l.8.2,1.1.4,1,.5c.3.2.4.3.4.5s0,.1-.1.2l-.2.3-.3.3-.8,1.9c-.3.8-.6,1.6-.9,2.6s-.6,1.9-.9,3A29.9,29.9,0,0,1,193.7,65.3Zm-2.2,15.4c.1,0,.1-.1.2-.2s.2-.3.2-.5l.2-.5c.1-.2.1-.4.2-.4a22.7,22.7,0,0,0,.9-5.2,29.8,29.8,0,0,0-.2-5.2l-.9,5.1c-.3,1.7-.5,3.4-.7,5.1S191.3,80.7,191.5,80.7Z" transform="translate(-63.4 -31.2)"/><path class="cls-1" d="M201.5,57.7a2.2,2.2,0,0,1,1.4-.1l1.3.5a4.7,4.7,0,0,1,1.7.3,5.3,5.3,0,0,1,1.5.8,3.1,3.1,0,0,1,.9,1.1,2.8,2.8,0,0,1,.4,1.2,14.1,14.1,0,0,1-.3,2.8,14.3,14.3,0,0,1-.9,2.7,14.3,14.3,0,0,0,2.3-2.6,11.1,11.1,0,0,0,1.7-3q.1-.3.3-.3h.4l.3.3a.3.3,0,0,1,0,.4,14.7,14.7,0,0,1-6,7.2,10.8,10.8,0,0,1-2.6,3,5.4,5.4,0,0,1-3.2,1.1,4.1,4.1,0,0,1-1.9-.5,4.8,4.8,0,0,1-2.2-2.7,5,5,0,0,1-.3-1.6,15.3,15.3,0,0,1,.3-3,28.1,28.1,0,0,1,1-3.1,9.8,9.8,0,0,1,1.7-2.6A7.9,7.9,0,0,1,201.5,57.7Zm-1.6,12.7h.4l1.1-.2,1.2-.3a15,15,0,0,0,.9-1.8,14.3,14.3,0,0,0,.8-2.2,14.1,14.1,0,0,0,.6-2.2,14.8,14.8,0,0,0,.1-2.1,2.8,2.8,0,0,0-.2-1.4,1.1,1.1,0,0,0-.6-.7,1.4,1.4,0,0,0-.9.1,3.9,3.9,0,0,0-1,.8,8.2,8.2,0,0,0-1.5,2.4,13.1,13.1,0,0,0-.9,2.8,13.3,13.3,0,0,0-.3,2.8A5.8,5.8,0,0,0,199.9,70.4Z" transform="translate(-63.4 -31.2)"/><path class="cls-1" d="M209.1,71.2c.1-1,.2-2.1.4-3.2s.5-2.3.7-3.4a33.7,33.7,0,0,1,1-3.4,28.3,28.3,0,0,1,1.1-3.1c.2-.3.3-.5.6-.5h.6l.8.3.6.4.5.4c.2.1.2.3.1.5l-.3.7a24.7,24.7,0,0,0-1,2.9l-.9,3.2,1.1-2.3c.5-.8.9-1.6,1.4-2.3a11,11,0,0,1,1.4-2.1,10.3,10.3,0,0,1,1.4-1.5.9.9,0,0,1,.7-.3h.5l.7.2.7.3.6.4c.2.3.3.5.2.7a1.2,1.2,0,0,1-.5.5A4.8,4.8,0,0,0,220,62a6.8,6.8,0,0,0-.5,2.3,1,1,0,0,0,.2,1,.7.7,0,0,0,.5.4,2.1,2.1,0,0,0,1.2-.5,6.9,6.9,0,0,0,1.1-1.3l.9-1.4.7-1.2.4-.2c.1-.1.3,0,.4.1s.2.1.2.3a.8.8,0,0,1-.1.4l-.7,1.3-1.1,1.5a5.3,5.3,0,0,1-1.2,1.4,3.8,3.8,0,0,1-1.3.9h-1.1a2.8,2.8,0,0,1-1.3-.4,3.9,3.9,0,0,1-1-.8,2.1,2.1,0,0,1-.5-1.2,5.3,5.3,0,0,1,.2-2.1c.3-.8.5-1.5.8-2.1v-.2h-.2a18.2,18.2,0,0,0-1.9,2.9,23.1,23.1,0,0,0-1.8,3.5,30.7,30.7,0,0,0-1.4,3.4,7.8,7.8,0,0,0-.6,2.6c0,.2-.1.3-.2.3h-.3l-.8-.2-.7-.4-.7-.6A1.9,1.9,0,0,1,209.1,71.2Z" transform="translate(-63.4 -31.2)"/><path class="cls-1" d="M230,52.5l-.3.4-.2.5c-.1.2-.1.4-.2.6s-.1.4-.2.6h1.7a2.5,2.5,0,0,1,1.2.3l.2.3c.1.1.1.2.1.4a.9.9,0,0,1,.1.5.8.8,0,0,1,.1.4.5.5,0,0,1-.2.4h-.1l-1.8-.4h-1.9c-.3,1.1-.7,2.3-1,3.6l-.9,3.7c-.3,1.2-.5,2.3-.7,3.5s-.4,2.1-.5,2.9,0,.7.1.8.2,0,.5-.3a19.3,19.3,0,0,0,1.7-2.1l1.6-2.5c.5-.9.9-1.7,1.3-2.6a13.8,13.8,0,0,0,1-2.2l.3-.3h.4l.3.3c0,.1.1.3,0,.4l-.8,1.8-1.1,2.3a16.5,16.5,0,0,1-1.5,2.5,14.3,14.3,0,0,1-1.6,2.4,12.5,12.5,0,0,1-1.7,1.6,2.5,2.5,0,0,1-1.6.7,1.7,1.7,0,0,1-1.3-.4,2.4,2.4,0,0,1-.6-.9,5.3,5.3,0,0,1-.1-1.3V69.3c.1-.9.2-1.8.3-2.9l.6-3.1c.2-1.1.5-2.2.7-3.3a31.8,31.8,0,0,1,.8-3.3h-2.4l-.8-.3c-.3-.1-.4-.3-.5-.6s0-.5.3-.5h1.9l1.9-.2a8.3,8.3,0,0,1,.4-1.5A5.8,5.8,0,0,1,226,52c.4-1,.7-1.5,1.1-1.5l.8.2,1.1.4.8.5c.3.2.4.4.4.5s0,.1-.1.2h0A.1.1,0,0,0,230,52.5Z" transform="translate(-63.4 -31.2)"/></svg>