<svg id="Layer_1" data-name="Layer 1" xmlns="http://www.w3.org/2000/svg" viewBox="0 0 168.1 70.6"><defs><style>.cls-1{fill:#fff;}.cls-2{fill:#dcecf7;}</style></defs><title>expert</title><path class="cls-1" d="M96,83.8,86,33.3s.1-8.4,8.2-8.4,41.5,6.7,41.5,6.7a10.8,10.8,0,0,1,5.4,7.4l-4.7,1.6s-.1-4.3-3.6-5.1-38.9-6.2-38.9-6.2-3.7.1-3,5,9.7,48.4,9.7,48.4,2,12.1,15.4,6,28.1-11.9,28.1-11.9,2.8-.9.8-5.4l4.3-1.2.9,3.4a6.1,6.1,0,0,1-3.4,7.2c-5,2.4-29.7,12.7-29.7,12.7S101.9,102,96,83.8Z" transform="translate(-53.4 -24.9)"/><path class="cls-1" d="M154.1,52.4h-5.5l-3.7,5.1-3.7-5.3H117.9a5.3,5.3,0,0,1,5.4-5.5h0l12.6-.2V40.8l-13.4-.2a13.2,13.2,0,0,0-13.4,13v2.8a13.7,13.7,0,0,0,13.7,13.7h18.3l4-5.8,3.8,5.3h5.2L147.7,61Zm-18,16.2V64.3H124.5a7,7,0,0,1-6.9-6.4h18.5V53.3l5.9,7.8Z" transform="translate(-53.4 -24.9)"/><path class="cls-1" d="M179.4,56.1h7.7V52.4h-7.9a8.6,8.6,0,0,0-6,2.5,6.6,6.6,0,0,0-1.7,2.4,5.6,5.6,0,0,0-1.7-3.2,5.7,5.7,0,0,0-4.1-1.7H154.1V69.6h4.8V63.9h6.8a5.8,5.8,0,0,0,5-2.7,8.5,8.5,0,0,0,8.5,8.4h7.9V66.5h-7.7a3,3,0,0,1-3.1-3h0v-.7h10.8V59.2H176.3a3.1,3.1,0,0,1,3.1-3.1Zm-15.3,4.2h-5.4V55.8h5.4a2.2,2.2,0,0,1,2.2,2.3A2.2,2.2,0,0,1,164.1,60.3Z" transform="translate(-53.4 -24.9)"/><path class="cls-1" d="M204.7,54.8v1h.5A4.7,4.7,0,0,0,204.7,54.8Z" transform="translate(-53.4 -24.9)"/><path class="cls-1" d="M201.4,62.5h0a5.1,5.1,0,0,0,2.6-1.4,5.4,5.4,0,0,0,1.4-3.6,2.9,2.9,0,0,0-.2-1.6h-.5V54.8a5,5,0,0,0-4.3-2.4H187.9V69.6h4.7V63.1h3.7l4.5,6.5h5.5Zm-8.8-6.7h5.6a2.1,2.1,0,0,1,2.1,1.9v.2a2.1,2.1,0,0,1-2.1,2h-5.6Z" transform="translate(-53.4 -24.9)"/><path class="cls-1" d="M205.2,55.8h-.5v-1A4.7,4.7,0,0,1,205.2,55.8Z" transform="translate(-53.4 -24.9)"/><path class="cls-1" d="M221.5,52.4v3.4h-6.3V69.6h-4.4V55.8h-5.6a4.7,4.7,0,0,0-.5-1V52.4Z" transform="translate(-53.4 -24.9)"/><rect class="cls-2" x="40" y="12.6" width="4" height="3.99" rx="0.7"/><rect class="cls-2" x="43.1" y="19" width="7.4" height="7.47" rx="0.9"/><rect class="cls-2" x="46.9" y="32" width="8" height="7.99" rx="0.7"/><rect class="cls-2" x="43.1" y="28.8" width="3.7" height="3.74" rx="0.5"/><rect class="cls-2" x="29.7" y="24.1" width="4.4" height="4.36" rx="0.9"/><rect class="cls-2" x="26.7" y="35.5" width="9.8" height="9.81" rx="0.9"/><rect class="cls-2" x="13.2" y="47.8" width="15.5" height="15.57" rx="0.9"/><rect class="cls-2" x="33.7" y="52" width="5" height="5.01" rx="0.9"/><rect class="cls-2" x="13.2" y="32" width="7.9" height="7.86" rx="0.9"/><rect class="cls-2" y="51.2" width="9.5" height="9.49" rx="0.8"/></svg>