<svg xmlns="http://www.w3.org/2000/svg" viewBox="0 0 609.9 599.8"><defs><style>.cls-1{isolation:isolate;}.cls-2{fill:#dbebf6;}.cls-3{fill:#e6e5ff;}.cls-4{fill:#1755df;}.cls-5{fill:#1780df;}.cls-6{fill:#005d81;}.cls-7{fill:#7dbeef;}.cls-8{fill:#b7dbf9;}.cls-9{mix-blend-mode:multiply;}.cls-10{fill:#d8d8d8;}.cls-11{fill:#1755e0;}</style></defs><title>fonction4</title><g class="cls-1"><g id="Layer_1" data-name="Layer 1"><rect class="cls-2" x="116.2" y="331.2" width="17.4" height="19.82"/><rect class="cls-2" x="113.8" y="344.8" width="19.8" height="19.82" transform="translate(-257 430) rotate(-82.4)"/><rect class="cls-2" x="86.6" y="357.8" width="19.4" height="19.82"/><rect class="cls-2" x="85.8" y="370.9" width="19" height="19.82" transform="translate(-303.9 448.9) rotate(-86)"/><rect class="cls-2" x="70.6" y="383.4" width="19.8" height="20.81" transform="translate(-326.6 471.2) rotate(-89.6)"/><polygon class="cls-2" points="61 416.2 41.4 413.3 44 395.6 63.6 398.4 61 416.2"/><path class="cls-2" d="M244.7,489.5H57.5a44.9,44.9,0,0,1-44.8-44.8V170.2a44.9,44.9,0,0,1,44.8-44.9H244.7a45,45,0,0,1,44.9,44.9V444.7A44.9,44.9,0,0,1,244.7,489.5ZM57.5,145.2a25,25,0,0,0-25,25V444.7a25,25,0,0,0,25,25H244.7a25.1,25.1,0,0,0,25.1-25V170.2a25.1,25.1,0,0,0-25.1-25Z" transform="translate(-12.7 -0.2)"/><path class="cls-2" d="M576.6,488H382.8a39.3,39.3,0,0,1-4.9-.2l-3.7-.6-4-1-2.2-.6-4.1-1.7a46,46,0,0,1-27.1-42V157.8a46.1,46.1,0,0,1,46-46.1H576.6a46.1,46.1,0,0,1,46,46.1V441.9A46,46,0,0,1,576.6,488ZM382.8,131.5a26.2,26.2,0,0,0-26.2,26.3V441.9A26.1,26.1,0,0,0,372,465.8l2.5,1,1.5.4a11.7,11.7,0,0,0,2,.6l2,.3H576.6a26.2,26.2,0,0,0,26.2-26.3V157.8a26.2,26.2,0,0,0-26.2-26.3Z" transform="translate(-12.7 -0.2)"/><circle class="cls-2" cx="305" cy="299.9" r="299.9"/><rect class="cls-3" x="333.9" y="121.4" width="266.1" height="356.46" rx="36.1"/><path class="cls-4" d="M576.6,479.9H382.8A37.9,37.9,0,0,1,344.9,442V157.8a37.9,37.9,0,0,1,37.9-37.9H576.6a37.9,37.9,0,0,1,37.9,37.9V442A37.9,37.9,0,0,1,576.6,479.9ZM382.8,123.4a34.5,34.5,0,0,0-34.4,34.4V442a34.4,34.4,0,0,0,34.4,34.3H576.6A34.4,34.4,0,0,0,611,442V157.8a34.5,34.5,0,0,0-34.4-34.4Z" transform="translate(-12.7 -0.2)"/><rect class="cls-5" x="362.6" y="170.9" width="208.4" height="10.04"/><rect class="cls-5" x="362.6" y="202" width="208.4" height="10.04"/><rect class="cls-5" x="362.6" y="233.2" width="208.4" height="10.04"/><rect class="cls-5" x="362.6" y="264.3" width="208.4" height="10.04"/><path class="cls-4" d="M556.9,367.5a77.2,77.2,0,0,0-154.4,0Z" transform="translate(-12.7 -0.2)"/><path class="cls-6" d="M402.5,367.4c0,.2-.1.3-.1.5a77.3,77.3,0,0,0,154.6,0c0-.2-.1-.3-.1-.5Z" transform="translate(-12.7 -0.2)"/><path class="cls-7" d="M556.9,367.4H479.5l48,61.2A77.1,77.1,0,0,0,557,367.9C557,367.7,556.9,367.6,556.9,367.4Z" transform="translate(-12.7 -0.2)"/><path class="cls-5" d="M479.4,367.5h77.5a77.4,77.4,0,0,0-35.7-64.7Z" transform="translate(-12.7 -0.2)"/><path class="cls-8" d="M412.6,329.6a76.1,76.1,0,0,0-10.1,37.9h77.2Z" transform="translate(-12.7 -0.2)"/><g class="cls-9"><path class="cls-10" d="M576.6,121.6H547.1a291.6,291.6,0,0,1,9.8,75c0,124.5-79.1,233.3-189,278.3a37.2,37.2,0,0,0,14.9,3.2H576.6A36.1,36.1,0,0,0,612.7,442V157.8A36.1,36.1,0,0,0,576.6,121.6Z" transform="translate(-12.7 -0.2)"/></g><path class="cls-3" d="M279.7,444.7a35,35,0,0,1-35,34.9H57.5a34.9,34.9,0,0,1-34.9-34.9V170.2a34.9,34.9,0,0,1,34.9-34.9H244.7a35,35,0,0,1,35,34.9Z" transform="translate(-12.7 -0.2)"/><path class="cls-4" d="M244.7,481.4H57.5a36.8,36.8,0,0,1-36.7-36.7V170.2a36.7,36.7,0,0,1,36.7-36.7H244.7a36.7,36.7,0,0,1,36.7,36.7V444.7A36.7,36.7,0,0,1,244.7,481.4ZM57.5,137a33.2,33.2,0,0,0-33.1,33.2V444.7a33.2,33.2,0,0,0,33.1,33.1H244.7a33.2,33.2,0,0,0,33.2-33.1V170.2A33.2,33.2,0,0,0,244.7,137Z" transform="translate(-12.7 -0.2)"/><rect class="cls-5" x="37.6" y="182.8" width="201.3" height="9.7"/><rect class="cls-5" x="37.6" y="212.9" width="201.3" height="9.7"/><rect class="cls-5" x="37.6" y="243" width="201.3" height="9.7"/><rect class="cls-5" x="37.6" y="273" width="201.3" height="9.7"/><rect class="cls-5" x="154.9" y="328.2" width="84.3" height="9.7"/><rect class="cls-5" x="154.9" y="358.3" width="84.3" height="9.7"/><rect class="cls-5" x="154.9" y="388.4" width="84.3" height="9.7"/><rect class="cls-5" x="154.9" y="418.4" width="84.3" height="9.7"/><polygon class="cls-4" points="43.8 422.7 43.8 319.9 38.3 319.9 38.3 428.2 146.7 428.2 146.7 422.7 43.8 422.7"/><polygon class="cls-5" points="52.6 414.9 50 414.6 53.1 392.1 80.5 392.3 82.3 366.4 108 366.4 111.6 339.8 133.6 339.8 133.6 342.5 113.9 342.5 110.3 369 84.8 369 83 395 55.4 394.8 52.6 414.9"/><path class="cls-6" d="M66.6,415.2a3,3,0,0,1-3,3.1,3.1,3.1,0,0,1,0-6.2A3,3,0,0,1,66.6,415.2Z" transform="translate(-12.7 -0.2)"/><path class="cls-6" d="M99.4,368.3a3.1,3.1,0,0,1-6.2,0,3.1,3.1,0,0,1,6.2,0Z" transform="translate(-12.7 -0.2)"/><path class="cls-6" d="M97,393.3a3,3,0,0,1-3,3.1,3.1,3.1,0,0,1,0-6.2A3,3,0,0,1,97,393.3Z" transform="translate(-12.7 -0.2)"/><path class="cls-6" d="M70.1,394.2a3,3,0,0,1-3,3.1,3.1,3.1,0,0,1,0-6.2A3,3,0,0,1,70.1,394.2Z" transform="translate(-12.7 -0.2)"/><path class="cls-6" d="M124.8,367.5a3.1,3.1,0,1,1-3.1-3.1A3.1,3.1,0,0,1,124.8,367.5Z" transform="translate(-12.7 -0.2)"/><path class="cls-6" d="M128.9,341.9a3.1,3.1,0,0,1-3.1,3.1,3,3,0,0,1-3-3.1,3,3,0,0,1,3-3A3.1,3.1,0,0,1,128.9,341.9Z" transform="translate(-12.7 -0.2)"/><path class="cls-6" d="M149.4,341.9a3.1,3.1,0,0,1-3.1,3.1,3,3,0,0,1-3-3.1,3,3,0,0,1,3-3A3.1,3.1,0,0,1,149.4,341.9Z" transform="translate(-12.7 -0.2)"/><path class="cls-5" d="M325.5,291.7v.5H186.9V478.9H416.4V292.2H397.3a4.3,4.3,0,0,0,.1-.5A11.7,11.7,0,0,0,385.6,280H337.2A11.7,11.7,0,0,0,325.5,291.7Z" transform="translate(-12.7 -0.2)"/><path class="cls-4" d="M417.6,480.1H185.7V291H324.3a12.9,12.9,0,0,1,12.9-12.2h48.4A12.9,12.9,0,0,1,398.5,291h19.1ZM188,477.7H415.2V293.4H396.1v-1.2l1.2-.5h-1.1a10.6,10.6,0,0,0-10.6-10.5H337.2a10.5,10.5,0,0,0-10.5,10.5v1.6H188Z" transform="translate(-12.7 -0.2)"/><rect class="cls-3" x="185.2" y="301.7" width="225.3" height="192.07"/><path class="cls-4" d="M425,495.8H196.2V300.2H425Zm-225.3-3.5H421.5V303.8H199.7Z" transform="translate(-12.7 -0.2)"/><path class="cls-5" d="M409.7,333.4v.5H271L206.4,505.8H436l64.6-171.9H481.5v-.5a11.7,11.7,0,0,0-11.7-11.8H421.4A11.7,11.7,0,0,0,409.7,333.4Z" transform="translate(-12.7 -0.2)"/><path class="cls-4" d="M436.8,507H204.7l.6-1.6,64.9-172.7H408.5a12.9,12.9,0,0,1,12.9-12.2h48.4a12.9,12.9,0,0,1,12.9,12.2h19.6l-.6,1.6Zm-228.7-2.4h227l63.8-169.5H480.3v-1.3l1.2-.4h-1.1a10.7,10.7,0,0,0-10.6-10.6H421.4a10.6,10.6,0,0,0-10.5,10.6v1.5l-1.3.2H271.9Z" transform="translate(-12.7 -0.2)"/><polygon class="cls-4" points="263.9 259.3 263.9 165.2 206.5 165.2 206.5 259.3 184.1 259.3 236.5 325.5 288.9 259.3 263.9 259.3"/><circle class="cls-3" cx="402.9" cy="82.8" r="20"/><path class="cls-4" d="M415.7,104.9A21.9,21.9,0,1,1,437.5,83,21.8,21.8,0,0,1,415.7,104.9Zm0-39.9a18.1,18.1,0,1,0,18.1,18A18.1,18.1,0,0,0,415.7,65Z" transform="translate(-12.7 -0.2)"/><circle class="cls-11" cx="224.6" cy="547.4" r="4.4"/><circle class="cls-11" cx="237.2" cy="537.1" r="4.4"/><circle class="cls-11" cx="249.8" cy="526.7" r="4.4"/><circle class="cls-11" cx="232.5" cy="556.9" r="4.4"/><circle class="cls-11" cx="245.1" cy="546.6" r="4.4"/><circle class="cls-11" cx="257.7" cy="536.3" r="4.4"/><circle class="cls-11" cx="240.3" cy="566.5" r="4.4"/><circle class="cls-11" cx="252.9" cy="556.2" r="4.4"/><circle class="cls-11" cx="265.5" cy="545.8" r="4.4"/><path class="cls-4" d="M470.8,510.3l-10.6,10.5L470.4,531l-2.7,2.7-10.2-10.2-10.7,10.7-2.9-2.9,10.7-10.6-10.2-10.2,2.7-2.7L457.3,518l10.6-10.6Z" transform="translate(-12.7 -0.2)"/><circle class="cls-5" cx="305" cy="184.2" r="13.1"/><circle class="cls-4" cx="206.8" cy="53.9" r="20.5"/></g></g></svg>