<svg id="Layer_1" data-name="Layer 1" xmlns="http://www.w3.org/2000/svg" viewBox="0 0 652.9 600"><defs><style>.cls-1{fill:#dbebf6;}.cls-2,.cls-6,.cls-8{fill:#e6e5ff;}.cls-3{fill:#1755df;}.cls-4{fill:#1780df;}.cls-5{fill:#fdfdfd;}.cls-6,.cls-8{stroke:#1755df;stroke-miterlimit:10;}.cls-6{stroke-width:3.37px;}.cls-7{fill:#1755e0;}.cls-8{stroke-width:3.71px;}</style></defs><title>fonction5</title><path class="cls-1" d="M84.9,322.1a19.7,19.7,0,0,1-8.4-1.7L22.9,297.8a21.4,21.4,0,0,1-11.4-27.9l21.3-50.5a21.1,21.1,0,0,1,11.6-11.5,21.7,21.7,0,0,1,16.4.1l53.7,22.7a21.3,21.3,0,0,1,11.3,27.9l-21.3,50.5a21.4,21.4,0,0,1-11.6,11.5A21.8,21.8,0,0,1,84.9,322.1ZM52.5,216.2a11.2,11.2,0,0,0-4.4.9,10.8,10.8,0,0,0-6.1,6.1L20.7,273.7a11.4,11.4,0,0,0-.1,8.7,11.1,11.1,0,0,0,6.1,6.3l53.7,22.6a11.7,11.7,0,0,0,8.8.1,11.1,11.1,0,0,0,6.2-6.2l21.3-50.5h0a11,11,0,0,0,0-8.7,11.2,11.2,0,0,0-6.1-6.2L56.9,217.1A11.2,11.2,0,0,0,52.5,216.2Z" transform="translate(-9.8)"/><polygon class="cls-1" points="541.1 431.4 543.7 421.9 543.8 421.9 541.1 431.4"/><path class="cls-1" d="M609.5,488a6.6,6.6,0,0,1-2.7-.6l-1.7-.8-60.3-17.1a6.3,6.3,0,0,1-4.5-6.5h0a212.1,212.1,0,0,1,5.8-37.4l.3-.9c0-.2,0-.3.1-.4,4.2-16.1,10.1-28,17.5-35.5a6.2,6.2,0,0,1,5.8-1.7l59.6,16.8h.8a6.6,6.6,0,0,1,4.4,2.3,6.9,6.9,0,0,1,1.6,5l-.5,4.1a29.7,29.7,0,0,0,7.4,1.3,6.7,6.7,0,0,1,5.8,3.4,6.3,6.3,0,0,1,1,2.7c.3,1.3.2,3-.9,5.7l.3.2a6.6,6.6,0,0,1,2,2.7c5.5,3.3,14.7,11.3,10.3,27h0c-3.8,13.4-14.1,17.7-23.4,17.4a7.4,7.4,0,0,1-2.9,1.2c-.6,4.2-2,6.5-5,7.4h0l-1.7.3a5.3,5.3,0,0,1-2.8-.3l-9-3.1-1.3,2.9a6.5,6.5,0,0,1-3.9,3.7Zm-59.1-27.2L607.8,477l1.7-4a4.9,4.9,0,0,1,6.2-2.7l9.9,3.4c.1-1.7.2-4.2.1-8a4.9,4.9,0,0,1,9.5-2l.8,1.9h.6c5.6.7,12.7-.4,15.5-10.1s-2.5-14.3-7.3-16.6l-.7-.3-2.4,1.6a5,5,0,0,1-6.3-.6,4.8,4.8,0,0,1-.6-6.2,82.1,82.1,0,0,0,4.3-7.3,85.9,85.9,0,0,1-10.3-2.6,5,5,0,0,1-3.5-5.3l.6-5-56.3-16c-5.5,6.4-10.1,16.4-13.6,29.8,0,.2-.1.3-.1.4s-.1.3-.1.4A204.7,204.7,0,0,0,550.4,460.8Zm78.6,14Zm-78.8-11.4v0Zm-2.7-3.5Zm8-31.4Z" transform="translate(-9.8)"/><circle class="cls-1" cx="331.2" cy="300" r="300"/><circle class="cls-2" cx="542.3" cy="188" r="20"/><path class="cls-3" d="M552.1,209.8A21.8,21.8,0,1,1,573.9,188,21.9,21.9,0,0,1,552.1,209.8Zm0-39.9A18.1,18.1,0,1,0,570.2,188,18.2,18.2,0,0,0,552.1,169.9Z" transform="translate(-9.8)"/><rect class="cls-4" x="169.6" y="178.8" width="4.1" height="133.19"/><rect class="cls-4" x="241.8" y="178.8" width="4.1" height="107.54"/><rect class="cls-4" x="250.3" y="178.8" width="12.6" height="107.54"/><rect class="cls-4" x="268.3" y="178.8" width="26.2" height="107.54"/><rect class="cls-4" x="301.5" y="178.8" width="11.6" height="107.54"/><rect class="cls-4" x="326.8" y="178.8" width="4.4" height="107.54"/><rect class="cls-4" x="336" y="178.8" width="8.1" height="107.54"/><rect class="cls-4" x="350.9" y="178.8" width="12" height="107.54"/><rect class="cls-4" x="366.6" y="178.8" width="16" height="107.54"/><rect class="cls-4" x="178.4" y="178.8" width="8.6" height="133.19"/><rect class="cls-4" x="192.4" y="178.8" width="12.2" height="133.19"/><rect class="cls-4" x="392.1" y="178.8" width="29.3" height="133.19"/><rect class="cls-4" x="210.6" y="178.8" width="25.8" height="107.54"/><polygon class="cls-3" points="445.1 156.6 445.1 204 433.4 204 433.4 168.4 406.3 168.4 406.3 156.6 445.1 156.6"/><polygon class="cls-3" points="184.9 156.6 184.9 168.4 157.8 168.4 157.8 204 146.1 204 146.1 156.6 184.9 156.6"/><polygon class="cls-3" points="184.9 324 184.9 335.7 146.1 335.7 146.1 288.3 157.8 288.3 157.8 324 184.9 324"/><polygon class="cls-3" points="445.1 288.3 445.1 335.7 406.3 335.7 406.3 324 433.4 324 433.4 288.3 445.1 288.3"/><path class="cls-4" d="M535.8,341.6c-2.7,10.8-14.1,16.7-22.8,18.2s-16.9,13.5-16.9,13.5l-50.2,87.4c-9.3,16.3-22,27.9-38.9,26.6s-30.4-10.5-30.4-10.5-21.9-12.3-5.9-19,21.5-19.9,21.5-19.9,12.6-25.7,24.5-51a6,6,0,0,0,3,2.9c-2.1,5.2,1.1,7.9,8.5,10.2s9.9-2.8,9.9-2.8,16.2-34.5,19-41-8.2-11.1-12.1-11.8-6,3-6,3l-1.6-.5a2.7,2.7,0,0,0-2.6,0c.1-.1.1-.1.1-.2,6.6-16.1,2.9-31-.2-38.9a212.5,212.5,0,0,0,41.5,16.1c18.7,5.2,41.9,13.1,59.5,16.9Z" transform="translate(-9.8)"/><path class="cls-3" d="M409.6,489.1h-2.7c-16.7-1.2-30-10-31.2-10.8s-12.9-7.5-12.5-14.5c.1-3.1,2.5-5.6,6.9-7.5a40.3,40.3,0,0,0,20.6-18.9c.2-.4,12.7-26.1,24.5-51.1l1.5-3.3,1.5,3.3a4.5,4.5,0,0,0,2.2,2.1l1.4.6-.5,1.5c-.8,2-.5,3-.2,3.6s3.2,3,7.7,4.4c6,1.9,7.7-1.8,7.7-1.9s16.3-34.5,19-41a3.3,3.3,0,0,0-.1-3.2c-1.8-3.2-7.8-5.8-10.6-6.3a4.5,4.5,0,0,0-4.3,2.2l-.7,1.2-1.3-.4-1.5-.5h-1.5l-3.7,1.6,1.5-3.9c6.5-15.7,2.7-30.4-.2-37.7l-1.6-4.1,4,2a217.9,217.9,0,0,0,41.1,16l21.6,6.3c13.1,4,26.7,8.2,37.9,10.6l1.1.2.4,2.3v.4c-2.8,11-14.2,17.6-24.2,19.4-7.6,1.2-15.2,11.9-15.7,12.7l-50.2,87.4C436.9,479.9,424.2,489.1,409.6,489.1Zm7.5-99c-11.5,24.2-23.2,48.3-23.3,48.6s-5.9,13.7-22.4,20.6c-3.2,1.3-4.8,2.9-4.9,4.6-.2,3.7,6.6,9,10.9,11.4h.2c.1.1,13.3,9,29.6,10.3,14.3,1,26.8-7.6,37.3-25.8l50.3-87.5c.3-.6,8.7-12.7,18-14.3s18.3-6.9,21.1-15.9c-11-2.5-24.1-6.5-36.7-10.3l-21.5-6.4a215.8,215.8,0,0,1-38.1-14.3,53.4,53.4,0,0,1-.3,33.9l.8.2h.3a7.4,7.4,0,0,1,6.9-2.7c3,.6,10.5,3.3,13,8a6.8,6.8,0,0,1,.3,6.2c-2.8,6.5-18.3,39.6-19,41s-4.8,6-11.9,3.7c-5.5-1.7-8.5-3.6-9.7-6.2a6.5,6.5,0,0,1-.3-4.8Z" transform="translate(-9.8)"/><path class="cls-2" d="M438.5,384.7c-5.4,10.5-5.9,10-5.9,10-6,.5-8.3-2.7-12.9-4.9a6,6,0,0,1-3-2.9,5.8,5.8,0,0,1-.4-3.7s9.8-23,13.7-30.8c1.8-3.6,3.5-5,4.8-5.5a2.7,2.7,0,0,1,2.6,0l1.6.5c3,1,9.6,3.5,11.3,7.1S443.9,374.3,438.5,384.7Z" transform="translate(-9.8)"/><path class="cls-3" d="M432.3,395.9h-.1c-4.3.3-6.9-1.3-9.5-3a29.1,29.1,0,0,0-3.5-2,6.8,6.8,0,0,1-3.5-3.4,7.1,7.1,0,0,1-.5-4.5h.1c.1-.2,9.9-23.2,13.7-30.9,1.7-3.3,3.5-5.3,5.4-6.1a3.9,3.9,0,0,1,3.5.1l1.5.4c3.6,1.2,10,3.8,11.9,7.7s-2.5,13.5-9.2,26.2l-2.6,5h0c-5.3,10.3-6.1,10.5-6.7,10.6Zm-14.9-12.3a4.3,4.3,0,0,0,.3,2.8,4.9,4.9,0,0,0,2.5,2.4,25.7,25.7,0,0,1,3.7,2.1c2.6,1.6,4.6,2.9,8.3,2.7.4-.5,1.7-2.5,5.3-9.4l2.6-5c4.7-8.7,11-20.7,9.2-24.2s-5.1-4.7-10.6-6.5l-1.6-.5h-.3a1.8,1.8,0,0,0-1.5.1c-1,.4-2.5,1.6-4.3,5C427.3,360.4,418,382.1,417.4,383.6Z" transform="translate(-9.8)"/><path class="cls-5" d="M457.1,356.2c-2.8,6.5-19,41-19,41s-2.3,5.2-9.9,2.8-10.6-5-8.5-10.2c4.6,2.2,6.9,5.4,12.9,4.9,0,0,.5.5,5.9-10s14.2-25.4,11.8-30.2-8.3-6.1-11.3-7.1c0,0,2.1-3.7,6-3S459.9,349.7,457.1,356.2Z" transform="translate(-9.8)"/><path class="cls-3" d="M564.4,335.9a13.8,13.8,0,0,1-4.6,5.4c-3.9,2.7-12.8,2-24.1-.5-17.6-3.8-40.8-11.7-59.5-16.9a212.5,212.5,0,0,1-41.5-16.1h0c-11.3-5.7-22.1-12.4-34.5-20.3-26.2-16.7-26-30.4-26-30.4h1.5l84.6,49.6h0l15.3,9,58.1,13.2Z" transform="translate(-9.8)"/><path class="cls-6" d="M488.5,281.1c-1.6-5.7-11.7-13.8-22.1-20.9-12.6-8.6-25.7-15.8-25.7-15.8s-37.6-22.4-53.8-20.1a7.7,7.7,0,0,0-6,3.3,91,91,0,0,0-11.8,25.7l6.6,3.8h0l84.6,49.6h0l15.3,9s1.7-2.3,3.9-5.7C484.1,302.6,491,289.6,488.5,281.1Zm-9.8,4.8-1.7,3.7L472.1,300l-2.2,4.9-89.4-51s.8-3.6,6.4-16.5c1.5-3.6,5.9-4.4,11.8-3.3,15.2,2.8,40.9,17.4,58.8,27.1C482.6,274.6,478.7,285.9,478.7,285.9Z" transform="translate(-9.8)"/><path class="cls-6" d="M579.5,297.3c-1.8-13.8-18.4-29.8-78.3-53.2s-114.3-20-114.3-20v.2c16.2-2.3,53.8,20.1,53.8,20.1s13.1,7.2,25.7,15.8c10.4,7.1,20.5,15.2,22.1,20.9,2.5,8.5-4.4,21.5-9,28.9-2.2,3.4-3.9,5.7-3.9,5.7l58.1,13.2,30.7,7,1.7.4S581.2,311.1,579.5,297.3Zm-52.9,20.9a2.7,2.7,0,0,1-3.6,1.4,2.6,2.6,0,0,1-1.6-2.6,4.4,4.4,0,0,1,.2-1l8.3-19.4.6-.8a2.6,2.6,0,0,1,3-.6,2.6,2.6,0,0,1,1.7,2.5,3.6,3.6,0,0,1-.2,1h0l-8.3,19.2Zm5.9,3.6-.8-.2a2.7,2.7,0,0,1-1.6-3.1.9.9,0,0,1,.1-.5l7.5-17.4.6-1.5a2.8,2.8,0,0,1,3.6-1.5,2.8,2.8,0,0,1,1.7,2.6,3.6,3.6,0,0,1-.2,1l-1.1,2.5-7.1,16.5A2.5,2.5,0,0,1,532.5,321.8Zm19.4-18.4-2.2,5.2-6.1,14.2a2.8,2.8,0,0,1-3.6,1.5,2.7,2.7,0,0,1-1.4-3.6l6.4-15.2,1.9-4.3a2.7,2.7,0,0,1,3.6-1.4,2.6,2.6,0,0,1,1.6,2.5A2.3,2.3,0,0,1,551.9,303.4Z" transform="translate(-9.8)"/><path class="cls-4" d="M472.1,300l-2.2,4.9-89.4-51s.8-3.7,6.4-16.5c1.5-3.6,5.9-4.4,11.8-3.3l-10.3,19.8Z" transform="translate(-9.8)"/><path class="cls-5" d="M457.5,261.2c-17.9-9.7-43.6-24.3-58.8-27.1l-10.3,19.8L472.1,300l4.9-10.4,1.7-3.7S482.6,274.6,457.5,261.2Zm15.7,26.9-3.3,6.8-76.1-42.3a85.7,85.7,0,0,1,3.5-9.2,5,5,0,0,1,2.8-2.5c4.1-1.6,13.8-.3,38.2,13,33.4,18.2,36.9,30.1,36.9,30.1Z" transform="translate(-9.8)"/><path class="cls-3" d="M473.2,288.1l-3.3,6.8-76.1-42.3a85.7,85.7,0,0,1,3.5-9.2,5,5,0,0,1,2.8-2.5C402.2,245.8,413.8,264.5,473.2,288.1Z" transform="translate(-9.8)"/><path class="cls-4" d="M475.2,284l-2,4.1c-59.4-23.6-71-42.3-73.1-47.2,4.1-1.6,13.8-.3,38.2,13C471.7,272.1,475.2,284,475.2,284Z" transform="translate(-9.8)"/><path class="cls-4" d="M543.6,300.2a3.6,3.6,0,0,1-.2,1l-1.1,2.5-7.1,16.5a2.5,2.5,0,0,1-2.7,1.6l-.8-.2a2.7,2.7,0,0,1-1.6-3.1.9.9,0,0,1,.1-.5l7.5-17.4.6-1.5a2.8,2.8,0,0,1,3.6-1.5A2.8,2.8,0,0,1,543.6,300.2Z" transform="translate(-9.8)"/><path class="cls-4" d="M552.1,302.3a2.3,2.3,0,0,1-.2,1.1l-2.2,5.2-6.1,14.2a2.8,2.8,0,0,1-3.6,1.5,2.7,2.7,0,0,1-1.4-3.6l6.4-15.2,1.9-4.3a2.7,2.7,0,0,1,3.6-1.4A2.6,2.6,0,0,1,552.1,302.3Z" transform="translate(-9.8)"/><path class="cls-4" d="M535.2,297.7a3.6,3.6,0,0,1-.2,1h0l-8.3,19.2v.3a2.7,2.7,0,0,1-3.6,1.4,2.6,2.6,0,0,1-1.6-2.6,4.4,4.4,0,0,1,.2-1l8.3-19.4.6-.8a2.6,2.6,0,0,1,3-.6A2.6,2.6,0,0,1,535.2,297.7Z" transform="translate(-9.8)"/><rect class="cls-4" x="296.1" y="71" width="115.7" height="62.5" transform="translate(-17.2 174.2) rotate(-27.4)"/><rect class="cls-3" x="297.9" y="78.5" width="83.1" height="62.5" transform="translate(-22.3 168.4) rotate(-27.4)"/><rect class="cls-1" x="330" y="79.1" width="16.6" height="62.5" transform="translate(-22.7 167.9) rotate(-27.4)"/><circle class="cls-7" cx="310.4" cy="541.5" r="4.4"/><circle class="cls-7" cx="323" cy="531.1" r="4.4"/><circle class="cls-7" cx="335.6" cy="520.8" r="4.4"/><circle class="cls-7" cx="318.2" cy="551" r="4.4"/><circle class="cls-7" cx="330.8" cy="540.7" r="4.4"/><circle class="cls-7" cx="343.4" cy="530.3" r="4.4"/><circle class="cls-7" cx="326.1" cy="560.6" r="4.4"/><circle class="cls-7" cx="338.7" cy="550.2" r="4.4"/><circle class="cls-7" cx="351.3" cy="539.9" r="4.4"/><circle class="cls-7" cx="333.9" cy="570.1" r="4.4"/><circle class="cls-7" cx="346.5" cy="559.8" r="4.4"/><circle class="cls-7" cx="359.1" cy="549.4" r="4.4"/><path class="cls-3" d="M523.1,458.4,512.5,469l10.2,10.2-2.7,2.7-10.2-10.2-10.7,10.7-2.8-2.9,10.6-10.7-10.1-10.2,2.7-2.7,10.1,10.2,10.6-10.6Z" transform="translate(-9.8)"/><path class="cls-4" d="M609.5,481.4l-63-17.9a204.4,204.4,0,0,1,5.8-36.8l19.6,5a2.5,2.5,0,0,1-.2.7C564.8,458.1,609.5,481.4,609.5,481.4Z" transform="translate(-9.8)"/><path class="cls-3" d="M609.5,482.6h-.4l-62.9-17.9a1.3,1.3,0,0,1-1-1.3,209.9,209.9,0,0,1,5.9-37.1,1.3,1.3,0,0,1,1.5-.9l19.7,5.1a1.6,1.6,0,0,1,.8.6,1.2,1.2,0,0,1,0,1c0,.2-.1.4-.1.6-6.7,24.4,36.6,47.3,37,47.5a1.2,1.2,0,0,1,.6,1.6A1.2,1.2,0,0,1,609.5,482.6Zm-61.7-20,52.6,14.9c-12.7-8.3-34.7-25.7-30-44.9l-17.2-4.4A213.3,213.3,0,0,0,547.8,462.6Z" transform="translate(-9.8)"/><path class="cls-4" d="M552.3,426.7c3.3-12.7,8.3-25.6,16.1-33.5l61.2,17.3s-50-3.8-57.7,21.2Z" transform="translate(-9.8)"/><path class="cls-3" d="M571.9,433h-.3l-19.6-5a1.6,1.6,0,0,1-.8-.6,1.1,1.1,0,0,1-.1-1c4-15.6,9.5-27,16.4-34a1.2,1.2,0,0,1,1.3-.4l61.1,17.4a1.3,1.3,0,0,1-.4,2.5c-.5-.1-49.1-3.4-56.3,20.3A1.4,1.4,0,0,1,571.9,433Zm-18.1-7.3,17.3,4.5c6.6-17.8,33.7-20.9,48.6-21.2l-50.9-14.4C562.7,401.1,557.6,411.6,553.8,425.7Z" transform="translate(-9.8)"/><path class="cls-2" d="M571.9,431.7c7.7-25,57.7-21.2,57.7-21.2l-1.2,9.5-2-.7s-1.3,10.6-2.9,19.7l-1.2-.4-1.4,5.7Z" transform="translate(-9.8)"/><path class="cls-3" d="M620.9,445.9h-.4l-49-12.6a1.6,1.6,0,0,1-1-.8,2,2,0,0,1-.2-1.3c8-25.9,57.3-22.5,59.4-22.4a2.7,2.7,0,0,1,1.2.6,2.1,2.1,0,0,1,.3,1.3l-1.1,9.5a1.7,1.7,0,0,1-.8,1.2,1.4,1.4,0,0,1-1.4.2h-.1c-.5,3.5-1.5,11-2.7,17.7a2.1,2.1,0,0,1-.8,1.1l-.7.2-1.1,4.1a1.4,1.4,0,0,1-.7,1A1.5,1.5,0,0,1,620.9,445.9Zm-46.8-15.4,45.6,11.7,1-4a1.6,1.6,0,0,1,.8-1l.6-.2c1.5-8.5,2.6-17.8,2.6-17.9a2,2,0,0,1,.8-1.2,2,2,0,0,1,1.5-.1h0l.7-5.7C619.1,411.7,582.1,411.4,574.1,430.5Z" transform="translate(-9.8)"/><path class="cls-2" d="M609.5,481.4s-44.7-23.3-37.8-49a2.5,2.5,0,0,0,.2-.7l49,12.6-2.4,9.5.8.3c-3.2,8.5-7.9,18.2-7.9,18.2l1.8.6Z" transform="translate(-9.8)"/><path class="cls-3" d="M609.5,483a1.1,1.1,0,0,1-.8-.2c-1.9-.9-45.8-24.2-38.6-50.9l.3-.7a1.5,1.5,0,0,1,2-1.1l48.9,12.5a1.7,1.7,0,0,1,1.2,2.1l-2.1,8.2a1,1,0,0,1,.4.5,1.5,1.5,0,0,1,.1,1.3c-2.5,6.4-5.7,13.4-7.2,16.6h0a1.8,1.8,0,0,1,1,.9,1.7,1.7,0,0,1,0,1.4L611,482a1.3,1.3,0,0,1-1,.9Zm-36.4-49.3c-4.6,21.1,27.9,41,35.6,45.3l2.2-5.1h-.1a1.6,1.6,0,0,1-.9-2.3c0-.1,4.1-8.7,7.3-16.7a1.9,1.9,0,0,1-.4-1.5l2.1-7.9Z" transform="translate(-9.8)"/><line class="cls-4" x1="542.4" y1="426.6" x2="542.5" y2="426.7"/><path class="cls-3" d="M552.3,427.9H552a1.4,1.4,0,0,1-1-1.6,1.3,1.3,0,0,1,1.6-.9h0a1.3,1.3,0,0,1,.9,1.6A1.2,1.2,0,0,1,552.3,427.9Z" transform="translate(-9.8)"/><path class="cls-3" d="M633.6,443l-.6-.2a1.2,1.2,0,0,1-.5-1.4c1.6-4.1,7-17.8,10.1-19.2h1l.6.2a1.9,1.9,0,0,1,.9,1.2c.7,3.3-8,15.4-10.6,19A1.2,1.2,0,0,1,633.6,443Zm9-17.8a46,46,0,0,0-3.7,6.8A41,41,0,0,0,642.6,425.2Z" transform="translate(-9.8)"/><path class="cls-3" d="M643.2,424.4h-.1a1.1,1.1,0,0,1-1.1-.9,1,1,0,0,1,.6-1.2,1.5,1.5,0,0,1,1.6,0,1.1,1.1,0,0,1,.6,1.2,1.3,1.3,0,0,1-1,.9Zm.1-.6-.2.4h.5Z" transform="translate(-9.8)"/><path class="cls-3" d="M628.5,479.6a1.7,1.7,0,0,1-1.5-1h0c-2.9-4.6.6-19.6,1-21.3a1.3,1.3,0,0,1,1.2-.9,1.1,1.1,0,0,1,1,1c1.3,21.3-.5,21.8-1.3,22.1Zm-.1-11.4a29.3,29.3,0,0,0-.1,7.2C628.4,473.6,628.4,471.1,628.4,468.2Z" transform="translate(-9.8)"/><path class="cls-4" d="M633.6,441.8,623.5,439c1.6-9.1,2.9-19.7,2.9-19.7l2,.7c3.4,1.1,10.4,3.3,14.7,3.3C640.1,424.6,633.6,441.8,633.6,441.8Z" transform="translate(-9.8)"/><path class="cls-3" d="M633.6,443.5h-.5L623,440.6a1.8,1.8,0,0,1-1.2-1.9c1.7-9,2.9-19.4,2.9-19.6a2,2,0,0,1,.8-1.2,2,2,0,0,1,1.5-.1l1.9.6c6.3,2.1,11.3,3.2,14.2,3.2a1.7,1.7,0,0,1,1.6,1.3,1.6,1.6,0,0,1-1,1.9c-1.5.9-5.6,9.9-8.6,17.6A1.5,1.5,0,0,1,633.6,443.5Zm-8.2-5.7,7.2,2c1.6-4.3,4.5-11.2,7.1-15.2a65.8,65.8,0,0,1-11.8-3h-.1C627.4,424.9,626.5,431.5,625.4,437.8Z" transform="translate(-9.8)"/><path class="cls-4" d="M627.9,478l-14.7-5.1-1.8-.6s4.7-9.7,7.9-18.2l1.9.7,7.9,2.7S625.2,473.7,627.9,478Z" transform="translate(-9.8)"/><path class="cls-3" d="M627.9,479.6h-.5l-16.6-5.6a1.6,1.6,0,0,1-.9-2.3c0-.1,4.7-9.7,7.9-18.1a1.7,1.7,0,0,1,2.1-1l9.8,3.4a1.8,1.8,0,0,1,1.1,2c-1.6,6.4-3,16.6-1.5,19.2a1.5,1.5,0,0,1-.1,1.9A1.6,1.6,0,0,1,627.9,479.6Zm-14.2-8.3,11.8,4c-.7-5.2.9-13,1.7-16.7l-6.9-2.4C617.9,462.2,615.1,468.4,613.7,471.3Z" transform="translate(-9.8)"/><polygon class="cls-3" points="619.3 457.5 611.4 454.8 609.5 454.1 608.6 453.8 611.1 444.3 612.5 438.6 623.8 441.8 619.3 457.5"/><path class="cls-4" d="M634.4,470.3l-5.3-12.8,4.5-15.7,11.6-7.9S635.6,460.3,634.4,470.3Z" transform="translate(-9.8)"/><path class="cls-3" d="M634.4,471.9a1.8,1.8,0,0,1-1.6-1l-5.2-12.7a1.4,1.4,0,0,1-.1-1.1l4.5-15.7a1.5,1.5,0,0,1,.6-.9l11.7-8a1.8,1.8,0,0,1,2,0,1.8,1.8,0,0,1,.5,1.9c-.1.3-9.6,26.4-10.8,36.1a1.6,1.6,0,0,1-1.4,1.4Zm-3.5-14.5,2.9,7c2-8.2,5.9-19.8,8.1-26.2l-6.9,4.7Z" transform="translate(-9.8)"/><path class="cls-3" d="M634.4,470.3c1.2-10,10.8-36.4,10.8-36.4s16.7,5.2,11.7,23S634.4,470.3,634.4,470.3Z" transform="translate(-9.8)"/><rect class="cls-2" x="25.6" y="222.9" width="86.2" height="82.73" rx="14" transform="translate(98.3 -5.9) rotate(22.9)"/><path class="cls-3" d="M84.9,317.2a15.9,15.9,0,0,1-6.4-1.3L24.8,293.2a16.4,16.4,0,0,1-8.7-21.4l21.3-50.5a16.4,16.4,0,0,1,21.4-8.7l53.7,22.6a16,16,0,0,1,8.8,8.9,16.2,16.2,0,0,1,0,12.6L100,307.2a16.5,16.5,0,0,1-9,8.8A16.2,16.2,0,0,1,84.9,317.2Zm-4.5-5.8a11.2,11.2,0,0,0,8.8.1,11.6,11.6,0,0,0,6.3-6.2l21.3-50.5a11.5,11.5,0,0,0-6.1-15.1L57,217a11.6,11.6,0,0,0-15.2,6.2L20.5,273.7a11.6,11.6,0,0,0,6.2,15.1Z" transform="translate(-9.8)"/><path class="cls-3" d="M61.5,281.2l-.6-1.2c-1-2.1-9.6-19.8-9.6-24.5a11,11,0,0,1,4.5-8.4,10,10,0,0,1,9.3-1.7,12.5,12.5,0,0,1,8.5,7.2,12.3,12.3,0,0,1,11,1,10.3,10.3,0,0,1,5.3,7.9,11.1,11.1,0,0,1-2.8,9.1c-3.4,3.3-22.2,9.4-24.3,10.1Zm4.2-32.4-1.4-.5a7.7,7.7,0,0,0-6.7,1.2,8.2,8.2,0,0,0-3.2,6c0,2.8,5.1,14.4,8.7,21.9,7.9-2.6,19.8-7,21.8-9h0a8,8,0,0,0,2-6.5,7.2,7.2,0,0,0-3.8-5.6,9.2,9.2,0,0,0-9.6-.3l-1.9,1.3-.4-2.3A9.5,9.5,0,0,0,65.7,248.8Z" transform="translate(-9.8)"/><path class="cls-4" d="M256.7,426.1l3,5.6a18.4,18.4,0,0,1-2.9,2.6h0c-8.4,6.7-24.7,12.8-32.5,15.4l-4.5,1.5-2.3-4.5Z" transform="translate(-9.8)"/><path class="cls-3" d="M219,453.2l-3.8-7.2,42.2-22.2,4.3,8.1-.8.9a20.6,20.6,0,0,1-3,2.8l-.2.2c-8.5,6.7-24.2,12.6-32.9,15.5l-4.5,1.5Zm.7-5.8,1,1.8,3-1c6.9-2.4,23.7-8.5,32-15.2h.2l1.7-1.5-1.6-3Z" transform="translate(-9.8)"/><path class="cls-3" d="M256.8,434.3l-.5,3.3-29,16.1-3-4c7.8-2.6,24.1-8.7,32.5-15.4Z" transform="translate(-9.8)"/><polygon class="cls-4" points="246.5 437.6 251.4 449.9 224.1 463.1 217.4 453.7 246.5 437.6"/><path class="cls-4" d="M287.9,443.8s15.5,40.4,18.2,49.5,0,10.6,0,10.6c-15.8,12.7-41.6,23-48,25.2s-5.7,2.1-12.2-4.1-32.3-43.1-32.3-43.1l2.1-2,2.1,2.2,35.2,41,46.6-25.8L285.4,443C288.1,442.7,287.9,443.8,287.9,443.8Z" transform="translate(-9.8)"/><path class="cls-3" d="M253.2,532.1c-2.1,0-3.6-1.3-6.9-4.5l-1.5-1.4c-6.6-6.3-31.5-41.9-32.6-43.4l-.8-1.2,4.4-4,3.3,3.4,34.3,39.9,44.2-24.4-14.3-54.9,1.9-.3c1.8-.2,3,.1,3.7.9a2.8,2.8,0,0,1,.7,1.3c1.4,3.7,15.5,40.5,18.1,49.4s.4,11.7-.7,12.4c-15.1,12.1-40,22.4-48.3,25.4h-.1A18.6,18.6,0,0,1,253.2,532.1Zm-36.4-48.6c6.1,8.6,25,35.2,30.3,40.3l1.5,1.4c2.2,2.1,3.4,3.3,4.3,3.5s1.9-.2,4.5-1.1h.2c8.2-2.9,32.7-13,47.4-24.9h.1c.2-.2,1.3-2.2-.6-8.7s-9.6-26.9-14.4-39.5l11.4,43.8-48.9,27.1Z" transform="translate(-9.8)"/><path class="cls-8" d="M279.3,444.8a111.5,111.5,0,0,1-18.1,5.1L234,463.1l-18.3,16.8,2.1,2.2,35.2,41,46.6-25.8L285.4,443A31.5,31.5,0,0,0,279.3,444.8Zm8,36.4a89.5,89.5,0,0,1-41.9,22l-11.6-22,42-22Z" transform="translate(-9.8)"/><path class="cls-4" d="M275.8,459.2l11.5,22a89.5,89.5,0,0,1-41.9,22l-11.6-22Z" transform="translate(-9.8)"/><path class="cls-3" d="M244.5,505.1l-12.9-24.6,44.9-23.6,12.9,24.6-.9.9a90.6,90.6,0,0,1-42.8,22.5Zm-8.4-23.2,10.2,19.4a87.8,87.8,0,0,0,38.9-20.5L275,461.5Z" transform="translate(-9.8)"/><polygon class="cls-3" points="204.7 481.1 204.5 481 206.9 478.6 207.1 478.7 204.7 481.1"/><polygon class="cls-4" points="154.7 462.1 100.5 443.2 125.3 382.5 172.2 398.8 154.7 462.1"/><path class="cls-4" d="M159.8,408.8a17.4,17.4,0,0,1-5.9-1A17.8,17.8,0,0,1,143,385.2a18.1,18.1,0,0,1,9-10.2,18.3,18.3,0,0,1,13.6-.8,17.9,17.9,0,0,1,11,22.7h0A17.9,17.9,0,0,1,159.8,408.8Zm0-33.6a16.6,16.6,0,0,0-6.9,1.6,16.1,16.1,0,0,0-8,9,15.8,15.8,0,0,0,29.8,10.4h0a15.9,15.9,0,0,0-9.7-20.1A15.8,15.8,0,0,0,159.8,375.2Z" transform="translate(-9.8)"/><path class="cls-4" d="M226.1,303.6a6.3,6.3,0,0,1,1.9-4.7,6.6,6.6,0,0,1,9.5,0,6.3,6.3,0,0,1,1.9,4.7v14.2a6.4,6.4,0,0,1-1.9,4.7,6.6,6.6,0,0,1-9.5,0,6.4,6.4,0,0,1-1.9-4.7Zm4.1,14.2a2.5,2.5,0,0,0,.8,1.8,2.3,2.3,0,0,0,1.7.7,2.4,2.4,0,0,0,2.5-2.5V303.6a2.4,2.4,0,0,0-2.5-2.5,2.3,2.3,0,0,0-1.7.7,2.5,2.5,0,0,0-.8,1.8Z" transform="translate(-9.8)"/><path class="cls-4" d="M256.3,317.8a6.4,6.4,0,0,1-1.9,4.7,6.6,6.6,0,0,1-9.5,0,6.4,6.4,0,0,1-1.9-4.7V317h1.9a2.5,2.5,0,0,1,2.4,1.6h0a2.5,2.5,0,0,0,2.3,1.6,2.6,2.6,0,0,0,1.9-.8,2.7,2.7,0,0,0,.6-1.7v-6.7a2.4,2.4,0,0,0-2.5-2.5,2.3,2.3,0,0,0-1.7.7,2.5,2.5,0,0,0-.8,1.8H243V296.9h13.3v.6a3.3,3.3,0,0,1-1,2.5,3.6,3.6,0,0,1-2.6,1.1h-5.6v3.8a4.4,4.4,0,0,1,2.5-.5,6.5,6.5,0,0,1,6.7,6.7Z" transform="translate(-9.8)"/><path class="cls-4" d="M259.9,303.6a6.3,6.3,0,0,1,1.9-4.7,6.6,6.6,0,0,1,9.5,0,6.3,6.3,0,0,1,1.9,4.7v14.2a6.4,6.4,0,0,1-1.9,4.7,6.6,6.6,0,0,1-9.5,0,6.4,6.4,0,0,1-1.9-4.7Zm4.1,14.2a2.5,2.5,0,0,0,.8,1.8,2.3,2.3,0,0,0,1.7.7,2.4,2.4,0,0,0,2.5-2.5V303.6a2.4,2.4,0,0,0-2.5-2.5,2.3,2.3,0,0,0-1.7.7,2.5,2.5,0,0,0-.8,1.8Z" transform="translate(-9.8)"/><path class="cls-4" d="M285.1,319.5h-8.3v-4.2l8-18.4h4.5v18.4a1.8,1.8,0,0,1,1.2.5,1.7,1.7,0,0,1,.5,1.2v2.5h-1.7v5h-1.1a3.1,3.1,0,0,1-3.1-3.1Zm-3.6-4.2h3.6v-9Z" transform="translate(-9.8)"/><path class="cls-4" d="M294.5,303.6a6.3,6.3,0,0,1,1.9-4.7,6.6,6.6,0,0,1,9.5,0,6.3,6.3,0,0,1,2,4.7v14.2a6.8,6.8,0,0,1-6.7,6.7,6.3,6.3,0,0,1-4.7-2,6.1,6.1,0,0,1-2-4.7Zm4.2,14.2a2.4,2.4,0,0,0,2.5,2.5,2.2,2.2,0,0,0,1.7-.7,2.5,2.5,0,0,0,.8-1.8V303.6a2.5,2.5,0,0,0-.8-1.8,2.2,2.2,0,0,0-1.7-.7,2.4,2.4,0,0,0-2.5,2.5Z" transform="translate(-9.8)"/><path class="cls-4" d="M311.4,303.6a6.3,6.3,0,0,1,1.9-4.7,6.6,6.6,0,0,1,9.5,0,6.3,6.3,0,0,1,2,4.7v14.2a6.8,6.8,0,0,1-6.7,6.7,6.7,6.7,0,0,1-4.8-2,6.4,6.4,0,0,1-1.9-4.7Zm4.2,14.2a2.4,2.4,0,0,0,2.5,2.5,2.2,2.2,0,0,0,1.7-.7,2.5,2.5,0,0,0,.8-1.8V303.6a2.5,2.5,0,0,0-.8-1.8,2.2,2.2,0,0,0-1.7-.7,2.4,2.4,0,0,0-2.5,2.5Z" transform="translate(-9.8)"/><path class="cls-4" d="M337.5,303.6a2.5,2.5,0,0,0-.8-1.8,2.3,2.3,0,0,0-1.7-.7,2.4,2.4,0,0,0-1.8.7,4.2,4.2,0,0,0-.6.8,3,3,0,0,1-2.6,1.9h-1.7v-.9a6.3,6.3,0,0,1,1.9-4.7,6.7,6.7,0,0,1,4.8-2,6.5,6.5,0,0,1,4.7,2,6.3,6.3,0,0,1,2,4.7v2.5a6.6,6.6,0,0,1-1.9,4.6,6.6,6.6,0,0,1,1.9,4.6v2.4a6.8,6.8,0,0,1-2.1,4.9,6,6,0,0,1-4.6,1.9,6.7,6.7,0,0,1-4.8-2,6.4,6.4,0,0,1-1.9-4.7v-2.5H330a2.1,2.1,0,0,1,1.7.7,2.5,2.5,0,0,1,.8,1.8,2.7,2.7,0,0,0,.6,1.7,2.6,2.6,0,0,0,1.9.8,2.5,2.5,0,0,0,1.8-.8,2.3,2.3,0,0,0,.7-1.7v-2.5a2.3,2.3,0,0,0-.7-1.7,2.2,2.2,0,0,0-1.8-.8v-4.2a2.2,2.2,0,0,0,1.8-.8,2.3,2.3,0,0,0,.7-1.7Z" transform="translate(-9.8)"/><path class="cls-4" d="M354.4,303.6a2.5,2.5,0,0,0-.8-1.8,1.9,1.9,0,0,0-1.7-.7,2.4,2.4,0,0,0-2.5,2.5,2.1,2.1,0,0,1-.8,1.7,2.5,2.5,0,0,1-1.8.8h-1.6v-2.5a6.5,6.5,0,0,1,6.7-6.7,6.2,6.2,0,0,1,4.6,1.9,6.7,6.7,0,0,1,2.1,4.9v2.5c0,3-1.6,5.5-4.6,7.4s-4.6,3.4-4.6,5v1.7h5.5a3.6,3.6,0,0,1,2.6,1.1,3.4,3.4,0,0,1,1.1,2.5v.6H345.2v-5.9a8.1,8.1,0,0,1,4.6-7.5c3.1-1.7,4.6-3.3,4.6-5Z" transform="translate(-9.8)"/><path class="cls-4" d="M370.4,320.3h.4a3.6,3.6,0,0,1,2.6,1.1,3.3,3.3,0,0,1,1,2.5v.6H362.1v-.6a3.8,3.8,0,0,1,3.6-3.6h.5V303.9h0a2.4,2.4,0,0,1-2.7.2,2.2,2.2,0,0,1-1.4-2.2v-1.3a9,9,0,0,0,4.8-3.7h3.5Z" transform="translate(-9.8)"/><path class="cls-4" d="M391.1,317.8a6.4,6.4,0,0,1-1.9,4.7,6.6,6.6,0,0,1-9.5,0,6.4,6.4,0,0,1-1.9-4.7V317h1.9a2.5,2.5,0,0,1,2.4,1.6h0a2.4,2.4,0,0,0,.6.9,2.4,2.4,0,0,0,1.8.7,2.5,2.5,0,0,0,1.8-.8,2.8,2.8,0,0,0,.7-1.7v-6.7a2.5,2.5,0,0,0-.8-1.8,2.3,2.3,0,0,0-1.7-.7,2.4,2.4,0,0,0-1.8.7,2.5,2.5,0,0,0-.8,1.8h-4.1V296.9h13.3v.6a3.3,3.3,0,0,1-1,2.5,3.6,3.6,0,0,1-2.6,1.1h-5.6v3.8a4.6,4.6,0,0,1,2.6-.5,6.4,6.4,0,0,1,4.7,1.9,6.5,6.5,0,0,1,1.9,4.8Z" transform="translate(-9.8)"/></svg>