<?xml version="1.0" encoding="utf-8"?>
<!-- Generator: Adobe Illustrator 23.0.1, SVG Export Plug-In . SVG Version: 6.00 Build 0)  -->
<svg version="1.1" id="Layer_1" xmlns="http://www.w3.org/2000/svg" xmlns:xlink="http://www.w3.org/1999/xlink" x="0px" y="0px"
	 viewBox="0 0 600 600" style="enable-background:new 0 0 600 600;" xml:space="preserve">
<style type="text/css">
	.st0{fill:#DCECF7;}
	.st1{fill:#E7E6FF;}
	.st2{fill:#1755E0;}
	.st3{fill:#FEFEFE;}
	.st4{fill:#1780E0;}
	.st5{fill:#1755E1;}
</style>
<g>
	<g>
		<path class="st0" d="M420.02,493.8h-3.79c-0.23,0-0.4,0.21-0.4,0.4h4.59C420.42,494.01,420.26,493.8,420.02,493.8z M420.02,493.8
			h-3.79c-0.23,0-0.4,0.21-0.4,0.4h4.59C420.42,494.01,420.26,493.8,420.02,493.8z M300,0C134.31,0,0,134.31,0,300
			s134.31,300,300,300c90.94,0,172.42-40.46,227.43-104.36c7-8.13,13.57-16.63,19.67-25.48C580.46,421.81,600,363.19,600,300
			C600,134.31,465.69,0,300,0z M420.81,494.55c-0.18,8.31-7,15.01-15.48,15.01l-77.21-1c-8.26,0-15.02-6.55-15.35-14.73l-5.35-53.42
			l-0.1-1h5.01l-0.38-3.74l-2.34-22.94v-0.26c0-5.72,4.66-10.37,10.38-10.37h55.1c0.19,0,0.4-0.17,0.4-0.4v-20.59
			c0-11.83,9.62-21.45,21.44-21.45c5.63,0,11.01,2.2,15.14,6.19c4.11,4.24,6.31,9.62,6.31,15.26v27.57c0,0.18,0.21,0.4,0.39,0.4
			h1.25c0.24,0,0.4-0.21,0.4-0.4h4.99c0,0.18-0.01,0.37-0.03,0.55c-0.01,0.16-0.04,0.31-0.07,0.47c-0.07,0.37-0.18,0.72-0.32,1.06
			c0,0.01,0,0.01,0,0.01c-0.16,0.36-0.35,0.7-0.57,1.02c-0.07,0.11-0.15,0.21-0.23,0.31c-0.55,0.66-1.26,1.2-2.07,1.54
			c-0.64,0.27-1.35,0.42-2.09,0.42h-1.26c-0.27,0-0.55-0.02-0.81-0.06c-0.27-0.04-0.54-0.1-0.79-0.18
			c-0.33-0.11-0.66-0.25-0.96-0.41c-0.3-0.17-0.58-0.36-0.85-0.58c-0.13-0.11-0.26-0.23-0.38-0.35c-0.49-0.49-0.88-1.07-1.16-1.71
			c-0.28-0.64-0.43-1.35-0.43-2.09V381.1c0-2.83-0.72-5.49-1.98-7.83c-0.25-0.47-0.52-0.92-0.82-1.36c-0.14-0.22-0.3-0.44-0.46-0.66
			c-0.47-0.64-0.98-1.25-1.53-1.82c-3.04-2.94-7.08-4.78-11.67-4.78c-0.55,0-1.09,0.03-1.63,0.09c-0.06-0.01-0.11,0-0.17,0.01
			c-0.52,0.05-1.02,0.13-1.53,0.24c-0.54,0.11-1.07,0.24-1.58,0.41c-2.58,0.8-4.89,2.22-6.75,4.08c-0.37,0.37-0.72,0.76-1.05,1.16
			c-0.16,0.21-0.33,0.42-0.5,0.63c-0.31,0.42-0.6,0.85-0.87,1.3c-1.53,2.49-2.4,5.42-2.4,8.56v20.59c0,1.3-0.47,2.49-1.23,3.42
			c-0.11,0.13-0.23,0.26-0.35,0.38c-0.15,0.16-0.31,0.3-0.48,0.43c-0.92,0.71-2.07,1.13-3.3,1.13h-55.1c-1.31,0-2.52,0.47-3.45,1.26
			c-0.13,0.11-0.26,0.23-0.38,0.35c-0.15,0.15-0.3,0.31-0.43,0.48c-0.29,0.37-0.53,0.78-0.71,1.22c0,0,0,0-0.01,0.01
			c-0.26,0.64-0.41,1.34-0.41,2.07l2.74,26.93l5.39,53.8c0,3,2.44,5.39,5.39,5.39l77.34,1c2.94,0,5.39-2.45,5.39-5.39
			c0-2.94,2.39-5.38,5.38-5.38h3.79c2.99,0,5.39,2.44,5.39,5.38h-4.59C420.82,494.32,420.82,494.43,420.81,494.55z M420.02,493.8
			h-3.79c-0.23,0-0.4,0.21-0.4,0.4h4.59C420.42,494.01,420.26,493.8,420.02,493.8z M420.02,493.8h-3.79c-0.23,0-0.4,0.21-0.4,0.4
			h4.59C420.42,494.01,420.26,493.8,420.02,493.8z M420.02,493.8h-3.79c-0.23,0-0.4,0.21-0.4,0.4h4.59
			C420.42,494.01,420.26,493.8,420.02,493.8z"/>
	</g>
	<g>
		<g>
			<path class="st1" d="M477.45,322.1v69.87H430.8c-3.07,0-5.79,1.53-7.44,3.86c-1.06,1.49-1.68,3.31-1.68,5.26v7.59h-1.26
				c0,0.19-0.16,0.4-0.4,0.4h-1.25c-0.18,0-0.39-0.22-0.39-0.4v-27.57c0-5.64-2.2-11.02-6.31-15.26c-4.13-3.99-9.51-6.19-15.14-6.19
				c-11.82,0-21.44,9.62-21.44,21.45v20.59c0,0.23-0.21,0.4-0.4,0.4h-55.1c-5.72,0-10.38,4.65-10.38,10.37v0.26l2.34,22.94H143.22
				c-11.4,0-20.67-9.25-20.67-20.62V235.74c0-11.37,9.27-20.62,20.67-20.62h93.29c1.95,33.33,29.68,59.86,63.49,59.86
				c10.32,0,20.42-2.49,29.46-7.22c16.13,39.92,55.2,66.44,98.6,66.44C445.33,334.2,462.28,330.04,477.45,322.1z"/>
		</g>
		<g>
			<path class="st2" d="M375.09,407.08h-55.1c-1.31,0-2.52,0.47-3.45,1.26c0.94-0.76,2.14-1.23,3.43-1.23h55.1
				c1.25,0,2.41-0.44,3.32-1.16C377.47,406.66,376.32,407.08,375.09,407.08z M392.02,365.4c0.51-0.16,1.04-0.3,1.58-0.41
				C393.06,365.1,392.53,365.23,392.02,365.4z M408.6,369.43c-3.04-2.94-7.08-4.78-11.67-4.78c-0.55,0-1.09,0.03-1.63,0.09
				c0.53-0.05,1.07-0.08,1.62-0.08c4.58,0,8.66,1.84,11.67,4.8c0.55,0.56,1.07,1.16,1.54,1.79
				C409.66,370.61,409.15,370,408.6,369.43z M428.06,330.47c-44.55,0-82.52-28.41-96.65-68.12c-9.15,5.66-19.92,8.89-31.41,8.89
				c-33.07,0-59.86-26.79-59.86-59.86h-96.92c-13.46,0-24.41,10.9-24.41,24.36v179.31c0,13.46,10.95,24.36,24.41,24.36h169.11
				l-0.38-3.74l-2.34-22.94v-0.26c0-5.72,4.66-10.37,10.38-10.37h55.1c0.19,0,0.4-0.17,0.4-0.4v-20.59
				c0-11.83,9.62-21.45,21.44-21.45c5.63,0,11.01,2.2,15.14,6.19c4.11,4.24,6.31,9.62,6.31,15.26v27.57c0,0.18,0.21,0.4,0.39,0.4
				h1.25c0.24,0,0.4-0.21,0.4-0.4h4.99c0,0.18-0.01,0.37-0.03,0.55c0.02-0.12,0.03-0.25,0.03-0.37c0.01-0.06,0.01-0.12,0.01-0.18
				v-7.59c0-0.74,0.15-1.45,0.42-2.09c0.27-0.64,0.66-1.22,1.16-1.71c0.24-0.24,0.51-0.46,0.8-0.66c0.13-0.09,0.26-0.17,0.4-0.24
				c0.14-0.09,0.29-0.16,0.44-0.22c0.13-0.06,0.26-0.11,0.39-0.16c0.22-0.08,0.45-0.14,0.69-0.19c0.17-0.04,0.35-0.07,0.53-0.08
				c0.17-0.02,0.36-0.03,0.54-0.03h50.4V315.7C465.67,325.08,447.49,330.47,428.06,330.47z M413.84,364.13
				c-4.55-4.48-10.56-6.95-16.92-6.95c-13.2,0-23.95,10.74-23.95,23.95v18.5h-53c-7.1,0-12.87,5.77-12.87,12.86v0.38l0.04,0.38
				l1.9,18.68H143.22c-9.34,0-16.93-7.57-16.93-16.88V235.74c0-9.31,7.59-16.88,16.93-16.88h89.85
				c3.74,33.62,32.33,59.86,66.93,59.86c9.56,0,18.94-2.02,27.56-5.88c17.56,39.27,56.92,65.11,100.5,65.11
				c15.83,0,31.38-3.39,45.65-9.87v60.15H430.8c-2.77,0-5.34,0.88-7.44,2.38c-0.93,0.66-1.77,1.44-2.49,2.31v-11.79
				C420.87,374.77,418.4,368.76,413.84,364.13z"/>
		</g>
	</g>
	<g>
		<path class="st2" d="M481.19,235.74v79.96c-15.53,9.38-33.7,14.76-53.13,14.76c-44.56,0-82.52-28.4-96.65-68.11
			c17.1-10.54,28.45-29.44,28.45-50.97h96.92C470.24,211.38,481.19,222.28,481.19,235.74z"/>
	</g>
	<g>
		<path class="st3" d="M359.86,211.38c0,21.54-11.35,40.43-28.45,50.97c-9.15,5.65-19.92,8.88-31.41,8.88
			c-33.07,0-59.86-26.79-59.86-59.86s26.79-59.86,59.86-59.86c17.05,0,32.4,7.09,43.26,18.53
			C353.58,180.78,359.86,195.31,359.86,211.38z"/>
	</g>
	<g>
		<g>
			<path class="st1" d="M430.39,408.68v85.52h-4.98c0-2.94-2.4-5.38-5.39-5.38h-3.79c-2.99,0-5.38,2.44-5.38,5.38
				c0,2.94-2.45,5.39-5.39,5.39l-77.34-1c-2.95,0-5.39-2.39-5.39-5.39l-5.39-53.8l-2.74-26.93c0-0.73,0.15-1.43,0.41-2.07
				c0.01-0.01,0.01-0.01,0.01-0.01c0.18-0.44,0.42-0.85,0.71-1.22c0.13-0.17,0.28-0.33,0.43-0.48c0.12-0.12,0.25-0.24,0.38-0.35
				c0.93-0.79,2.14-1.26,3.45-1.26h55.1c1.23,0,2.38-0.42,3.3-1.13c0.17-0.13,0.33-0.27,0.48-0.43c0.12-0.12,0.24-0.25,0.35-0.38
				c0.76-0.93,1.23-2.12,1.23-3.42v-20.59c0-3.14,0.87-6.07,2.4-8.56c0.27-0.45,0.56-0.88,0.87-1.3c0.17-0.21,0.34-0.42,0.5-0.63
				c0.33-0.4,0.68-0.79,1.05-1.16c1.86-1.86,4.17-3.28,6.75-4.08c0.51-0.17,1.04-0.3,1.58-0.41c0.51-0.11,1.01-0.19,1.53-0.24
				c0.06-0.01,0.11-0.02,0.17-0.01c0.54-0.06,1.08-0.09,1.63-0.09c4.59,0,8.63,1.84,11.67,4.78c0.55,0.57,1.06,1.18,1.53,1.82
				c0.16,0.22,0.32,0.44,0.46,0.66c0.3,0.44,0.57,0.89,0.82,1.36c1.26,2.34,1.98,5,1.98,7.83v27.58c0,0.74,0.15,1.45,0.43,2.09
				c0.28,0.64,0.67,1.22,1.16,1.71c0.12,0.12,0.25,0.24,0.38,0.35c0.27,0.22,0.55,0.41,0.85,0.58c0.3,0.16,0.63,0.3,0.96,0.41
				c0.25,0.08,0.52,0.14,0.79,0.18c0.26,0.04,0.54,0.06,0.81,0.06h1.26c0.74,0,1.45-0.15,2.09-0.42c0.81-0.34,1.52-0.88,2.07-1.54
				c0.08-0.1,0.16-0.2,0.23-0.31c0.22-0.32,0.41-0.66,0.57-1.02c0,0,0,0,0-0.01c0.14-0.34,0.25-0.69,0.32-1.06
				c0.03-0.16,0.06-0.31,0.07-0.47c0.02-0.18,0.03-0.37,0.03-0.55H430.39z"/>
		</g>
		<g>
			<path class="st2" d="M315.02,410.39c0.19-0.44,0.43-0.85,0.71-1.22C315.44,409.54,315.2,409.95,315.02,410.39z M380.45,381.13
				v20.59c0,1.3-0.47,2.49-1.23,3.42c0.79-0.92,1.26-2.13,1.26-3.44v-20.6c0-3.12,0.86-6.04,2.37-8.53
				C381.32,375.06,380.45,377.99,380.45,381.13z M420.03,414.06h-1.26c-0.27,0-0.55-0.02-0.81-0.06c0.26,0.05,0.54,0.07,0.81,0.07
				h1.25c0.75,0,1.46-0.15,2.1-0.43C421.48,413.91,420.77,414.06,420.03,414.06z M418.38,408.68c0,0.18,0.21,0.4,0.39,0.4h1.25
				c0.24,0,0.4-0.21,0.4-0.4H418.38z M415.77,362.5l-0.24-0.24c-5.06-4.89-11.66-7.59-18.6-7.59c-14.57,0-26.43,11.86-26.43,26.43
				v16.01h-50.51c-8.47,0-15.36,6.89-15.36,15.36v0.51l0.05,0.5l1.88,18.45l0.76,7.48h5.01l-0.38-3.74l-2.34-22.94v-0.26
				c0-5.72,4.66-10.37,10.38-10.37h55.1c0.19,0,0.4-0.17,0.4-0.4v-20.59c0-11.83,9.62-21.45,21.44-21.45
				c5.63,0,11.01,2.2,15.14,6.19c4.11,4.24,6.31,9.62,6.31,15.26v23.29c0.32-0.13,0.66-0.22,1.02-0.27
				c0.87,0.11,1.65,0.46,2.28,0.98c1.03,0.83,1.68,2.11,1.68,3.57V381.1C423.36,374.17,420.67,367.56,415.77,362.5z M418.77,409.08
				h1.25c0.24,0,0.4-0.21,0.4-0.4h-2.04C418.38,408.86,418.59,409.08,418.77,409.08z M420.02,493.8h-3.79c-0.23,0-0.4,0.21-0.4,0.4
				h4.59C420.42,494.01,420.26,493.8,420.02,493.8z M425.41,408.68v85.52h9.97v-85.52H425.41z M418.77,414.06
				c-0.27,0-0.55-0.02-0.81-0.06c0.26,0.05,0.54,0.07,0.81,0.07h1.25c0.75,0,1.46-0.15,2.1-0.43c-0.64,0.27-1.35,0.42-2.09,0.42
				H418.77z M380.45,401.72c0,1.3-0.47,2.49-1.23,3.42c0.79-0.92,1.26-2.13,1.26-3.44v-20.6c0-3.12,0.86-6.04,2.37-8.53
				c-1.53,2.49-2.4,5.42-2.4,8.56V401.72z M315.73,409.17c-0.29,0.37-0.53,0.78-0.71,1.22
				C315.21,409.95,315.45,409.54,315.73,409.17z"/>
			<path class="st2" d="M421.68,408.68c0,0.89-0.76,1.64-1.65,1.64h-1.26c-0.89,0-1.64-0.75-1.64-1.64v-27.56
				c0-5.36-2.09-10.44-5.88-14.29c-3.88-3.83-8.95-5.91-14.33-5.91c-11.14,0-20.21,9.06-20.21,20.2v20.6c0,0.89-0.75,1.65-1.64,1.65
				h-55.1c-5.03,0-9.12,4.09-9.12,9.12l2.34,23.18h-1.24l-2.34-22.94v-0.26c0-5.72,4.66-10.37,10.38-10.37h55.1
				c0.19,0,0.4-0.17,0.4-0.4v-20.59c0-11.83,9.62-21.45,21.44-21.45c5.63,0,11.01,2.2,15.14,6.19c4.11,4.24,6.31,9.62,6.31,15.26
				v27.57c0,0.18,0.21,0.4,0.39,0.4h1.25c0.24,0,0.4-0.21,0.4-0.4H421.68z"/>
			<path class="st2" d="M425.41,408.68c0,0.18-0.01,0.37-0.03,0.55c-0.01,0.16-0.04,0.31-0.07,0.47c-0.07,0.37-0.18,0.72-0.32,1.06
				c0,0.01,0,0.01,0,0.01c-0.16,0.36-0.35,0.7-0.57,1.02c-0.07,0.11-0.15,0.21-0.23,0.31c-0.55,0.66-1.26,1.2-2.07,1.54
				c-0.64,0.27-1.35,0.42-2.09,0.42h-1.26c-0.27,0-0.55-0.02-0.81-0.06c-0.27-0.04-0.54-0.1-0.79-0.18
				c-0.33-0.11-0.66-0.25-0.96-0.41c-0.3-0.17-0.58-0.36-0.85-0.58c-0.13-0.11-0.26-0.23-0.38-0.35c-0.49-0.49-0.88-1.07-1.16-1.71
				c-0.28-0.64-0.43-1.35-0.43-2.09V381.1c0-2.83-0.72-5.49-1.98-7.83c-0.25-0.47-0.52-0.92-0.82-1.36
				c-0.14-0.22-0.3-0.44-0.46-0.66c-0.47-0.64-0.98-1.25-1.53-1.82c-3.04-2.94-7.08-4.78-11.67-4.78c-0.55,0-1.09,0.03-1.63,0.09
				c-0.06-0.01-0.11,0-0.17,0.01c-0.52,0.05-1.02,0.13-1.53,0.24c-0.54,0.11-1.07,0.24-1.58,0.41c-2.58,0.8-4.89,2.22-6.75,4.08
				c-0.37,0.37-0.72,0.76-1.05,1.16c-0.16,0.21-0.33,0.42-0.5,0.63c-0.31,0.42-0.6,0.85-0.87,1.3c-1.53,2.49-2.4,5.42-2.4,8.56
				v20.59c0,1.3-0.47,2.49-1.23,3.42c-0.11,0.13-0.23,0.26-0.35,0.38c-0.15,0.16-0.31,0.3-0.48,0.43c-0.92,0.71-2.07,1.13-3.3,1.13
				h-55.1c-1.31,0-2.52,0.47-3.45,1.26c-0.13,0.11-0.26,0.23-0.38,0.35c-0.15,0.15-0.3,0.31-0.43,0.48
				c-0.29,0.37-0.53,0.78-0.71,1.22c0,0,0,0-0.01,0.01c-0.28,0.64-0.43,1.35-0.43,2.09l2.74,26.92h-4.99l-0.38-3.74h1.24
				l-2.34-23.18c0-5.03,4.09-9.12,9.12-9.12h55.1c0.89,0,1.64-0.76,1.64-1.65v-20.6c0-11.14,9.07-20.2,20.21-20.2
				c5.38,0,10.45,2.08,14.33,5.91c3.79,3.85,5.88,8.93,5.88,14.29v27.56c0,0.89,0.75,1.64,1.64,1.64h1.26
				c0.89,0,1.65-0.75,1.65-1.64H425.41z"/>
			<path class="st2" d="M425.41,494.2h-4.99c0-0.19-0.16-0.4-0.4-0.4h-3.79c-0.23,0-0.4,0.21-0.4,0.4c0,0.53-0.04,1.06-0.12,1.57
				c0,0.01,0,0.01,0,0.01c-0.76,4.97-5.07,8.79-10.25,8.79l-77.41-0.99c-5.65,0-10.3-4.66-10.3-10.38l-5.37-53.31l-0.05-0.48h4.99
				l-2.74-26.92c0-0.74,0.15-1.45,0.43-2.09c-0.26,0.64-0.41,1.34-0.41,2.07l2.74,26.93l5.39,53.8c0,3,2.44,5.39,5.39,5.39l77.34,1
				c2.94,0,5.39-2.45,5.39-5.39c0-2.94,2.39-5.38,5.38-5.38h3.79C423.01,488.82,425.41,491.26,425.41,494.2z"/>
			<path class="st2" d="M420.82,494.2c0,0.12,0,0.23-0.01,0.35c-0.18,8.31-7,15.01-15.48,15.01l-77.21-1
				c-8.26,0-15.02-6.55-15.35-14.73l-5.35-53.42l-0.1-1h5.01l0.05,0.48l5.37,53.31c0,5.72,4.65,10.38,10.3,10.38l77.41,0.99
				c5.18,0,9.49-3.82,10.25-8.79c0,0,0,0,0-0.01c0.08-0.51,0.12-1.04,0.12-1.57H420.82z"/>
		</g>
	</g>
	<g>
		<polygon class="st2" points="267.48,461.7 271.39,473.73 284.04,473.73 273.8,481.17 277.71,493.2 267.48,485.77 257.24,493.2 
			261.15,481.17 250.92,473.73 263.57,473.73 		"/>
	</g>
	<g>
		<polygon class="st2" points="223.57,461.7 227.48,473.73 240.13,473.73 229.9,481.17 233.81,493.2 223.57,485.77 213.34,493.2 
			217.25,481.17 207.01,473.73 219.66,473.73 		"/>
	</g>
	<g>
		<polygon class="st2" points="179.67,461.7 183.57,473.73 196.23,473.73 185.99,481.17 189.9,493.2 179.67,485.77 169.43,493.2 
			173.34,481.17 163.11,473.73 175.76,473.73 		"/>
	</g>
	<g>
		<polygon class="st2" points="135.76,461.7 139.67,473.73 152.32,473.73 142.09,481.17 145.99,493.2 135.76,485.77 125.53,493.2 
			129.43,481.17 119.2,473.73 131.85,473.73 		"/>
	</g>
	<g>
		<polygon class="st2" points="91.85,461.7 95.76,473.73 108.41,473.73 98.18,481.17 102.09,493.2 91.85,485.77 81.62,493.2 
			85.53,481.17 75.29,473.73 87.95,473.73 		"/>
	</g>
	<g>
		<circle class="st4" cx="78.7" cy="364.67" r="13.15"/>
	</g>
	<g>
		<circle class="st2" cx="39" cy="271.23" r="20.64"/>
	</g>
	<g>
		<circle class="st4" cx="544.94" cy="488.83" r="18.79"/>
	</g>
	<g>
		<g>
			<g>
				<path class="st2" d="M300,243.65c-17.79,0-32.27-14.48-32.27-32.27s14.48-32.27,32.27-32.27c17.79,0,32.27,14.48,32.27,32.27
					S317.79,243.65,300,243.65z M300,183.22c-15.52,0-28.15,12.63-28.15,28.15s12.63,28.15,28.15,28.15
					c15.53,0,28.15-12.63,28.15-28.15S315.52,183.22,300,183.22z"/>
			</g>
		</g>
		<g>
			<g>
				<polygon class="st2" points="295.82,221.88 285,213.58 287.5,210.31 295.66,216.56 312.4,201.98 315.1,205.09 				"/>
			</g>
		</g>
	</g>
	<g>
		<path class="st4" d="M495.12,401.1v99.43c0,2.94-2.44,5.39-5.38,5.39h-58.94c-2.94,0-5.39-2.44-5.39-5.39V401.1
			c0-2.99,2.44-5.39,5.39-5.39h58.94C492.68,395.71,495.12,398.11,495.12,401.1z"/>
	</g>
	<g>
		<path class="st5" d="M232.51,280c0.51-1.33,0.69-2.75,0.55-4.25c-0.36-3.9-3.09-7.43-6.84-8.56c-4.86-1.46-9.44,0.67-11.67,4.42
			c-1.7-2.94-4.94-4.89-8.58-4.89c-5.49,0-9.92,4.44-9.92,9.97c0,1.15,0.2,2.24,0.55,3.29h-11.78c-2.75,0-4.98,2.23-4.98,4.98v43.31
			c0,2.75,2.23,4.98,4.98,4.98h60.66c2.75,0,4.98-2.23,4.98-4.98v-43.31c0-2.75-2.23-4.98-4.98-4.98H232.51z M223.13,269.53
			c3.99,0,7.18,3.24,7.18,7.18c0,1.2-0.3,2.34-0.8,3.29H216.8c-0.5-0.95-0.8-2.09-0.8-3.29C216,272.77,219.19,269.53,223.13,269.53z
			 M205.98,269.53c3.99,0,7.18,3.24,7.18,7.18c0,1.2-0.3,2.34-0.8,3.29h-12.72c-0.5-0.95-0.8-2.09-0.8-3.29
			C198.85,272.77,202.04,269.53,205.98,269.53z M244.03,326.43h-57.75V318h57.75V326.43z M244.03,306.03h-57.75v-20.4h57.75V306.03z
			"/>
	</g>
	<g>
		<path class="st5" d="M145.67,351.48h17.54v3.53h-13.33v10.82h12.32v3.48h-12.32v14.74h-4.2V351.48z"/>
		<path class="st5" d="M172.53,354.1c0.05,1.45-1.01,2.61-2.7,2.61c-1.5,0-2.56-1.16-2.56-2.61c0-1.5,1.11-2.66,2.66-2.66
			C171.51,351.44,172.53,352.6,172.53,354.1z M167.79,384.05v-23.38h4.25v23.38H167.79z"/>
		<path class="st5" d="M199.3,349.75v28.27c0,2.08,0.05,4.44,0.19,6.04h-3.82l-0.19-4.06h-0.1c-1.31,2.61-4.15,4.59-7.97,4.59
			c-5.65,0-10-4.78-10-11.88c-0.05-7.78,4.79-12.56,10.48-12.56c3.58,0,5.99,1.69,7.06,3.58h0.1v-13.96H199.3z M195.05,370.18
			c0-0.53-0.05-1.26-0.19-1.79c-0.63-2.71-2.95-4.93-6.14-4.93c-4.4,0-7.01,3.86-7.01,9.03c0,4.74,2.32,8.65,6.91,8.65
			c2.85,0,5.46-1.88,6.23-5.07c0.15-0.58,0.19-1.16,0.19-1.84V370.18z"/>
		<path class="st5" d="M208.72,373.13c0.1,5.75,3.77,8.12,8.02,8.12c3.04,0,4.88-0.53,6.48-1.21l0.73,3.04
			c-1.5,0.68-4.06,1.45-7.78,1.45c-7.2,0-11.5-4.73-11.5-11.79c0-7.06,4.15-12.61,10.97-12.61c7.64,0,9.66,6.72,9.66,11.02
			c0,0.87-0.09,1.55-0.14,1.98H208.72z M221.18,370.09c0.05-2.71-1.11-6.91-5.89-6.91c-4.3,0-6.18,3.96-6.53,6.91H221.18z"/>
		<path class="st5" d="M230.56,349.75h4.25v34.31h-4.25V349.75z"/>
		<path class="st5" d="M246.69,354.1c0.05,1.45-1.01,2.61-2.71,2.61c-1.5,0-2.56-1.16-2.56-2.61c0-1.5,1.12-2.66,2.66-2.66
			C245.68,351.44,246.69,352.6,246.69,354.1z M241.96,384.05v-23.38h4.25v23.38H241.96z"/>
		<path class="st5" d="M258.38,353.95v6.72h6.09v3.24h-6.09v12.61c0,2.9,0.82,4.54,3.19,4.54c1.11,0,1.93-0.15,2.46-0.29l0.19,3.19
			c-0.82,0.34-2.12,0.58-3.77,0.58c-1.98,0-3.57-0.63-4.59-1.79c-1.21-1.26-1.65-3.33-1.65-6.09V363.9h-3.62v-3.24h3.62v-5.61
			L258.38,353.95z"/>
		<path class="st5" d="M271.33,373.13c0.1,5.75,3.77,8.12,8.02,8.12c3.04,0,4.88-0.53,6.47-1.21l0.73,3.04
			c-1.5,0.68-4.06,1.45-7.78,1.45c-7.2,0-11.5-4.73-11.5-11.79c0-7.06,4.16-12.61,10.97-12.61c7.63,0,9.66,6.72,9.66,11.02
			c0,0.87-0.1,1.55-0.15,1.98H271.33z M283.8,370.09c0.04-2.71-1.12-6.91-5.9-6.91c-4.3,0-6.18,3.96-6.52,6.91H283.8z"/>
	</g>
	<g>
		<path class="st5" d="M134.75,100.87v11.35h10.92v2.9h-10.92v11.45h-3.09v-11.45h-10.92v-2.9h10.92v-11.35H134.75z"/>
	</g>
	<g>
		<path class="st5" d="M315.99,531.72v11.35h10.92v2.9h-10.92v11.45h-3.09v-11.45h-10.92v-2.9h10.92v-11.35H315.99z"/>
	</g>
	<g>
		<circle class="st5" cx="453.58" cy="149.69" r="4.11"/>
	</g>
	<g>
		<circle class="st5" cx="465.41" cy="139.97" r="4.11"/>
	</g>
	<g>
		<circle class="st5" cx="477.24" cy="130.25" r="4.11"/>
	</g>
	<g>
		<circle class="st5" cx="460.95" cy="158.66" r="4.11"/>
	</g>
	<g>
		<circle class="st5" cx="472.78" cy="148.94" r="4.11"/>
	</g>
	<g>
		<circle class="st5" cx="484.61" cy="139.22" r="4.11"/>
	</g>
	<g>
		<circle class="st5" cx="468.33" cy="167.64" r="4.11"/>
	</g>
	<g>
		<circle class="st5" cx="480.16" cy="157.92" r="4.11"/>
	</g>
	<g>
		<circle class="st5" cx="491.99" cy="148.19" r="4.11"/>
	</g>
	<g>
		<circle class="st5" cx="475.7" cy="176.61" r="4.11"/>
	</g>
	<g>
		<circle class="st5" cx="487.53" cy="166.89" r="4.11"/>
	</g>
	<g>
		<circle class="st5" cx="499.36" cy="157.17" r="4.11"/>
	</g>
</g>
<g>
	<path class="st2" d="M284,92.51c-12.97,0-23.51-10.55-23.51-23.51S271.03,45.49,284,45.49S307.51,56.03,307.51,69
		S296.97,92.51,284,92.51z M284,51.51c-9.64,0-17.49,7.84-17.49,17.49s7.84,17.49,17.49,17.49s17.49-7.84,17.49-17.49
		S293.64,51.51,284,51.51z"/>
</g>
<g>
	<path class="st4" d="M545.5,341.5c-9.37,0-17-7.63-17-17s7.63-17,17-17s17,7.63,17,17S554.87,341.5,545.5,341.5z M545.5,312.5
		c-6.62,0-12,5.38-12,12s5.38,12,12,12s12-5.38,12-12S552.12,312.5,545.5,312.5z"/>
</g>
</svg>
