<?xml version="1.0" encoding="utf-8"?>
<!-- Generator: Adobe Illustrator 23.0.1, SVG Export Plug-In . SVG Version: 6.00 Build 0)  -->
<svg version="1.1" id="Layer_1" xmlns="http://www.w3.org/2000/svg" xmlns:xlink="http://www.w3.org/1999/xlink" x="0px" y="0px"
	 viewBox="0 0 120 120" style="enable-background:new 0 0 120 120;" xml:space="preserve">
<style type="text/css">
	.st0{fill:url(#SVGID_1_);}
	.st1{fill:url(#SVGID_2_);}
	.st2{fill:#1781E2;}
</style>
<g>
	<linearGradient id="SVGID_1_" gradientUnits="userSpaceOnUse" x1="14.1622" y1="119.2158" x2="-0.0758" y2="94.5548">
		<stop  offset="0" style="stop-color:#1781E2"/>
		<stop  offset="0.3145" style="stop-color:#1778E2"/>
		<stop  offset="0.8346" style="stop-color:#175EE2"/>
		<stop  offset="1" style="stop-color:#1755E2"/>
	</linearGradient>
	<path class="st0" d="M28.98,119.78H0V91.01C6.44,103.34,16.6,113.43,28.98,119.78z"/>
	<linearGradient id="SVGID_2_" gradientUnits="userSpaceOnUse" x1="99.1132" y1="106.238" x2="50.2378" y2="21.5833">
		<stop  offset="0" style="stop-color:#1781E2"/>
		<stop  offset="0.3145" style="stop-color:#1778E2"/>
		<stop  offset="0.8346" style="stop-color:#175EE2"/>
		<stop  offset="1" style="stop-color:#1755E2"/>
	</linearGradient>
	<path class="st1" d="M5.2,84.61c0.8,1.77,1.7,3.5,2.67,5.19c6.26,10.81,15.8,19.48,27.26,24.65c7.49,3.39,15.82,5.27,24.58,5.27
		c22.15,0,41.5-12.03,51.85-29.92c5.09-8.81,8.01-19.02,8.01-29.93V0.08C65.72,0.08,20.19,35.67,5.2,84.61z M63.05,37.96l2.21-3.8
		l2.22-3.8l0.01,0.01l0.89,5.95l0.88,5.95l0.88,5.93l-0.01,0.01l-9.29-6.47L63.05,37.96z M79.03,75.78l-3.7,2.77l-0.65,0.48
		l-1.41,1.06l-1.63,1.23l-3.7,2.78l-3.7,2.77l-3.7,2.77L36.87,73.15l0.17-0.13l3.52-2.64l3.69-2.78l3.7-2.77l3.7-2.77l3.69-2.77
		L59,56.55l0.03-0.02l-0.08-0.04l-3.42-5.64l-2.18-3.59l-5.59-9.23l10.85,7.54l7.8,5.44l4.59,3.19l6.41,4.45l-2.16,3.84l-2.16,3.84
		l-0.24,0.43l-1.91,3.41l-1.61,2.87h13.36L79.03,75.78z"/>
	<path class="st2" d="M119.57,0.08C65.72,0.08,20.19,35.66,5.2,84.6C2.31,78.25,0.5,71.28,0,63.96v-8.2
		c0.62-9.35,3.41-18.13,7.87-25.82C18.21,12.05,37.56,0.01,59.71,0.01L119.57,0.08z"/>
	<path class="st2" d="M0,91.01l0,28.98h0.11c0-8.35,0.85-16.51,2.49-24.37C1.68,94.12,0.81,92.59,0,91.01z"/>
</g>
</svg>
