<svg id="Layer_1" data-name="Layer 1" xmlns="http://www.w3.org/2000/svg" viewBox="0 0 93.4 72.3"><defs><style>.cls-1{fill:#f3f3f3;}.cls-2{fill:#fff;}.cls-3{fill:#dcecf7;}</style></defs><title>infopharm</title><path class="cls-1" d="M103.6,94V82h2.6V94Z" transform="translate(-103.6 -21.9)"/><path class="cls-1" d="M116.8,87.6V94h-2.5V88.4c0-.8-.3-1-.9-1a4.5,4.5,0,0,0-2.4.8V94h-2.5V85.5h2.1v1.2a6.5,6.5,0,0,1,3.7-1.5A2.2,2.2,0,0,1,116.8,87.6Z" transform="translate(-103.6 -21.9)"/><path class="cls-1" d="M123.4,83.4c-.9,0-1.2.3-1.2,1.1v1h2.4v1.7h-2.4V94h-2.6V87.2h-1.5V85.5h1.5V84.2a2.5,2.5,0,0,1,2.8-2.7l2.8.2-.2,1.7Z" transform="translate(-103.6 -21.9)"/><path class="cls-1" d="M134.2,89.7c0,3.3-1.2,4.5-4.4,4.5s-4.4-1.2-4.4-4.5,1.2-4.5,4.4-4.5S134.2,86.5,134.2,89.7Zm-6.1,0c0,2.1.4,2.6,1.7,2.6s1.7-.5,1.7-2.6-.4-2.6-1.7-2.6S128.1,87.7,128.1,89.7Z" transform="translate(-103.6 -21.9)"/><path class="cls-1" d="M145,85.8c0,3.1-1,3.9-4,3.9h-2.2V94h-2.7V82h4.6C144,81.9,145,82.7,145,85.8Zm-4.4,1.9c1.4,0,1.8-.4,1.8-1.9s-.4-1.9-1.8-1.9h-1.8v3.8Z" transform="translate(-103.6 -21.9)"/><path class="cls-1" d="M154.9,87.6V94h-2.5V88.4c0-.8-.2-1-.8-1a4.5,4.5,0,0,0-2.4.8V94h-2.6V81.9h2.6v2.9a9,9,0,0,1-.2,1.8,6,6,0,0,1,3.5-1.4A2.2,2.2,0,0,1,154.9,87.6Z" transform="translate(-103.6 -21.9)"/><path class="cls-1" d="M164.8,88.4V94h-2l-.3-1.3a4,4,0,0,1-3.1,1.5c-1.6,0-2.8-.8-2.8-2.4v-.9c0-1.4,1-2.2,2.6-2.2h3v-.4c0-.8-.3-1.1-1.4-1.1l-3.6.2-.2-1.8a32.7,32.7,0,0,1,4.4-.4C163.6,85.2,164.8,85.9,164.8,88.4Zm-5.7,3c0,.6.3.9,1,.9a4,4,0,0,0,2.1-.8V90.3h-2.3c-.6,0-.8.3-.8.8Z" transform="translate(-103.6 -21.9)"/><path class="cls-1" d="M172.7,87.6H172a8.4,8.4,0,0,0-2.6.6V94h-2.6V85.5h2l.3,1.2a5.7,5.7,0,0,1,3.4-1.5h.5Z" transform="translate(-103.6 -21.9)"/><path class="cls-1" d="M187.4,87.6V94h-2.6V88.4c0-.7-.2-1-.9-1s-.9.2-1.9.8V94h-2.4V88.4c0-.8-.3-1-1-1a3.8,3.8,0,0,0-1.8.7V94h-2.6V85.5h2.1v1.2a4.8,4.8,0,0,1,3.3-1.5,2.1,2.1,0,0,1,2.2,1.4,4.6,4.6,0,0,1,3.1-1.4A2.2,2.2,0,0,1,187.4,87.6Z" transform="translate(-103.6 -21.9)"/><path class="cls-2" d="M194,86.4v2.9h-1.9V86.4h-3V84.5h3V81.6H194v2.9h3v1.9Z" transform="translate(-103.6 -21.9)"/><path class="cls-1" d="M140.3,21.9l-.3,1.4a10.4,10.4,0,0,0,10.1,13.1H161a4.2,4.2,0,0,1,4,5.3l-2.1,8.2v.2l-3.9,15.3h7a10.2,10.2,0,0,0,9.9-7.6l1.8-6.9,3.8-14.5.4-1.3a10.6,10.6,0,0,0-10.2-13.2Zm7.3,29,2.4-9.2a2,2,0,0,0-2-2.6H137.4a2.1,2.1,0,0,0-2,1.5l-2.7,10.3h-12l-1.8,6.6a6.3,6.3,0,0,0,6.1,7.9h3.9l-2.5,9.3a2.1,2.1,0,0,0,2.1,2.6H139a2,2,0,0,0,2-1.6l2.8-10.3h12.3l1.7-6.6a6.2,6.2,0,0,0-6.1-7.9Z" transform="translate(-103.6 -21.9)"/><path class="cls-1" d="M147.6,50.9l2.4-9.2a2,2,0,0,0-2-2.6H137.4a2.1,2.1,0,0,0-2,1.5l-2.7,10.3h-12l-1.8,6.6a6.3,6.3,0,0,0,6.1,7.9h3.9l-2.5,9.3a2.1,2.1,0,0,0,2.1,2.6H139a2,2,0,0,0,2-1.6l2.8-10.3h12.3l1.7-6.6a6.2,6.2,0,0,0-6.1-7.9Z" transform="translate(-103.6 -21.9)"/><path class="cls-3" d="M149.4,21.9h-9.1l-.3,1.4c0,.1-.1.2-.1.3a10.4,10.4,0,0,0,10.2,12.8H161a4.2,4.2,0,0,1,4,5.3l-2.1,8.2v.2l-3.9,15.3h7a10.2,10.2,0,0,0,9.4-6.2,5.8,5.8,0,0,0,.5-1.4h0l.6-2.1a29.1,29.1,0,0,0,.6-6A27.7,27.7,0,0,0,149.4,21.9Z" transform="translate(-103.6 -21.9)"/><path class="cls-3" d="M157.8,58.8l-1.7,6.6H125a6.3,6.3,0,0,1-6.1-7.9l1.8-6.6h31A6.2,6.2,0,0,1,157.8,58.8Z" transform="translate(-103.6 -21.9)"/><path class="cls-1" d="M150,41.7a2,2,0,0,0-2-2.6H137.4a2.1,2.1,0,0,0-2,1.5l-9,34.1a2.1,2.1,0,0,0,2.1,2.6H139a2,2,0,0,0,2-1.6Z" transform="translate(-103.6 -21.9)"/></svg>