<?xml version="1.0" encoding="utf-8"?>
<!-- Generator: Adobe Illustrator 23.0.1, SVG Export Plug-In . SVG Version: 6.00 Build 0)  -->
<svg version="1.1" id="Layer_1" xmlns="http://www.w3.org/2000/svg" xmlns:xlink="http://www.w3.org/1999/xlink" x="0px" y="0px"
	 viewBox="0 0 25 25" style="enable-background:new 0 0 25 25;" xml:space="preserve">
<style type="text/css">
	.st0{fill:#DDEDF8;}
</style>
<g>
	<g>
		<path class="st0" d="M12.5,25C5.61,25,0,19.39,0,12.5C0,5.61,5.61,0,12.5,0C19.39,0,25,5.61,25,12.5C25,19.39,19.39,25,12.5,25z
			 M12.5,1.34C6.35,1.34,1.34,6.35,1.34,12.5c0,6.15,5.01,11.16,11.16,11.16c6.15,0,11.16-5.01,11.16-11.16
			C23.66,6.35,18.65,1.34,12.5,1.34z"/>
	</g>
	<g>
		<path class="st0" d="M16.82,7.32c-0.53,0-0.96,0.43-0.96,0.96c0,0.53,0.43,0.96,0.96,0.96c0.53,0,0.96-0.43,0.96-0.96
			C17.78,7.75,17.35,7.32,16.82,7.32z M12.53,8.55c-2.23,0-4.05,1.82-4.05,4.05s1.82,4.05,4.05,4.05s4.05-1.82,4.05-4.05
			S14.76,8.55,12.53,8.55z M12.53,15.2c-1.43,0-2.6-1.16-2.6-2.6c0-1.43,1.16-2.6,2.6-2.6c1.43,0,2.6,1.16,2.6,2.6
			C15.12,14.04,13.96,15.2,12.53,15.2z M20.7,9.24c0-2.73-2.21-4.94-4.94-4.94H9.24C6.51,4.3,4.3,6.51,4.3,9.24v6.52
			c0,2.73,2.21,4.94,4.94,4.94h6.52c2.73,0,4.94-2.21,4.94-4.94V9.24z M19.16,15.76c0,1.87-1.52,3.39-3.39,3.39H9.24
			c-1.87,0-3.39-1.52-3.39-3.39V9.24c0-1.87,1.52-3.39,3.39-3.39h6.52c1.87,0,3.39,1.52,3.39,3.39V15.76z"/>
	</g>
</g>
</svg>
