<svg id="Layer_1" data-name="Layer 1" xmlns="http://www.w3.org/2000/svg" viewBox="0 0 693.6 245.6"><defs><style>.cls-1{fill:#fff;}</style></defs><title>LOGO APP</title><path class="cls-1" d="M226.4,137.1V58.2h6.3v78.9Z"/><path class="cls-1" d="M368.8,137.1H336a49.2,49.2,0,0,1-22.9-5.4,42.8,42.8,0,0,1-16.6-14.4,36.1,36.1,0,0,1,0-40.1,43.8,43.8,0,0,1,16.6-14.5,51.2,51.2,0,0,1,41.1-2,45.7,45.7,0,0,1,15.1,9.4l-4.6,3.8a39.4,39.4,0,0,0-13.1-8.1A43.9,43.9,0,0,0,336,63a42.3,42.3,0,0,0-19.7,4.6A37.2,37.2,0,0,0,302,80a30.4,30.4,0,0,0,0,34.4A37.8,37.8,0,0,0,316.3,127a42.3,42.3,0,0,0,19.7,4.6h26.2V103.4H332.4V97.9h36.4Z"/><path class="cls-1" d="M436.8,73v64.1h-6.2V57.3l62.7,65.2V58.2h6.3v80.2Z"/><path class="cls-1" d="M562.9,137.1V58.2h6.3v78.9Z"/><path class="cls-1" d="M690.1,106.6a15.5,15.5,0,0,1,1,18.3,23.5,23.5,0,0,1-7.3,7.1,42.1,42.1,0,0,1-22.7,6.1,50.6,50.6,0,0,1-12.3-1.6,38.6,38.6,0,0,1-10.4-4.5c-5.3-3.4-8.5-7.6-9.6-12.5l6-2.9c.2,4.4,2.7,8.1,7.5,10.9a26.8,26.8,0,0,0,8.5,3.7,39.8,39.8,0,0,0,10.3,1.3c7.5,0,13.7-1.7,18.8-5s7.4-6.9,7.4-11.2a10.6,10.6,0,0,0-2.7-7,22.1,22.1,0,0,0-7.6-5.6c-3.1-1.3-8.5-2.4-16.4-3.2l-7.1-1a45.4,45.4,0,0,1-10.4-2.7,27.2,27.2,0,0,1-10.7-7.7,16,16,0,0,1-3.9-10.4,14.9,14.9,0,0,1,2.6-8.4,24.4,24.4,0,0,1,7.3-7,35.4,35.4,0,0,1,10.4-4.4,46.1,46.1,0,0,1,12.3-1.6c8.7,0,16.2,2,22.7,6s8.6,7.7,9.5,12.4l-6,2.9a10.9,10.9,0,0,0-2-5.8,16.5,16.5,0,0,0-5.4-5.1,34.4,34.4,0,0,0-8.6-3.7,41.4,41.4,0,0,0-20.4,0,31.1,31.1,0,0,0-8.6,3.7,18.5,18.5,0,0,0-5.6,5.2,10.1,10.1,0,0,0-1.9,5.8,11.1,11.1,0,0,0,3.2,7.5,20.8,20.8,0,0,0,7.9,5.8,29.7,29.7,0,0,0,6.5,1.7l9.1,1.2,4.9.6c2.6.3,5.1.8,7.5,1.3a34.8,34.8,0,0,1,6.2,2.1A28,28,0,0,1,690.1,106.6Z"/><polygon class="cls-1" points="137.9 74 137.8 74 99.3 47.2 108.5 31.5 117.7 15.7 126.9 0 126.9 0.1 130.6 24.7 134.2 49.4 137.9 74"/><polygon class="cls-1" points="190 176.8 174.8 188.2 159.4 199.7 156.8 201.7 150.9 206.1 144.1 211.2 128.8 222.7 113.5 234.1 98.2 245.6 0 177.3 0.7 176.8 15.3 165.8 30.6 154.4 45.9 142.9 61.3 131.4 76.6 119.9 91.8 108.5 91.9 108.4 91.6 108.2 77.4 84.8 68.4 70 45.1 31.7 90.1 63 122.5 85.5 141.5 98.7 168.1 117.2 159.1 133.1 150.2 149 149.2 150.8 141.3 164.9 134.6 176.8 190 176.8"/><rect class="cls-1" x="226.4" y="149.8" width="467.2" height="3.79"/><path class="cls-1" d="M232.4,194V164.9h2V194Z"/><path class="cls-1" d="M234.4,194.7h-2c-.4,0-.6-.3-.6-.7V164.9a.5.5,0,0,1,.6-.6h2a.5.5,0,0,1,.6.6V194C235,194.4,234.8,194.7,234.4,194.7Zm-1.4-1.4h.8V165.6H233Z"/><path class="cls-1" d="M283.6,164.9V167H272.1v27h-2V167H258.5v-2.1Z"/><path class="cls-1" d="M272.1,194.7h-2c-.4,0-.6-.3-.6-.7V167.7h-11c-.4,0-.6-.3-.6-.7v-2.1a.5.5,0,0,1,.6-.6h25.1c.4,0,.7.2.7.6V167a.7.7,0,0,1-.7.7H272.8V194A.7.7,0,0,1,272.1,194.7Zm-1.3-1.4h.7V167c0-.4.2-.7.6-.7H283v-.7H259.1v.7h11a.7.7,0,0,1,.7.7Z"/><path class="cls-1" d="M357.5,182.8a6.4,6.4,0,0,1,1.1,3.6,5.5,5.5,0,0,1-.8,3.1,7.5,7.5,0,0,1-2.3,2.7,12.8,12.8,0,0,1-7.3,2.2,13.2,13.2,0,0,1-3.9-.6,10.6,10.6,0,0,1-3.4-1.6,7.6,7.6,0,0,1-3.1-4.7l2-1a4.9,4.9,0,0,0,2.4,4,8.7,8.7,0,0,0,2.7,1.4,12.4,12.4,0,0,0,3.3.4,10.2,10.2,0,0,0,6.1-1.8,5.1,5.1,0,0,0,2.3-4.1,5,5,0,0,0-.8-2.6,7.2,7.2,0,0,0-2.5-2.1,16.3,16.3,0,0,0-5.3-1.2l-2.2-.3a13.3,13.3,0,0,1-3.4-1,9.6,9.6,0,0,1-3.4-2.9,6.5,6.5,0,0,1-1.3-3.8,5.6,5.6,0,0,1,.9-3.1,9.6,9.6,0,0,1,2.3-2.6,10.6,10.6,0,0,1,3.4-1.6,13.2,13.2,0,0,1,3.9-.6,11.9,11.9,0,0,1,7.3,2.2,7.4,7.4,0,0,1,3.1,4.6l-2,1.1a4.3,4.3,0,0,0-.6-2.2,7.7,7.7,0,0,0-1.7-1.9,10.2,10.2,0,0,0-2.8-1.3,11.1,11.1,0,0,0-6.6,0,8.4,8.4,0,0,0-2.7,1.3,6.6,6.6,0,0,0-1.8,1.9,4.4,4.4,0,0,0,.4,5,7.2,7.2,0,0,0,2.5,2.1l2.1.6,3,.5,1.5.2,2.4.5a6.8,6.8,0,0,1,2,.7A8.9,8.9,0,0,1,357.5,182.8Z"/><path class="cls-1" d="M348.3,195.1h-.2a13.4,13.4,0,0,1-4-.7,9.9,9.9,0,0,1-3.6-1.7,8.1,8.1,0,0,1-3.3-5.1c-.1-.3,0-.5.3-.7l2-1h.6a.9.9,0,0,1,.3.6,4.3,4.3,0,0,0,2.1,3.4,11,11,0,0,0,2.6,1.4,15.5,15.5,0,0,0,3.1.4,10.3,10.3,0,0,0,5.7-1.7,4.9,4.9,0,0,0,2.1-3.6,5.2,5.2,0,0,0-.7-2.2,6,6,0,0,0-2.3-1.9,21.5,21.5,0,0,0-5-1.2l-2.3-.3a16.1,16.1,0,0,1-3.6-1,9.8,9.8,0,0,1-3.6-3.1,6.5,6.5,0,0,1-.5-7.6,8.4,8.4,0,0,1,2.5-2.8,9.9,9.9,0,0,1,3.6-1.7,18.5,18.5,0,0,1,4.1-.7,13.5,13.5,0,0,1,7.7,2.4,7.6,7.6,0,0,1,3.3,5,.6.6,0,0,1-.3.7l-2,1.1h-.6c-.2-.2-.4-.4-.4-.6a2.6,2.6,0,0,0-.5-1.9,8,8,0,0,0-1.5-1.7,10.3,10.3,0,0,0-2.6-1.2,10.6,10.6,0,0,0-3.1-.4,11,11,0,0,0-3.1.4,9.6,9.6,0,0,0-2.5,1.2,6.4,6.4,0,0,0-1.6,1.7,3.8,3.8,0,0,0,.3,4.3,6.5,6.5,0,0,0,4.2,2.5l4.5.7,2.4.5a8.1,8.1,0,0,1,2.2.7,11.3,11.3,0,0,1,3.4,3.1,5.9,5.9,0,0,1,1.2,4,5.7,5.7,0,0,1-.8,3.4,8.8,8.8,0,0,1-2.5,2.9A13.2,13.2,0,0,1,348.3,195.1Zm-.1-1.3h.1a12.4,12.4,0,0,0,6.8-2.1,7.2,7.2,0,0,0,2.1-2.5,5.7,5.7,0,0,0,.8-2.8,5.8,5.8,0,0,0-1-3.2h0a8.6,8.6,0,0,0-3-2.7l-1.8-.7-2.4-.5-1.5-.2-3-.5a9.8,9.8,0,0,1-2.3-.6,8.7,8.7,0,0,1-2.7-2.3,5.2,5.2,0,0,1-.5-5.7,6.7,6.7,0,0,1,2-2.1,8.6,8.6,0,0,1,2.9-1.4,10.6,10.6,0,0,1,3.5-.5,10.2,10.2,0,0,1,3.5.5,9.1,9.1,0,0,1,3,1.4,9.5,9.5,0,0,1,1.9,2.1,5.3,5.3,0,0,1,.5,1.5l.7-.4a6.9,6.9,0,0,0-2.7-3.8,12,12,0,0,0-6.9-2.1,15.1,15.1,0,0,0-3.7.6,15.7,15.7,0,0,0-3.2,1.5,7.9,7.9,0,0,0-2.1,2.4,5.8,5.8,0,0,0-.9,2.8,7,7,0,0,0,1.2,3.4,7.6,7.6,0,0,0,3.2,2.7,17,17,0,0,0,3.2,1l2.2.3a16.9,16.9,0,0,1,5.4,1.2,8.1,8.1,0,0,1,2.8,2.3,5.3,5.3,0,0,1,.9,3,5.6,5.6,0,0,1-2.5,4.6,10.1,10.1,0,0,1-6.5,1.9,10.5,10.5,0,0,1-3.5-.4,15.9,15.9,0,0,1-2.9-1.5,5.1,5.1,0,0,1-2.5-3.5l-.7.3a7.1,7.1,0,0,0,2.7,3.9,15.7,15.7,0,0,0,3.2,1.5A11.5,11.5,0,0,0,348.2,193.8Z"/><path class="cls-1" d="M396.2,194.3a14.8,14.8,0,0,1-7.4-1.9,15,15,0,0,1-5.4-5.5,14.6,14.6,0,0,1-1.9-7.4,15.2,15.2,0,0,1,1.9-7.5,15.5,15.5,0,0,1,5.4-5.4,14.7,14.7,0,0,1,7.4-2,14.9,14.9,0,0,1,7.4,2,16.1,16.1,0,0,1,5.3,5.4,15.3,15.3,0,0,1,2,7.5,14.7,14.7,0,0,1-2,7.4,16.4,16.4,0,0,1-5.3,5.5A14.8,14.8,0,0,1,396.2,194.3Zm0-27.6a12.3,12.3,0,0,0-11,6.4,12.7,12.7,0,0,0,0,12.8,12.3,12.3,0,0,0,11,6.4,12.7,12.7,0,0,0,6.3-1.7,12.2,12.2,0,0,0,4.6-4.7,12.7,12.7,0,0,0,0-12.8,12.2,12.2,0,0,0-4.6-4.7A12.7,12.7,0,0,0,396.2,166.7Z"/><path class="cls-1" d="M396,195a15.3,15.3,0,0,1-7.5-2,15.9,15.9,0,0,1-5.7-5.8,14.7,14.7,0,0,1-1.9-7.7,15.3,15.3,0,0,1,1.9-7.8,17.3,17.3,0,0,1,5.7-5.7,15.3,15.3,0,0,1,21,5.7,16.6,16.6,0,0,1,2.1,7.8,15.9,15.9,0,0,1-2.1,7.7,17.3,17.3,0,0,1-5.6,5.8,15.8,15.8,0,0,1-7.7,2Zm.2-29.7a14.1,14.1,0,0,0-12.2,7,13.1,13.1,0,0,0-1.8,7.2,12.8,12.8,0,0,0,1.8,7.1,14.1,14.1,0,0,0,5.1,5.2,13,13,0,0,0,7.1,1.8h.1a14.1,14.1,0,0,0,7-1.9,14.6,14.6,0,0,0,5-5.2,13.9,13.9,0,0,0,2-7.1,14.2,14.2,0,0,0-2-7.2,14.4,14.4,0,0,0-5-5.1A13.8,13.8,0,0,0,396.2,165.3ZM396,193a13.1,13.1,0,0,1-11.4-6.8,13.9,13.9,0,0,1,0-13.4,13.4,13.4,0,0,1,11.6-6.8h0a13.9,13.9,0,0,1,6.6,1.8,13.1,13.1,0,0,1,4.9,5,13.9,13.9,0,0,1,0,13.4,13.1,13.1,0,0,1-4.9,5,13.9,13.9,0,0,1-6.6,1.8Zm0-25.7a11.7,11.7,0,0,0-10.2,6.1,12.1,12.1,0,0,0,0,12.2,11.6,11.6,0,0,0,10.4,6h0a11.5,11.5,0,0,0,6-1.6,11.4,11.4,0,0,0,4.3-4.4,12.1,12.1,0,0,0,0-12.2,11.4,11.4,0,0,0-4.3-4.4,11.5,11.5,0,0,0-6-1.6H396Z"/><path class="cls-1" d="M434.7,194V164.9h18.8V167H436.7v11.5h13.2v2.1H436.7V194Z"/><path class="cls-1" d="M436.7,194.7h-2a.7.7,0,0,1-.7-.7V164.9c0-.4.3-.6.7-.6h18.8c.4,0,.7.2.7.6V167a.7.7,0,0,1-.7.7H437.4v10.1h12.5a.7.7,0,0,1,.7.7v2.1a.7.7,0,0,1-.7.7H437.4V194A.7.7,0,0,1,436.7,194.7Zm-1.3-1.4h.6V180.6a.7.7,0,0,1,.7-.7h12.6v-.7H436.7a.7.7,0,0,1-.7-.7V167a.7.7,0,0,1,.7-.7h16.1v-.7H435.4Z"/><path class="cls-1" d="M502,164.9V167H490.5v27h-2.1V167H476.9v-2.1Z"/><path class="cls-1" d="M490.5,194.7h-2.1c-.4,0-.6-.3-.6-.7V167.7H476.9c-.4,0-.6-.3-.6-.7v-2.1a.5.5,0,0,1,.6-.6H502c.4,0,.7.2.7.6V167a.7.7,0,0,1-.7.7H491.2V194A.7.7,0,0,1,490.5,194.7Zm-1.4-1.4h.7V167a.7.7,0,0,1,.7-.7h10.8v-.7H477.6v.7h10.8a.7.7,0,0,1,.7.7Z"/><path class="cls-1" d="M549.7,188.3l7.2-23.4H559l-9.2,29.6-8.2-21.6-8.4,21.6L524,164.9h2.1l7.3,23.4,8.2-21.1Z"/><path class="cls-1" d="M549.8,195.2a.6.6,0,0,1-.6-.5l-7.6-20-7.8,20c-.1.3-.3.5-.6.4a.5.5,0,0,1-.6-.4l-9.2-29.6a.7.7,0,0,1,.1-.6c.1-.2.3-.2.5-.2h2.1a.5.5,0,0,1,.6.4l6.8,21.6L541,167a.6.6,0,0,1,.6-.5h0c.3.1.5.2.6.5l7.4,19.3,6.7-21.6a.5.5,0,0,1,.6-.4H559c.2,0,.4,0,.5.2a.7.7,0,0,1,.1.6l-9.2,29.6a.5.5,0,0,1-.6.4Zm-24.9-29.6,8.4,26.9,7.7-19.8a.5.5,0,0,1,.6-.4h0a.5.5,0,0,1,.6.4l7.5,19.8,8.4-26.9h-.7l-7.1,22.9a.5.5,0,0,1-.6.4c-.3.1-.5-.1-.6-.4L541.6,169,534,188.5a.6.6,0,0,1-.6.5h0a.5.5,0,0,1-.6-.4l-7.2-22.9Z"/><path class="cls-1" d="M582,186.6l-3.4,7.4h-2.3L590,164.6,602.9,194h-2.2l-3.2-7.4Zm7.9-17-7,15h13.7Z"/><path class="cls-1" d="M602.9,194.7h-2.2a.7.7,0,0,1-.6-.4l-3-7H582.4l-3.2,7a.7.7,0,0,1-.6.4h-2.3a.7.7,0,0,1-.5-.4c-.2-.1-.2-.4-.1-.6l13.7-29.4a.7.7,0,0,1,.6-.4h0a.9.9,0,0,1,.6.4l12.9,29.4a.6.6,0,0,1-.1.7A.9.9,0,0,1,602.9,194.7Zm-1.8-1.4h.8L590,166.2l-12.7,27.1h.9l3.2-7a.7.7,0,0,1,.6-.4h15.5a.7.7,0,0,1,.6.4Zm-4.5-8H582.9a.7.7,0,0,1-.5-.4c-.2-.1-.2-.4-.1-.6l7-15a.7.7,0,0,1,.6-.4.9.9,0,0,1,.6.4l6.7,15a.6.6,0,0,1-.1.7A.9.9,0,0,1,596.6,185.3Zm-12.7-1.4h11.7l-5.7-12.7Z"/><path class="cls-1" d="M643.7,194l-12-14.6h3.5a12.6,12.6,0,0,0,5.4-.9,7.3,7.3,0,0,0,2.7-2.2,5.2,5.2,0,0,0,1.1-3.2,4.3,4.3,0,0,0-1-2.9,6.7,6.7,0,0,0-2.7-2.3,9,9,0,0,0-4-.9h-8.1v27h-2V164.9h10.1a13.4,13.4,0,0,1,3.9.7,7.7,7.7,0,0,1,3.1,1.9,7.3,7.3,0,0,1,2,2.6,6.3,6.3,0,0,1,.7,3,6.9,6.9,0,0,1-1.5,4.4,8,8,0,0,1-3.5,2.8,8.4,8.4,0,0,1-2.7.8l-2.8.2L646.4,194Z"/><path class="cls-1" d="M646.4,194.7h-2.7a.5.5,0,0,1-.5-.3l-12-14.6a.6.6,0,0,1-.1-.7.6.6,0,0,1,.6-.3h3.5a15.4,15.4,0,0,0,5.2-.9,9.1,9.1,0,0,0,2.4-2,4.8,4.8,0,0,0,1-2.8,3.8,3.8,0,0,0-.9-2.5,5.1,5.1,0,0,0-2.5-2.1,7.8,7.8,0,0,0-3.7-.9h-7.4V194a.7.7,0,0,1-.7.7h-2a.7.7,0,0,1-.7-.7V164.9c0-.4.3-.6.7-.6h10.1a11.4,11.4,0,0,1,4.1.7,9,9,0,0,1,3.4,2,9.8,9.8,0,0,1,2.1,2.8,7.6,7.6,0,0,1,.8,3.3,7.8,7.8,0,0,1-1.7,4.8,8.1,8.1,0,0,1-3.8,3,5.4,5.4,0,0,1-2.8.8l-1.6.2,9.7,11.7a.6.6,0,0,1,.1.7A.7.7,0,0,1,646.4,194.7Zm-2.4-1.4h1l-9.6-11.6a.6.6,0,0,1-.1-.7.6.6,0,0,1,.6-.3l2.8-.2a7.5,7.5,0,0,0,2.4-.8,6.6,6.6,0,0,0,3.3-2.6,6.3,6.3,0,0,0,1.4-4,6.4,6.4,0,0,0-.7-2.7,6.1,6.1,0,0,0-1.8-2.4,8.8,8.8,0,0,0-2.9-1.8,11.5,11.5,0,0,0-3.7-.6h-9.4v27.7h.6V167a.7.7,0,0,1,.7-.7h8.1a9.1,9.1,0,0,1,4.3,1,6.4,6.4,0,0,1,2.9,2.5,5,5,0,0,1,1.2,3.3,5.9,5.9,0,0,1-1.3,3.6,9.6,9.6,0,0,1-2.9,2.4,14.2,14.2,0,0,1-5.7.9h-2.1Z"/><path class="cls-1" d="M671.5,194V164.9h18.9V167H673.5v11.5h13.2v2H673.5v11.4h16.9V194Z"/><path class="cls-1" d="M690.4,194.7H671.5a.7.7,0,0,1-.7-.7V164.9c0-.4.3-.6.7-.6h18.9c.4,0,.7.2.7.6V167a.7.7,0,0,1-.7.7H674.2v10.1h12.5a.7.7,0,0,1,.7.7v2a.7.7,0,0,1-.7.7H674.2v10.1h16.2c.4,0,.7.2.7.6V194A.7.7,0,0,1,690.4,194.7Zm-18.2-1.4h17.6v-.7H673.5a.7.7,0,0,1-.7-.7V180.5a.7.7,0,0,1,.7-.7H686v-.6H673.5a.7.7,0,0,1-.7-.7V167a.7.7,0,0,1,.7-.7h16.3v-.7H672.2Z"/></svg>