<svg id="Layer_1" data-name="Layer 1" xmlns="http://www.w3.org/2000/svg" viewBox="0 0 693.6 245.6"><defs><style>.cls-1{fill:#fff;}</style></defs><title>LOGO APP</title><path class="cls-1" d="M601,384.7V305.8h6.3v78.9Z" transform="translate(-374.6 -247.6)"/><path class="cls-1" d="M743.4,384.7H710.6a49.2,49.2,0,0,1-22.9-5.4,43.1,43.1,0,0,1-16.6-14.4,36,36,0,0,1,0-40.1,44.2,44.2,0,0,1,16.6-14.5,50.9,50.9,0,0,1,41.1-2,44.9,44.9,0,0,1,15.1,9.4l-4.6,3.8a39.1,39.1,0,0,0-13.1-8.1,43.5,43.5,0,0,0-15.6-2.8,42.6,42.6,0,0,0-19.7,4.6,37.6,37.6,0,0,0-14.3,12.4,30.6,30.6,0,0,0,0,34.4,38.1,38.1,0,0,0,14.3,12.6,42.6,42.6,0,0,0,19.7,4.6h26.2V351H707v-5.5h36.4Z" transform="translate(-374.6 -247.6)"/><path class="cls-1" d="M811.4,320.6v64.1h-6.2V304.9l62.7,65.2V305.8h6.3V386Z" transform="translate(-374.6 -247.6)"/><path class="cls-1" d="M937.5,384.7V305.8h6.3v78.9Z" transform="translate(-374.6 -247.6)"/><path class="cls-1" d="M1064.7,354.2a15.6,15.6,0,0,1,1,18.3,22.6,22.6,0,0,1-7.3,7.1,42.3,42.3,0,0,1-22.7,6.1,49.3,49.3,0,0,1-12.3-1.6,39.4,39.4,0,0,1-10.4-4.5c-5.3-3.4-8.5-7.6-9.6-12.5l6-2.9c.2,4.4,2.7,8.1,7.5,10.9a26.4,26.4,0,0,0,8.5,3.7,42.7,42.7,0,0,0,10.3,1.3c7.5,0,13.7-1.7,18.8-5s7.4-6.9,7.4-11.2a10.8,10.8,0,0,0-2.7-7,21.8,21.8,0,0,0-7.6-5.6c-3.1-1.3-8.5-2.4-16.4-3.2l-7.1-1a44.9,44.9,0,0,1-10.4-2.7,27.1,27.1,0,0,1-10.7-7.7,16,16,0,0,1-3.9-10.4,14.6,14.6,0,0,1,2.6-8.4,24.6,24.6,0,0,1,7.3-7,36.2,36.2,0,0,1,10.4-4.4,45.1,45.1,0,0,1,12.3-1.6c8.7,0,16.2,2,22.7,6s8.6,7.7,9.5,12.4l-6,2.9a11,11,0,0,0-2-5.8,16.6,16.6,0,0,0-5.4-5.1,31.9,31.9,0,0,0-8.6-3.7,40.7,40.7,0,0,0-20.4,0,29.4,29.4,0,0,0-8.6,3.7,18.8,18.8,0,0,0-5.6,5.2,10,10,0,0,0-1.9,5.8,11.1,11.1,0,0,0,3.2,7.5,21.1,21.1,0,0,0,7.9,5.8,25.8,25.8,0,0,0,6.5,1.7l9.1,1.2,4.9.6c2.6.3,5.1.8,7.5,1.3a31.9,31.9,0,0,1,6.2,2.1A27.5,27.5,0,0,1,1064.7,354.2Z" transform="translate(-374.6 -247.6)"/><polygon class="cls-1" points="137.9 74 137.8 74 99.3 47.2 108.5 31.5 117.7 15.7 126.9 0 126.9 0.1 130.6 24.7 134.2 49.4 137.9 74"/><polygon class="cls-1" points="190 176.8 174.8 188.2 159.4 199.7 156.8 201.7 150.9 206.1 144.1 211.2 128.8 222.7 113.5 234.1 98.2 245.6 0 177.3 0.7 176.8 15.3 165.8 30.6 154.4 45.9 142.9 61.3 131.4 76.6 119.9 91.8 108.5 91.9 108.4 91.6 108.2 77.4 84.8 68.4 70 45.1 31.7 90.1 63 122.5 85.5 141.5 98.7 168.1 117.2 159.1 133.1 150.2 149 149.2 150.8 141.3 164.9 134.6 176.8 190 176.8"/><rect class="cls-1" x="226.4" y="149.8" width="467.2" height="3.79"/><path class="cls-1" d="M607,441.6V412.5h2v29.1Z" transform="translate(-374.6 -247.6)"/><path class="cls-1" d="M658.2,412.5v2.1H646.7v27h-2v-27H633.1v-2.1Z" transform="translate(-374.6 -247.6)"/><path class="cls-1" d="M732.1,430.4a5.9,5.9,0,0,1,1.1,3.6,5.8,5.8,0,0,1-.8,3.1,8.3,8.3,0,0,1-2.3,2.7,12.8,12.8,0,0,1-7.3,2.2,12.3,12.3,0,0,1-3.9-.6,11.9,11.9,0,0,1-3.4-1.6,7.7,7.7,0,0,1-3.1-4.7l2-1a4.8,4.8,0,0,0,2.4,4,11.5,11.5,0,0,0,2.7,1.4,11.9,11.9,0,0,0,3.3.4,10.2,10.2,0,0,0,6.1-1.8,5.2,5.2,0,0,0,2.3-4.1,5,5,0,0,0-.8-2.6,7.5,7.5,0,0,0-2.5-2.1,17.3,17.3,0,0,0-5.3-1.2l-2.2-.3a15.2,15.2,0,0,1-3.4-1,8.8,8.8,0,0,1-3.4-2.9,6.5,6.5,0,0,1-1.3-3.8,5.9,5.9,0,0,1,.9-3.1,8,8,0,0,1,2.3-2.6,11.9,11.9,0,0,1,3.4-1.6,12.3,12.3,0,0,1,3.9-.6,12.1,12.1,0,0,1,7.3,2.2,7.6,7.6,0,0,1,3.1,4.6l-2,1.1a4.3,4.3,0,0,0-.6-2.2,7.5,7.5,0,0,0-1.7-1.9,9,9,0,0,0-2.8-1.3,12,12,0,0,0-3.3-.5,12.6,12.6,0,0,0-3.3.5,8.4,8.4,0,0,0-2.7,1.3,6.4,6.4,0,0,0-1.8,1.9,4.4,4.4,0,0,0,.4,5,7.2,7.2,0,0,0,2.5,2.1,8.3,8.3,0,0,0,2.1.6l3,.5,1.5.2,2.4.5a7.7,7.7,0,0,1,2,.7A10,10,0,0,1,732.1,430.4Z" transform="translate(-374.6 -247.6)"/><path class="cls-1" d="M770.8,441.9a14.6,14.6,0,0,1-7.4-1.9,15,15,0,0,1-5.4-5.5,14.3,14.3,0,0,1-1.9-7.4,14.9,14.9,0,0,1,1.9-7.5,15.5,15.5,0,0,1,5.4-5.4,14.7,14.7,0,0,1,7.4-2,14.9,14.9,0,0,1,7.4,2,16.1,16.1,0,0,1,5.3,5.4,15,15,0,0,1,2,7.5,14.4,14.4,0,0,1-2,7.4,15.5,15.5,0,0,1-5.3,5.5A14.8,14.8,0,0,1,770.8,441.9Zm0-27.6a12.4,12.4,0,0,0-11,6.4,12.9,12.9,0,0,0,0,12.8,12.4,12.4,0,0,0,11,6.4,12.4,12.4,0,0,0,6.3-1.7,12.2,12.2,0,0,0,4.6-4.7,12.9,12.9,0,0,0,0-12.8,12.2,12.2,0,0,0-4.6-4.7A12.4,12.4,0,0,0,770.8,414.3Z" transform="translate(-374.6 -247.6)"/><path class="cls-1" d="M809.3,441.6V412.5h18.8v2.1H811.3v11.5h13.2v2.1H811.3v13.4Z" transform="translate(-374.6 -247.6)"/><path class="cls-1" d="M876.6,412.5v2.1H865.1v27H863v-27H851.5v-2.1Z" transform="translate(-374.6 -247.6)"/><path class="cls-1" d="M924.3,435.9l7.2-23.4h2.1l-9.2,29.6-8.2-21.6-8.4,21.6-9.2-29.6h2.1l7.3,23.4,8.2-21.1Z" transform="translate(-374.6 -247.6)"/><path class="cls-1" d="M956.6,434.2l-3.4,7.4h-2.3l13.7-29.4,12.9,29.4h-2.2l-3.2-7.4Zm7.9-17-7,15h13.7Z" transform="translate(-374.6 -247.6)"/><path class="cls-1" d="M1018.3,441.6l-12-14.6h3.5a13.5,13.5,0,0,0,5.4-.9,8,8,0,0,0,2.7-2.2,5.2,5.2,0,0,0,1.1-3.2,4.6,4.6,0,0,0-1-2.9,6.2,6.2,0,0,0-2.7-2.3,8.4,8.4,0,0,0-4-.9h-8.1v27h-2V412.5h10.1a12.3,12.3,0,0,1,3.9.7,7.7,7.7,0,0,1,3.1,1.9,7.3,7.3,0,0,1,2,2.6,6.6,6.6,0,0,1,.7,3,6.9,6.9,0,0,1-1.5,4.4,7.8,7.8,0,0,1-3.5,2.8,7,7,0,0,1-2.7.8l-2.8.2,10.5,12.7Z" transform="translate(-374.6 -247.6)"/><path class="cls-1" d="M1046.1,441.6V412.5H1065v2.1h-16.9v11.5h13.2v2h-13.2v11.4H1065v2.1Z" transform="translate(-374.6 -247.6)"/></svg>