<svg id="Layer_1" data-name="Layer 1" xmlns="http://www.w3.org/2000/svg" viewBox="0 0 121.1 55.4"><defs><style>.cls-1{fill:#fffcf8;}.cls-2{fill:#222;}.cls-3{fill:#dcecf7;}.cls-4{fill:#1755e0;}</style></defs><title>sook</title><path class="cls-1" d="M136.1,53.1a1,1,0,0,0-1-.8h-4.7c-.1.2-.1.4-.3.6h5c.2,0,.4,0,.4.2s.2.2.2.3v2.1a1,1,0,0,1-.1.3c-.1.2-.3.2-.5.2h-5.5l.3.3c0,.1.1.1.1.2h5.1a1.2,1.2,0,0,0,1.1-.8V53.4A.4.4,0,0,0,136.1,53.1Zm-1,5.4H130c0,.1-.1.2-.1.3l-.3.2h5.5c.2,0,.4.1.4.2a.5.5,0,0,1,.2.4v2.1l-.2.3c0,.1-.2.2-.4.2h-5.5a.7.7,0,0,1,.4.5h5.1a1.2,1.2,0,0,0,1.1-.7V59.2A1.2,1.2,0,0,0,135.1,58.5Zm-6.9-1.9h1.4c0-.1-.1-.2-.2-.3L129,56h-.8a1.5,1.5,0,1,0,0,3h.8l.4-.2c.1-.1.2-.2.2-.3h-1.4a.9.9,0,0,1-.9-1A.9.9,0,0,1,128.2,56.6Zm0,8a.9.9,0,0,1-.9-.9,1,1,0,0,1,.9-1h1.4c0-.1-.1-.2-.2-.3l-.4-.2h-.8a1.5,1.5,0,1,0,0,3h.8l.4-.3c.1-.1.2-.2.2-.3Zm7.9.8a.5.5,0,0,0-.2-.4,1.2,1.2,0,0,0-.8-.4H130c0,.2-.2.4-.4.6h5.9c.1.1.2.2.1.3a11.2,11.2,0,0,1-.3,2.7l-.3.9c-1.3,3.9-4.5,5.9-9.6,5.9h-1.2c-5.2,0-8.4-2-9.7-5.9l-.3-.9a19.8,19.8,0,0,1-.3-3.5V50.2c0-6.8,3.4-10.3,10.3-10.3h1.2c6.5,0,10,3.2,10.2,9.4.1.2,0,.3-.1.4h0a.5.5,0,0,1-.4.2h-5c.2.1.2.3.3.5h4.7a1.1,1.1,0,0,0,.8-.3l.2-.4a.6.6,0,0,0,.1-.4c-.3-6.5-4.1-9.9-10.8-9.9h-1.2c-7.1,0-10.9,3.7-10.9,10.8V64.9a13.7,13.7,0,0,0,.4,3.6l.3,1c1.4,4.1,4.8,6.2,10.2,6.2h1.2c5.3,0,8.8-2.1,10.1-6.2l.3-1a19.3,19.3,0,0,0,.4-2.7c0-.2,0-.3-.1-.4Z" transform="translate(-86.1 -39.4)"/><path class="cls-1" d="M128.2,55.5h6.9V53.4h-5.6c-.2.2-.4.2-.6.3h-.7a2.8,2.8,0,0,1-1.7-.7l-.3-.4a.5.5,0,0,1-.2-.4.6.6,0,0,1-.1-.4,1.1,1.1,0,0,1-.1-.5.7.7,0,0,1,.1-.5.9.9,0,0,1,.1-.5c0-.1.1-.2.2-.4l.3-.3a2.3,2.3,0,0,1,1.7-.7h6.9c-.3-5.9-3.5-8.9-9.7-8.9h-1.2c-6.6,0-9.8,3.3-9.8,9.8V64.9a18.7,18.7,0,0,0,.3,3.4l.3.8c1.2,3.7,4.3,5.5,9.2,5.5h1.2c4.9,0,7.9-1.8,9.1-5.5l.3-.8a10.9,10.9,0,0,0,.3-2.6h-6.9a2,2,0,0,1-2-2,2,2,0,0,1,2-2.1h6.9V59.6h-6.9a2,2,0,0,1-2-2.1A2,2,0,0,1,128.2,55.5Zm-.5-7.1,1.2.2h-.7a2.8,2.8,0,0,0-2.8,2.8,2.9,2.9,0,0,0,2.8,2.8h.7l-1.2.3a3,3,0,0,1-3-3A2.9,2.9,0,0,1,127.7,48.4Zm0,6.2a2.5,2.5,0,0,1,1.2.2h-.7a2.9,2.9,0,0,0-2.8,2.8,2.8,2.8,0,0,0,2.8,2.8h.7l-1.2.2a3,3,0,1,1,0-5.9Zm0,12.1a3,3,0,0,1-3-3,2.9,2.9,0,0,1,3-3,2.7,2.7,0,0,1,1.2.3h-.7a2.8,2.8,0,0,0-2.8,2.8,2.9,2.9,0,0,0,2.8,2.8h.7Z" transform="translate(-86.1 -39.4)"/><path class="cls-1" d="M101.2,52.3l.7.2h.2l6.1-1.2a1.1,1.1,0,0,0,.8-1.1V49c0-4.4-1.8-9.6-10.8-9.6H97c-7.1,0-10.9,3.7-10.9,10.8S89.9,61,97,61h1.2c1.3,0,2.6.5,2.6,3.9s-1.3,3.8-2.6,3.8H97c-1.9,0-2.6-.8-2.6-2.6V63.6a1.2,1.2,0,0,0-.4-.8l-.7-.2h-.2L87,63.8a1.1,1.1,0,0,0-.9,1.1v1.2c0,4.4,1.9,9.6,10.9,9.6h1.2c7.1,0,10.8-3.7,10.8-10.8S105.3,54,98.2,54H97c-1.3,0-2.6-.4-2.6-3.8s1.3-3.8,2.6-3.8h1.2c1.8,0,2.6.7,2.6,2.6v2.4A1.1,1.1,0,0,0,101.2,52.3Zm-3-6.4H97c-1.4,0-3.2.4-3.2,4.3s1.8,4.4,3.2,4.4h1.2c6.8,0,10.3,3.4,10.3,10.3S105,75.2,98.2,75.2H97c-6.9,0-10.3-3.1-10.3-9.1V64.9a.5.5,0,0,1,.4-.6l6.1-1.2h.5a.6.6,0,0,1,.1.4v2.5c0,2.1,1,3.1,3.2,3.1h1.2c1.3,0,3.1-.4,3.1-4.3s-1.8-4.4-3.1-4.4H97c-6.9,0-10.3-3.5-10.3-10.3S90.1,39.9,97,39.9h1.2c6.8,0,10.3,3.1,10.3,9.1v1.2a.5.5,0,0,1-.4.5L102,52h-.1a.7.7,0,0,1-.6-.6V49C101.3,46.9,100.3,45.9,98.2,45.9Z" transform="translate(-86.1 -39.4)"/><path class="cls-1" d="M152.5,40.4h-1.2c-6.2,0-9.5,3-9.7,8.9h6.9a2.1,2.1,0,0,1,2,2.1,2,2,0,0,1-2,2h-7v2.1h7a2,2,0,0,1,2,2,2,2,0,0,1-2,2.1h-7v2.1h7a2,2,0,0,1,2,2.1,2,2,0,0,1-2,2h-6.9a10.9,10.9,0,0,0,.3,2.6l.3.8c1.2,3.7,4.2,5.5,9.1,5.5h1.2c4.9,0,8-1.8,9.2-5.5a1.9,1.9,0,0,0,.2-.8,12.7,12.7,0,0,0,.4-3.4V50.2C162.3,43.7,159.1,40.4,152.5,40.4ZM149,66.7a2.7,2.7,0,0,1-1.2-.3h.7a2.9,2.9,0,0,0,2.8-2.8,2.8,2.8,0,0,0-2.8-2.8h-.7a2.7,2.7,0,0,1,1.2-.3,3,3,0,0,1,3,3A3.1,3.1,0,0,1,149,66.7Zm0-6.2-1.2-.2h.7a2.8,2.8,0,0,0,2.8-2.8,2.9,2.9,0,0,0-2.8-2.8h-.7a2.5,2.5,0,0,1,1.2-.2,3,3,0,1,1,0,5.9Zm0-6.1a2.7,2.7,0,0,1-1.2-.3h.7a2.9,2.9,0,0,0,2.8-2.8,2.8,2.8,0,0,0-2.8-2.8h-.7l1.2-.2a3,3,0,0,1,3,3A3.1,3.1,0,0,1,149,54.4Z" transform="translate(-86.1 -39.4)"/><path class="cls-1" d="M148.5,49.9h-.4v.5h.4a1,1,0,0,1,.9,1,.9.9,0,0,1-.9.9h-.4v.6h.4a1.5,1.5,0,0,0,0-3Zm0,6.1h-.4v.6h.4a.9.9,0,0,1,.9.9.9.9,0,0,1-.9,1h-.4V59h.4a1.5,1.5,0,0,0,0-3Zm0,6.2h-.4v.5h.4a1,1,0,0,1,.9,1,.9.9,0,0,1-.9.9h-.4v.6h.4a1.5,1.5,0,0,0,0-3Zm0-12.3h-.8a1,1,0,0,0-.6.5h1.4a1,1,0,0,1,.9,1,.9.9,0,0,1-.9.9H147a3.4,3.4,0,0,0,.6.6h.9a1.5,1.5,0,0,0,0-3Zm0,6.1h-.9c-.2.2-.4.3-.5.6h1.4a.9.9,0,0,1,.9.9.9.9,0,0,1-.9,1h-1.4a1,1,0,0,0,.6.5h.8a1.5,1.5,0,0,0,0-3Zm0,6.2h-.8a1,1,0,0,0-.6.5h1.4a1,1,0,0,1,.9,1,.9.9,0,0,1-.9.9H147a3.4,3.4,0,0,0,.6.6h.9a1.5,1.5,0,0,0,0-3Zm4-22.8h-1.2c-6.8,0-10.5,3.4-10.8,9.9v.4l.3.4a1.1,1.1,0,0,0,.8.3h5.1a.7.7,0,0,1,.4-.5h-5.5l-.4-.2h-.1c0-.1-.1-.2-.1-.4.3-6.2,3.8-9.4,10.3-9.4h1.2c6.9,0,10.3,3.5,10.3,10.3V64.9a19.8,19.8,0,0,1-.3,3.5l-.3.9c-1.3,3.9-4.5,5.9-9.7,5.9h-1.2c-5.1,0-8.3-2-9.6-5.9l-.3-.9a19.3,19.3,0,0,1-.4-2.7c0-.1.1-.2.2-.3H147l-.4-.6h-5a1.2,1.2,0,0,0-.8.4.5.5,0,0,0-.2.4c-.1.1-.1.2-.1.4a11.7,11.7,0,0,0,.4,2.7,1.9,1.9,0,0,0,.3,1c1.3,4.1,4.8,6.2,10.1,6.2h1.2c5.4,0,8.8-2.1,10.2-6.2l.3-1a19.8,19.8,0,0,0,.4-3.6V50.2C163.4,43.1,159.6,39.4,152.5,39.4ZM141.2,62l-.2-.3V59.6a.5.5,0,0,1,.2-.4c0-.1.2-.2.3-.2h5.6a1.2,1.2,0,0,1-.5-.5h-5.1a1.2,1.2,0,0,0-1,.7V62a1.2,1.2,0,0,0,1,.7h5.1l.4-.5h-5.5C141.4,62.2,141.2,62.1,141.2,62Zm-.1-6.2c0-.1-.1-.2-.1-.3V53.4c0-.1.1-.2.2-.3s.2-.2.3-.2H147l-.4-.6h-5.1a1.1,1.1,0,0,0-1,.8v2.7a1.1,1.1,0,0,0,1,.8h5.2c0-.2.2-.4.3-.6h-5.5A.4.4,0,0,1,141.1,55.8Z" transform="translate(-86.1 -39.4)"/><path class="cls-1" d="M189.5,50.2c0,3.3-.8,5.7-2.5,7.3,1.7,1.7,2.5,4.1,2.5,7.4v9.7h-6.1V64.9c0-3.3-1.3-4.9-3.7-4.9h-4.9V74.6h-6.1V40.4h6.1V55.1h4.9c2.4,0,3.7-1.6,3.7-4.9V40.4h6.1Z" transform="translate(-86.1 -39.4)"/><path class="cls-1" d="M190.5,40.4a1,1,0,0,0-1-1h-6.1a1.1,1.1,0,0,0-1.1,1v9.8c0,3.4-1.3,3.8-2.6,3.8h-3.8V40.4a1.1,1.1,0,0,0-1.1-1h-6.1a1,1,0,0,0-1,1V74.6a1,1,0,0,0,1,1.1h6.1a1.1,1.1,0,0,0,1.1-1.1V61h3.8c1.3,0,2.6.5,2.6,3.9v9.7a1.1,1.1,0,0,0,1.1,1.1h6.1a1,1,0,0,0,1-1.1V64.9a12.5,12.5,0,0,0-2-7.4,12.2,12.2,0,0,0,2-7.3Zm-.5,9.8c0,3.2-.7,5.6-2.2,7.3,1.5,1.8,2.2,4.2,2.2,7.4v9.7a.6.6,0,0,1-.5.6h-6.1a.6.6,0,0,1-.6-.6V64.9c0-3.9-1.7-4.4-3.1-4.4h-4.3V74.6a.6.6,0,0,1-.6.6h-6.1a.6.6,0,0,1-.5-.6V40.4a.5.5,0,0,1,.5-.5h6.1a.6.6,0,0,1,.6.5V54.6h4.3c1.4,0,3.1-.5,3.1-4.4V40.4a.6.6,0,0,1,.6-.5h6.1a.5.5,0,0,1,.5.5Z" transform="translate(-86.1 -39.4)"/><path class="cls-1" d="M171.3,82.9h-.1l-4.7,1.7L162,86.7l-1.2-.6a5.7,5.7,0,0,0-1.3-.8l-1.2-.9a3.5,3.5,0,0,1-1-1.1,3.4,3.4,0,0,1-.5-1.4,3.9,3.9,0,0,1,.2-1.5,5.8,5.8,0,0,1,.5-1.4,10,10,0,0,1,2-2.9,11.8,11.8,0,0,1,2.8-2.2l.7-.4.8-.3h.8c.1.2.2.4.1.5a1.3,1.3,0,0,1-.1.6l-.6,1.8a14.2,14.2,0,0,0-.8,1.8h.2a.1.1,0,0,0,.1-.1c.2-.6.5-1.1.7-1.6l.6-1.6.2-.5c0-.2.1-.4.1-.6a4.3,4.3,0,0,0-.1-.5.8.8,0,0,0-.4-.4h-1.1l-.5.3-.5.2a13.4,13.4,0,0,0-2.3,1.6L159,76.2a15.8,15.8,0,0,0-1.2,1.5l-.9,1.7a5.3,5.3,0,0,0-.4,1.7,3.2,3.2,0,0,0,.2,1.7,3.3,3.3,0,0,0,1,1.5l1.1.9,1.2.7.8.5.8.5L159.7,88l-1.2.9-1.3.9-1.1.9a4.8,4.8,0,0,0-.9,1.1,2.2,2.2,0,0,0-.2,1.1,1.8,1.8,0,0,0,.4,1,1.6,1.6,0,0,0,1.1.5h1.1a7.5,7.5,0,0,0,2.9-.9,10.4,10.4,0,0,0,2.4-1.7l.8-.9a2.1,2.1,0,0,0,.5-1.2,1.4,1.4,0,0,0-.1-1.1,2.8,2.8,0,0,0-.7-.9l-.5-.4-.6-.4,4.4-2,4.6-1.7c.1,0,.1,0,.1-.1h-.1Zm-9,4.5.4.2a2.6,2.6,0,0,1,1,1.1,1.2,1.2,0,0,1,.1,1.3,2.9,2.9,0,0,1-.7,1.2,4.4,4.4,0,0,1-1.1.9l-1.4,1-1.6.6-.8.2-.8.2h-.8l-.7-.2-.5-.6a2,2,0,0,1-.1-.7l.3-.8.5-.6a5.8,5.8,0,0,1,1.2-1l1.2-1,1.7-1.1,1.7-1Z" transform="translate(-86.1 -39.4)"/><path class="cls-1" d="M157,94.8h-.6a1.9,1.9,0,0,1-1.2-.7,2.3,2.3,0,0,1-.6-1.2,3.1,3.1,0,0,1,.3-1.3l1-1.2,1.1-.9,1.3-.9,1.2-.9,1.4-.8-.3-.2-.8-.5-.6-.4-.6-.3-1.2-.9a4.5,4.5,0,0,1-1.1-1.7,5.5,5.5,0,0,1-.2-1.8,5.9,5.9,0,0,1,.5-1.9,9.5,9.5,0,0,1,.9-1.7,15.8,15.8,0,0,1,1.2-1.5l1.2-1.3a14.3,14.3,0,0,1,2.4-1.6l.5-.3.6-.2h1.3a.9.9,0,0,1,.6.6c.1.1.1.4.1.6a2,2,0,0,1-.1.7v.2a.4.4,0,0,0-.1.3,10.1,10.1,0,0,1-.7,1.5h0l-.4.9-.2.7-.3.3h-.4l-.3-.2c-.1-.2-.1-.3,0-.4s.5-1.3.7-1.9a8.7,8.7,0,0,0,.7-1.7c0-.2.1-.3.1-.5s0-.2-.1-.2h-.4l-.7.2-.5.3h-.3a13.3,13.3,0,0,0-2.6,2.1,10.3,10.3,0,0,0-2,2.8c-.2.4-.3.9-.5,1.4a5.7,5.7,0,0,0-.1,1.3,2,2,0,0,0,.4,1.3,2.8,2.8,0,0,0,.9,1l1.2.9a5.7,5.7,0,0,1,1.3.8l1,.5,4.4-2,4.7-1.8h.4l.3.3a.4.4,0,0,1-.1.3c0,.2-.1.3-.2.3h-.1l-4.5,1.7A35.2,35.2,0,0,0,163,87h.1l.5.4a2.1,2.1,0,0,1,.8,1.1,1.9,1.9,0,0,1,.2,1.3,3.8,3.8,0,0,1-.6,1.3,3.9,3.9,0,0,1-.8,1,13,13,0,0,1-2.6,1.7,10,10,0,0,1-2.9,1Zm4.9-7.3-1.5.9-1.7,1.1-1.2,1a3.6,3.6,0,0,0-1.1,1c-.2.1-.3.3-.5.5a1.4,1.4,0,0,0-.2.6v.6l.4.4.6.2h.7l.7-.2.7-.2,1.6-.7,1.4-.8,1-.9.7-1.1a1.4,1.4,0,0,0-.1-1.1,3.8,3.8,0,0,0-.9-.9h-.1l-.2-.2h-.3Zm1.3-9.6h0Z" transform="translate(-86.1 -39.4)"/><path class="cls-1" d="M180.4,80.6h.4v.2a15.9,15.9,0,0,1-1.3,1.3l-1.4,1.1-.4.3h-.5c-.1.1-.2,0-.4,0l-.3-.4c-.1-.2-.1-.4-.2-.6a1.7,1.7,0,0,0-.1-.7v-.8l-.4.3-.4.3-1.2,1.2-1.3,1.4a5.1,5.1,0,0,0-.9,1.6h-.2a.2.2,0,0,1-.2-.2,2.4,2.4,0,0,0,.2-.8,1.9,1.9,0,0,0,.2-.7l1.4-5.3c.5-1.7.9-3.5,1.4-5.2h0c.1-.1.1-.1.2,0h.1v.2c-.1.2-.1.5-.2.7s-.1.5-.2.8l-2.4,9.1.8-1,.9-.9.6-.6.6-.6.4-.3.5-.3h.3a.5.5,0,0,1,.2.4v1.1c.1.1.1.2.1.4V83a.2.2,0,0,0,.2.2h.5l.2-.2h.3l1.3-1.1A6,6,0,0,0,180.4,80.6Z" transform="translate(-86.1 -39.4)"/><path class="cls-1" d="M171.7,86.4a.1.1,0,0,1-.1-.1h-.2a.4.4,0,0,1-.2-.6l.4-1.5c.4-1.8.9-3.5,1.3-5.3s1-3.5,1.4-5.2a.7.7,0,0,1,.3-.4h.4l.3.2a.8.8,0,0,1,0,.5c0,.2-.1.5-.1.7a2.5,2.5,0,0,0-.2.7L173,83l.6-.7.6-.6.7-.5.4-.4.5-.3a.7.7,0,0,1,.8.1.8.8,0,0,1,.2.5.9.9,0,0,1,.1.5.8.8,0,0,1,.1.4v.3a.4.4,0,0,0,.1.3v.3h.2l.2-.2h.3l1.3-1a5.3,5.3,0,0,0,1-1.2.5.5,0,0,1,.5-.3h.3l.2.3c.1.2,0,.3,0,.5l-1.3,1.4-1.5,1.1-.4.3-.6.2h-.6a1,1,0,0,1-.5-.6,1.4,1.4,0,0,1-.2-.7,1.3,1.3,0,0,1-.1-.6v-.3l-.4.3-1.2,1.1-1.2,1.4a6,6,0,0,0-.9,1.5A.7.7,0,0,1,171.7,86.4Zm2.9-12.6Z" transform="translate(-86.1 -39.4)"/><path class="cls-1" d="M188.6,78.9h.3c0,.1,0,.1-.1.1a5.1,5.1,0,0,1-1.7.7l-1.8.5-1.2.2-1.2.3v.4a.4.4,0,0,0-.1.3.4.4,0,0,1-.1.3c0,.2-.1.3-.1.4l-.3.2H182l-.3-.2c0-.2-.1-.3-.1-.4v-.8c0-.1,0-.2.1-.2h-.3a1.2,1.2,0,0,1-.5-.5.8.8,0,0,1,.2-.7.9.9,0,0,1,.7-.3,1.1,1.1,0,0,1,.7.3l.3.4c0,.2.1.3.1.5h.3l1.4-.3,1.4-.3,1.3-.4Zm-7.3,1.2a.4.4,0,0,0,.1.3l.3.2h.9a1.4,1.4,0,0,0-.2-.6l-.3-.2h-.7C181.3,79.8,181.3,79.9,181.3,80.1Zm1.1,1.7v-.2a.4.4,0,0,0,.1-.3v-.4H182v.5a.4.4,0,0,0,.1.3c0,.1,0,.2.1.2a.1.1,0,0,0,.1.1h.1C182.3,81.9,182.4,81.9,182.4,81.8Z" transform="translate(-86.1 -39.4)"/><path class="cls-1" d="M182.2,82.9h-.3a.7.7,0,0,1-.5-.4,9329101592432.1,9329101592432.1,0,0,0-.2-1v-.3l-.5-.5h-.1a1,1,0,0,1,.2-1,1.4,1.4,0,0,1,1-.5h0a1.2,1.2,0,0,1,.9.4,1.3,1.3,0,0,1,.4.6v.2l1.3-.3,1.4-.4,1.3-.3,1.3-.5h.4l.3.2c0,.1.1.2,0,.4a.5.5,0,0,1-.3.4l-1.7.7-1.9.4-1.1.3-1,.2h0v.4a.4.4,0,0,0-.1.3l-.2.5-.4.3C182.5,82.9,182.4,82.9,182.2,82.9Zm-.5-2.9h0Zm6.9-1.1Z" transform="translate(-86.1 -39.4)"/><path class="cls-1" d="M198.6,76.5h.2c0,.1.1.1.1.2h-.1a11.4,11.4,0,0,1-2.3,1.5,11.5,11.5,0,0,1-2.5,1.2l-1.2.4-1.2.3h-.7a.9.9,0,0,1-.7,0l-.6-.2a1.6,1.6,0,0,1-.4-.7,1.5,1.5,0,0,1,.2-.9,1.8,1.8,0,0,1,.5-.7l.3-.2.3-.2h.6v.6l-.2.3v.2l-.6.5-.6.4a.7.7,0,0,0,.6.4h1.5a21.7,21.7,0,0,0,3.6-1.2A18.5,18.5,0,0,0,198.6,76.5Zm-8.9,2.3a.4.4,0,0,0-.1.3l.6-.4.4-.5V78c.1,0,.1-.1.1-.2h-.3a.1.1,0,0,1-.1.1h-.1a.8.8,0,0,0-.4.4Z" transform="translate(-86.1 -39.4)"/><path class="cls-1" d="M190.5,80.7h-.4l-.7-.3a1.1,1.1,0,0,1-.5-.9,1.4,1.4,0,0,1,.2-1.1c.1-.4.4-.6.6-.9l.3-.2.3-.2h.5a.5.5,0,0,1,.5.3c.1.2.2.3.2.5s0,.3-.1.4a.5.5,0,0,1-.2.4c0,.1-.1.2-.2.3s-.3.3-.6.5l-.2.2h1.4a12.7,12.7,0,0,0,3.6-1.2,16.1,16.1,0,0,0,3.1-1.9c.1-.2.3-.2.5-.2l.2.2.2.3c0,.2,0,.4-.2.5a11.4,11.4,0,0,1-2.3,1.5,14.2,14.2,0,0,1-2.5,1.2l-1.3.4-1.2.3-.7.2Zm8.1-4.2Z" transform="translate(-86.1 -39.4)"/><path class="cls-1" d="M206.7,74.9c.1-.1.1,0,.2,0h0c0,.1,0,.1-.1.1a7,7,0,0,0-2,.8,11.8,11.8,0,0,0-1.9,1.1l-1.3,1.1-1.3,1a4.9,4.9,0,0,1-.1,1.2,1.9,1.9,0,0,1-.5,1l-.3.3-.4.3-.5.2h-.4a1.2,1.2,0,0,1-.5-.5,1.3,1.3,0,0,1,.1-.6l.3-.4.4-.2a.8.8,0,0,1,.4-.4l.4-.4.3-.3.4-.3c0-.5-.1-.9-.1-1.3a5.2,5.2,0,0,1-.2-1.1c0-.3.1-.6.1-.9l.3-.8a1.6,1.6,0,0,1,.4-.7l.8-.5h.2v.2h-.1a1.4,1.4,0,0,0-.9.8,3.6,3.6,0,0,0-.4,1.1,6.6,6.6,0,0,0,.1,1.4c0,.5.1.9.1,1.3l1.3-1.1,1.4-1,1.8-1.1A6.8,6.8,0,0,1,206.7,74.9Zm-7.4,6.4a1.8,1.8,0,0,0,.5-.8,3.4,3.4,0,0,0,.1-1l-.3.3-.7.6-.6.6-.3.3v.2l.2.3c.1,0,.2.1.3,0l.5-.2Z" transform="translate(-86.1 -39.4)"/><path class="cls-1" d="M198.3,82.6H198a1,1,0,0,1-.7-.7,1,1,0,0,1,.1-.9c.1-.2.3-.3.4-.4l.3-.3a.8.8,0,0,0,.4-.4l.4-.3.7-.6c-.1-.3-.1-.7-.2-1a4.9,4.9,0,0,1-.1-1.2,2.8,2.8,0,0,1,.1-.9,2,2,0,0,1,.2-.9l.6-.8a1.6,1.6,0,0,1,.8-.6h.5l.2.3a.4.4,0,0,1,.1.3c0,.2-.2.3-.3.4a1,1,0,0,0-.8.6,2,2,0,0,0-.3,1.1v1.2a2,2,0,0,1,.1.7l.8-.7,1.4-1,1.8-1.1a9,9,0,0,1,2.1-.8h.5l.2.3a.6.6,0,0,1-.1.4q0,.2-.3.3a4.8,4.8,0,0,0-2,.7l-1.8,1.1-1.3,1-1.2,1a4.1,4.1,0,0,1-.1,1.1,1.6,1.6,0,0,1-.5,1.1c-.1.1-.2.3-.4.4l-.4.3-.6.2Zm1.1-2.2-.2.3-.7.6-.2.2h.1l.3-.2.4-.3h0C199.2,80.8,199.4,80.7,199.4,80.4Zm1.9-6.2Z" transform="translate(-86.1 -39.4)"/><path class="cls-1" d="M101.9,51.4V49c0-2.5-1.3-3.7-3.7-3.7H97c-2.5,0-3.7,1.6-3.7,4.9s1.2,4.9,3.7,4.9h1.2c6.5,0,9.8,3.2,9.8,9.8s-3.3,9.7-9.8,9.7H97c-6.5,0-9.8-2.8-9.8-8.5V64.9l6.1-1.3v2.5c0,2.4,1.2,3.6,3.7,3.6h1.2c2.4,0,3.7-1.6,3.7-4.8S100.6,60,98.2,60H97c-6.5,0-9.8-3.3-9.8-9.8s3.3-9.8,9.8-9.8h1.2c6.5,0,9.8,2.9,9.8,8.6v1.2Z" transform="translate(-86.1 -39.4)"/><path class="cls-2" d="M148.1,49.7v3.4h0l-.5-.2a3.4,3.4,0,0,1-.6-.6,2.4,2.4,0,0,1-.2-.9,1.7,1.7,0,0,1,.3-1,1,1,0,0,1,.6-.5Z" transform="translate(-86.1 -39.4)"/><path class="cls-2" d="M129.9,57.5v.3c0,.1,0,.2-.1.2v.3a.3.3,0,0,1-.1.2c0,.1-.1.2-.2.3V56.3c.1.1.2.2.2.3s.1.1.1.2.1.1.1.2a.4.4,0,0,1,.1.3Z" transform="translate(-86.1 -39.4)"/><path class="cls-2" d="M148.1,55.9v3.3l-.4-.2a1,1,0,0,1-.6-.5,1.7,1.7,0,0,1-.3-1,1.4,1.4,0,0,1,.3-.9c.1-.3.3-.4.5-.6Z" transform="translate(-86.1 -39.4)"/><path class="cls-3" d="M148.5,61.3a2,2,0,0,0-1.3.4c-.2,0-.3.2-.5.3H129.9l-.4-.3a2,2,0,0,0-1.3-.4,2.4,2.4,0,0,0-2.4,2.4,2.4,2.4,0,0,0,2.4,2.4,1.8,1.8,0,0,0,1.3-.4l.5-.3h16.7l.4.3a2.3,2.3,0,0,0,1.4.4,2.4,2.4,0,0,0,2.4-2.4A2.4,2.4,0,0,0,148.5,61.3Zm-19.1,4.1a1.9,1.9,0,0,1-.8.3h-.4a2,2,0,0,1-2-2,2,2,0,0,1,2-2.1h.4a1.1,1.1,0,0,1,.8.3c.1.1.2.1.2.2a.7.7,0,0,1,.4.5.3.3,0,0,1,.1.2.4.4,0,0,1,.1.3.7.7,0,0,1,.1.5,1.6,1.6,0,0,1-.3.9c0,.2-.2.4-.4.6Zm19.1.3h-.4a1.9,1.9,0,0,1-.8-.3l-.3-.2-.4-.6a2.9,2.9,0,0,1-.2-.9,3,3,0,0,1,.2-1l.4-.5.3-.2a1.1,1.1,0,0,1,.8-.3h.4a2,2,0,0,1,2,2.1A2,2,0,0,1,148.5,65.7Z" transform="translate(-86.1 -39.4)"/><path class="cls-2" d="M129.9,63.7a1.4,1.4,0,0,1-.3.9c0,.1-.1.2-.2.3V62.4c.1.1.2.2.2.3A1.7,1.7,0,0,1,129.9,63.7Z" transform="translate(-86.1 -39.4)"/><path class="cls-2" d="M148.1,62v3.4h0l-.5-.2a3.4,3.4,0,0,1-.6-.6,2.4,2.4,0,0,1-.2-.9,1.7,1.7,0,0,1,.3-1,1,1,0,0,1,.6-.5Z" transform="translate(-86.1 -39.4)"/><path class="cls-1" d="M129.9,57.5v.3c0,.1,0,.2-.1.2v.3a.3.3,0,0,1-.1.2c0,.1-.1.2-.2.3l-.4.2a1.1,1.1,0,0,1-.8.2,1.7,1.7,0,0,1-1.7-1.7,1.8,1.8,0,0,1,1.7-1.7l.8.2.4.3c.1.1.2.2.2.3s.1.1.1.2.1.1.1.2a.4.4,0,0,1,.1.3Z" transform="translate(-86.1 -39.4)"/><path class="cls-1" d="M129.9,63.7a1.4,1.4,0,0,1-.3.9c0,.1-.1.2-.2.3l-.4.3-.8.2a1.8,1.8,0,0,1-1.7-1.7,1.7,1.7,0,0,1,1.7-1.7,1.1,1.1,0,0,1,.8.2l.4.2c.1.1.2.2.2.3A1.7,1.7,0,0,1,129.9,63.7Z" transform="translate(-86.1 -39.4)"/><path class="cls-1" d="M150.2,51.4a1.8,1.8,0,0,1-1.7,1.7h-.4l-.5-.2a3.4,3.4,0,0,1-.6-.6,2.4,2.4,0,0,1-.2-.9,1.7,1.7,0,0,1,.3-1,1,1,0,0,1,.6-.5l.4-.2h.4A1.7,1.7,0,0,1,150.2,51.4Z" transform="translate(-86.1 -39.4)"/><path class="cls-3" d="M148.5,49a2.5,2.5,0,0,0-1.3.3l-.5.4H129.9l-.4-.4h-1.3a2.3,2.3,0,0,0-1.7.7l-.3.3c-.1.2-.2.3-.2.4a.9.9,0,0,0-.1.5.7.7,0,0,0-.1.5.9.9,0,0,0,.1.5.6.6,0,0,0,.1.4.5.5,0,0,0,.2.4l.3.4a2.8,2.8,0,0,0,1.7.7h.7c.2-.1.4-.1.6-.3l.5-.3h16.7l.4.3a2.3,2.3,0,0,0,1.4.4,2.4,2.4,0,0,0,2.4-2.4A2.4,2.4,0,0,0,148.5,49Zm-20.3,4.4a2,2,0,0,1-2-2,2.1,2.1,0,0,1,2-2.1,2.2,2.2,0,0,1,2.1,2.1A2.1,2.1,0,0,1,128.2,53.4Zm20.3,0h-.4a1.9,1.9,0,0,1-.8-.3l-.3-.2-.4-.6a2.9,2.9,0,0,1-.2-.9,1.7,1.7,0,0,1,.3-1,.7.7,0,0,1,.4-.5.2.2,0,0,1,.2-.2l.8-.4h.4a2.1,2.1,0,0,1,2,2.1A2,2,0,0,1,148.5,53.4Z" transform="translate(-86.1 -39.4)"/><path class="cls-1" d="M129.9,51.4a1.7,1.7,0,0,1-1.7,1.7,1.8,1.8,0,0,1-1.7-1.7,1.7,1.7,0,0,1,1.7-1.7A1.6,1.6,0,0,1,129.9,51.4Z" transform="translate(-86.1 -39.4)"/><path class="cls-1" d="M150.2,57.5a1.7,1.7,0,0,1-1.7,1.7h-.4l-.4-.2a1,1,0,0,1-.6-.5,1.7,1.7,0,0,1-.3-1,1.4,1.4,0,0,1,.3-.9c.1-.3.3-.4.5-.6h.9A1.8,1.8,0,0,1,150.2,57.5Z" transform="translate(-86.1 -39.4)"/><path class="cls-3" d="M148.5,55.1a2.5,2.5,0,0,0-1.3.4l-.5.3H129.9l-.4-.3a2.8,2.8,0,0,0-1.3-.4,2.5,2.5,0,0,0,0,4.9,2.8,2.8,0,0,0,1.3-.4l.5-.4h16.7l.4.4a3.3,3.3,0,0,0,1.4.4,2.5,2.5,0,0,0,0-4.9Zm-19.1,4.1-.8.4h-.4a2,2,0,0,1-2-2.1,2,2,0,0,1,2-2h.8l.4.2.2.2.3.3c0,.1.1.1.1.2h0a1.6,1.6,0,0,1,.3.9.7.7,0,0,1-.1.5c0,.2-.1.3-.2.5s-.1.2-.1.3l-.3.2A.2.2,0,0,1,129.4,59.2Zm19.1.4h-.4a2,2,0,0,1-.8-.4.2.2,0,0,1-.2-.2,1.2,1.2,0,0,1-.5-.5,3,3,0,0,1-.2-1,1.6,1.6,0,0,1,.3-.9c0-.2.2-.4.3-.6l.3-.2.8-.3h.4a2,2,0,0,1,2,2A2,2,0,0,1,148.5,59.6Z" transform="translate(-86.1 -39.4)"/><path class="cls-4" d="M130,56.6h0c0-.1-.1-.1-.1-.2l-.3-.3-.2-.2-.4-.2h-.8a2,2,0,0,0-2,2,2,2,0,0,0,2,2.1h.4l.8-.4a.2.2,0,0,0,.2-.2l.3-.2c0-.1.1-.2.1-.3s.2-.3.2-.5a.7.7,0,0,0,.1-.5A1.6,1.6,0,0,0,130,56.6Zm-.6,2.2-.4.2a1.1,1.1,0,0,1-.8.2,1.7,1.7,0,0,1-1.7-1.7,1.8,1.8,0,0,1,1.7-1.7l.8.2.4.3c.1.1.2.2.2.3s.1.1.1.2a.3.3,0,0,1,.1.2.4.4,0,0,1,.1.3v.5c0,.1,0,.2-.1.2a.4.4,0,0,1-.1.3.3.3,0,0,1-.1.2C129.6,58.6,129.5,58.7,129.4,58.8Z" transform="translate(-86.1 -39.4)"/><path class="cls-1" d="M150.2,63.7a1.8,1.8,0,0,1-1.7,1.7h-.4l-.5-.2a3.4,3.4,0,0,1-.6-.6,2.4,2.4,0,0,1-.2-.9,1.7,1.7,0,0,1,.3-1,1,1,0,0,1,.6-.5l.4-.2h.4A1.7,1.7,0,0,1,150.2,63.7Z" transform="translate(-86.1 -39.4)"/></svg>