<svg id="Layer_1" data-name="Layer 1" xmlns="http://www.w3.org/2000/svg" viewBox="0 0 94.3 88.2"><defs><style>.cls-1{fill:#dcecf7;}.cls-2{fill:#fff;}</style></defs><title>zaki</title><path class="cls-1" d="M132.9,57.5h-1a4.6,4.6,0,0,1-4.7-4.6v-.4h0l1.4-20L121.2,34l7.5,36.6a7.3,7.3,0,0,0,5.2,5.5A105.5,105.5,0,0,1,132.9,57.5Zm-3.6-40.9a7.3,7.3,0,0,0-9.5,3.4,6.7,6.7,0,0,0-.5,4.6l.8,4a5.8,5.8,0,0,1,2.2-.8l6.8-1.4h.9a4.8,4.8,0,0,1,4.8,4.7v.2c0,.1-.1.1-.1.2l-.9,12.3h.2l.8-.2c2.4-9.7,6.6-15.7,10.5-19.4Zm4,34.7h.1a7.6,7.6,0,0,1,.1-1.5h-.1Z" transform="translate(-98.7 -16)"/><path class="cls-2" d="M160,30.8h-.4l-12.8,2.6a8.4,8.4,0,0,0-6.6,7.5l15.9-3.2a2.3,2.3,0,0,1,2.8,1.7v.7l-.4,6.1-25.1,5.1a7.6,7.6,0,0,1,.1-1.5l19-3.9a4.7,4.7,0,0,0-4.4-5h-1.3l-12,2.5c2.4-9.7,6.6-15.8,10.5-19.5Z" transform="translate(-98.7 -16)"/><path class="cls-2" d="M154,60.5,140.9,74.2a7.1,7.1,0,0,1-7.1,1.9,105,105,0,0,1-.9-18.6h0l4.2-.9a5.8,5.8,0,0,0-4.2,4.6c-.2,2,1.1,3.4,3,3a5.7,5.7,0,0,0,4.2-4.5c.3-2.1-1-3.5-3-3.1l18.5-3.8a5.9,5.9,0,0,0-4.1,4.6C151.2,59.3,152.3,60.7,154,60.5Z" transform="translate(-98.7 -16)"/><path class="cls-2" d="M168.7,45.3,158.6,55.8a2.5,2.5,0,0,0-3-3l2.4-.5h.1a8.1,8.1,0,0,0,6.4-6.7,1.6,1.6,0,0,0,0-.7h0l.7-9.1h0a6.1,6.1,0,0,0-.1-1.4,3.4,3.4,0,0,0-.6-1.5l2,.9a7.1,7.1,0,0,1,3.5,9.5A6.9,6.9,0,0,1,168.7,45.3Z" transform="translate(-98.7 -16)"/><path class="cls-2" d="M112.9,89.2l-2.4.8a8,8,0,0,1,1.7,4.4,4.1,4.1,0,0,1-.3,1.6c-.4.3-1.5.4-3.3.4a8.1,8.1,0,0,1-.1,2.2,9.2,9.2,0,0,1-2.9,1.7,9.5,9.5,0,0,1-2.9.7,4.8,4.8,0,0,1-2.9-.9,3.7,3.7,0,0,1-1.1-2.9,11.2,11.2,0,0,1,1.1-4.7l2.3.8a9.4,9.4,0,0,0-.7,3,1.9,1.9,0,0,0,.4,1.2,2,2,0,0,0,1.3.4,6.8,6.8,0,0,0,3.3-1.1,8.7,8.7,0,0,0-2.6-1.6l.8-2.3,2.2.4h2.8a8.4,8.4,0,0,0-2.3-2.3V88.3l5.4-2,.2.2ZM105,102a1.1,1.1,0,0,1,.6.6,1.1,1.1,0,0,1-.3.8l-.7.8-.9-.5a1.2,1.2,0,0,1-.6-.6l-.5.7-.4.4-1-.5-.7-.7a2.4,2.4,0,0,1,.6-.9,1.1,1.1,0,0,1,.6-.6l.9.4.6.6.5-.7.4-.3A1.3,1.3,0,0,1,105,102Z" transform="translate(-98.7 -16)"/><path class="cls-2" d="M113.9,96.5c0-.9.1-1.8.1-2.8s-.1-4.1-.3-6.6l2.8-.2c.1,2.2.2,4.2.2,6.2a19.6,19.6,0,0,1-.1,3,1.9,1.9,0,0,1-1,.3l-1.6.2Z" transform="translate(-98.7 -16)"/><path class="cls-2" d="M117.5,100.1l-1.1-1a25.4,25.4,0,0,0,1.6-2.8,23.7,23.7,0,0,0,1.3-3.4l2.4.7a15.8,15.8,0,0,1-1.1,3.7,10.9,10.9,0,0,1-.9,2.3l-.7,1.3Zm1.5-8.6-.8-.7.3-.6.5-.7a.7.7,0,0,1,.5-.4l.5.2.7.5.4.5a1.8,1.8,0,0,1-.4.9l-.8.8Z" transform="translate(-98.7 -16)"/><path class="cls-2" d="M137.8,93.8a3.7,3.7,0,0,1,.1,1.1,5.7,5.7,0,0,1-.1,1.3c-.1.2-.1.3-.3.3l-1.5-.2a2.4,2.4,0,0,1-1-1h-.2c-.5.9-2.2,1.4-4.9,1.4l-2.3-.2-2.4-.2a28.7,28.7,0,0,1,.5-3.1,35.5,35.5,0,0,0,4.6.3h2.4a3.7,3.7,0,0,0,1.4-.7,2.3,2.3,0,0,0,.6-1.2h1.4a1.7,1.7,0,0,0,.3,1.4,1.6,1.6,0,0,0,1.1.5C137.7,93.4,137.7,93.5,137.8,93.8Zm-5.4-2.4a1.8,1.8,0,0,1-.7.8l-.7-.5a2.4,2.4,0,0,1-.8-.6l-.5.7-.4.4-.8-.5-.8-.7a4.1,4.1,0,0,1,.5-.9c.3-.4.5-.6.7-.6a2,2,0,0,1,.8.4l.7.6.5-.7.4-.3a1.6,1.6,0,0,1,.9.5l.6.5C132.9,90.7,132.7,91,132.4,91.4Z" transform="translate(-98.7 -16)"/><path class="cls-2" d="M144.3,89.4,142,90a7.6,7.6,0,0,1,1.4,4.3,2.7,2.7,0,0,1,0,.9,1.1,1.1,0,0,1-.3.8l-2.5.4h-3.1c-.2,0-.4-.1-.4-.3s-.1-.7-.1-1.3a4.5,4.5,0,0,1,.1-1.1c.1-.3.1-.4.4-.4h3.4a8,8,0,0,0-2.3-2.2V88.4l5.4-2,.3.2Z" transform="translate(-98.7 -16)"/><path class="cls-2" d="M144.2,100.1l-1.2-1a15.6,15.6,0,0,0,1.6-2.8,15.8,15.8,0,0,0,1.3-3.4l2.4.7a22.4,22.4,0,0,1-1,3.7l-1,2.3a5.4,5.4,0,0,0-.7,1.3Z" transform="translate(-98.7 -16)"/><path class="cls-2" d="M153.2,93.8a3.7,3.7,0,0,1,.1,1.1,5.7,5.7,0,0,1-.1,1.3q-.1.3-.3.3h-1.8l-1.5-.4a54.1,54.1,0,0,1-.3-5.5V87.1l2.8-.2c0,1.7.1,3.2.1,4.7a9.7,9.7,0,0,1-.1,1.7h.9C153.2,93.3,153.3,93.6,153.2,93.8Z" transform="translate(-98.7 -16)"/><path class="cls-2" d="M159.7,90.5a3.5,3.5,0,0,1,.8,1.3,4.8,4.8,0,0,1-.3,4,1.9,1.9,0,0,1-1.5.9l-1.4-.4a5,5,0,0,1-1.4-1,4.2,4.2,0,0,1-1.4.9,4.1,4.1,0,0,1-1.6.3.3.3,0,0,1-.3-.3,3,3,0,0,1-.2-1.3c0-.5.1-.9.1-1.1a.4.4,0,0,1,.4-.4,3.1,3.1,0,0,0,2.2-.9l.9-.9a5.7,5.7,0,0,1,1.1-1.1,1.9,1.9,0,0,1,1.2-.4A3.3,3.3,0,0,1,159.7,90.5Zm-.6,3.2.3-.2c0-.2-.1-.4-.3-.4l-.8-.2a2.3,2.3,0,0,0-1.4.4c.3.1.5.3.8.3h1.4Z" transform="translate(-98.7 -16)"/><path class="cls-2" d="M169.4,93.8a3.7,3.7,0,0,1,.1,1.1,5.7,5.7,0,0,1-.1,1.3c-.1.2-.1.3-.3.3h-1.3l-.9,2.2a6.4,6.4,0,0,1-.8,1.4l-.4.9a6,6,0,0,1-1.5-.9,4.4,4.4,0,0,1-1.1-.9,15.9,15.9,0,0,0,1.8-2.7,13,13,0,0,0,1.4-3.2h.2l1.4.2h1.2C169.3,93.4,169.3,93.5,169.4,93.8Z" transform="translate(-98.7 -16)"/><path class="cls-2" d="M173.2,92.9c-.1.6-.1,1.2-.2,1.8a6.9,6.9,0,0,1-.5,1.3,13.3,13.3,0,0,1-3.4.5c-.2,0-.3-.1-.4-.3a5.7,5.7,0,0,1-.1-1.3,3.7,3.7,0,0,1,.1-1.1c.1-.3.2-.4.4-.4l1.6-.2a12.7,12.7,0,0,0-.6-1.8l2.7-.7A5.7,5.7,0,0,1,173.2,92.9Zm-2.4,5,.8.5.3.4c.1.2-.1.5-.3.9a3.8,3.8,0,0,1-.8.9l-1-.5a2.7,2.7,0,0,1-.7-.8,1.4,1.4,0,0,1,.2-.6,1.5,1.5,0,0,1,.5-.6c.2-.3.4-.4.5-.4A.8.8,0,0,1,170.8,97.9Z" transform="translate(-98.7 -16)"/><path class="cls-2" d="M180.7,93.8a3.7,3.7,0,0,1,.1,1.1,5.7,5.7,0,0,1-.1,1.3q-.1.3-.3.3H179a24.4,24.4,0,0,1-1,2.4,13.9,13.9,0,0,1-1.5,1.9l-1.3-.7a5.8,5.8,0,0,1-1.2-1h.1l.2-.2a13.3,13.3,0,0,0,2.1-2.6,3.8,3.8,0,0,1-1.7-.8,2.3,2.3,0,0,1-.6-1.6,3.2,3.2,0,0,1,.4-1.6,5.8,5.8,0,0,1,1.1-1.5,3.5,3.5,0,0,1,1.4-.6,2.4,2.4,0,0,1,1.4.5,8.3,8.3,0,0,1,.8,1.2,4.5,4.5,0,0,1,.3,1.6h.9Q180.6,93.4,180.7,93.8Zm-4.1-.4H178a1.8,1.8,0,0,0-.7-.5,1.3,1.3,0,0,0-.8-.3l-.5.2-.2.3C175.9,93.3,176.1,93.4,176.6,93.4Z" transform="translate(-98.7 -16)"/><path class="cls-2" d="M192.9,92.9a5.5,5.5,0,0,1-.1,1.8,5,5,0,0,1-.5,1.3,4.6,4.6,0,0,1-2.3.6,3.5,3.5,0,0,1-1.4-.3,3.2,3.2,0,0,1-1-1h-.1a3.2,3.2,0,0,1-1,1,2.8,2.8,0,0,1-1.3.3l-1.2-.3a1.8,1.8,0,0,1-.9-1h-.2a2.6,2.6,0,0,1-1.1,1l-1.4.2c-.2,0-.4-.1-.4-.3a2.9,2.9,0,0,1-.1-1.3V93.8c0-.3.3-.4.5-.4h1.1l.8-.5a2.1,2.1,0,0,0,.5-1.3h1.4c.1,1.3.5,1.9,1.3,1.9a1.3,1.3,0,0,0,1-.4,2.5,2.5,0,0,0,.6-1.4l1.4.2v.5a1.1,1.1,0,0,0,1.1,1.2,1.5,1.5,0,0,0,.9-.2,5.3,5.3,0,0,0-.3-1.2,1.9,1.9,0,0,1-.2-.7l2.6-.7A7.6,7.6,0,0,1,192.9,92.9Z" transform="translate(-98.7 -16)"/></svg>