<svg id="Layer_1" data-name="Layer 1" xmlns="http://www.w3.org/2000/svg" viewBox="0 0 124.5 79.4"><defs><style>.cls-1{fill:#fff;}</style></defs><title>zara</title><path class="cls-1" d="M152,17.6a29.1,29.1,0,1,0,28.9,29.1A29.1,29.1,0,0,0,152,17.6Zm0,57a28,28,0,1,1,27.9-27.9A27.9,27.9,0,0,1,152,74.6Zm0-55.4a27.5,27.5,0,1,0,27.4,27.5A27.5,27.5,0,0,0,152,19.2Zm-14.2,7.3h1.6c.6,1.4,1.3,1.3,3.1,1.3h24.2l.5,1-6,8.5h-3.6v2h.6l1.4.2-3.7,5.4h4.8V41.3c0-2.3-.3-2.4-2.4-2.6v-.8h7.2v.8c-2.3.2-2.5.3-2.5,2.6V52.1c0,2.2.3,2.3,2.5,2.5v.8h-7.2v-.8c2.2-.2,2.4-.3,2.4-2.5V45.5H149.4l.4-.6L160,30.2H148.2c-5.3,0-6.2.4-7.5,2.3a20.2,20.2,0,0,0-2.2,4.8.3.3,0,0,1-.1.2h-1.7C137,34.3,137.7,29.1,137.8,26.5Zm28.8,40.3H135.5l-.6-.9L142,56h4.3V54.1h-.6a4,4,0,0,1-1.6-.4c-.1,0-.1-.2-.1-.4l4.1-5.9h-4.8v4.8c0,2.2.2,2.3,2.4,2.5v.8h-7.2v-.8c2.2-.2,2.4-.3,2.4-2.5V41.3c0-2.3-.2-2.4-2.4-2.6v-.8h7.2v.8c-2.2.2-2.4.3-2.4,2.6v5.4h11.3l-.4.6c-3.9,5.6-7.8,11.2-11.7,17h9.8c7.9,0,9.7-.3,11.4-2.1a23.9,23.9,0,0,0,3.6-6.1l1.8.4Z" transform="translate(-89.7 -17.6)"/><path class="cls-1" d="M152,17.6a29.1,29.1,0,1,0,28.9,29.1A29.1,29.1,0,0,0,152,17.6Zm0,57a28,28,0,1,1,27.9-27.9A27.9,27.9,0,0,1,152,74.6Z" transform="translate(-89.7 -17.6)"/><path class="cls-1" d="M89.7,85.8h10.5v.6h-.1L92.5,96h7.6v.8H89.7v-.7h.1l7.7-9.6H89.7Z" transform="translate(-89.7 -17.6)"/><path class="cls-1" d="M106.7,85.1,112,96.8h-2.2l-1.1-2.3h-5.8l-1.1,2.3H101Zm1.7,8.7-2.5-5.4-2.6,5.4Z" transform="translate(-89.7 -17.6)"/><path class="cls-1" d="M121.4,96.7h.1v.2h-1.1l-.7-.3-.6-.4H119a4,4,0,0,1-2.8,1,3.2,3.2,0,0,1-1.4-.3,1.8,1.8,0,0,1-1-.9,2,2,0,0,1-.4-1.3,2.6,2.6,0,0,1,2-2.4l-.2-.4a2.5,2.5,0,0,1-.4-.7,2.2,2.2,0,0,1-.1-.8,2,2,0,0,1,.5-1.4,2.1,2.1,0,0,1,1.6-.5,2.4,2.4,0,0,1,1.5.4,1.4,1.4,0,0,1,.6,1.1,1.8,1.8,0,0,1-.6,1.4,3.8,3.8,0,0,1-1.5.9,29.6,29.6,0,0,0,2.4,2.6,2.7,2.7,0,0,0,.3-1.2h0a1,1,0,0,0-.1-.8l-.2-.3h-.3v-.2h1.3v1.2a4.1,4.1,0,0,1-.3,1.6.8.8,0,0,1-.2.5,4.7,4.7,0,0,0,1.7,1.4ZM115,93.2a2.6,2.6,0,0,0,0,2,1.6,1.6,0,0,0,.7.7,2,2,0,0,0,1.1.3,1.3,1.3,0,0,0,.9-.2c.2,0,.4-.2.7-.4l-1-1a14,14,0,0,1-1.7-2Zm2.5-2.3a1.2,1.2,0,0,0,.4-1,.9.9,0,0,0-.3-.7,1.2,1.2,0,0,0-.9-.3.9.9,0,0,0-.7.3.8.8,0,0,0-.3.7,1.3,1.3,0,0,0,.3.7,2.9,2.9,0,0,0,.6,1A1.5,1.5,0,0,0,117.5,90.9Z" transform="translate(-89.7 -17.6)"/><path class="cls-1" d="M131.3,95.4a4,4,0,0,0,1.5,1.1h.1v.3h-1.8a3.1,3.1,0,0,1-2.2-.9l-1.3-1.3a2.1,2.1,0,0,0-1.6-.7h-1v2.9h-2v-11h5.8a3.9,3.9,0,0,1,2.5.8l.8.8a4.1,4.1,0,0,1,.8,2.4,3.7,3.7,0,0,1-.6,2.1,4,4,0,0,1-1.4,1.5l-1.1.4h-.2l.7.5Zm-3.8-8.9H125v6.6h2.6l1.1-.2.5-.3a3.4,3.4,0,0,0,1.2-1.2,2.7,2.7,0,0,0,.4-1.6,2.9,2.9,0,0,0-.4-1.6,2.5,2.5,0,0,0-1.1-1.2A3.5,3.5,0,0,0,127.5,86.5Z" transform="translate(-89.7 -17.6)"/><path class="cls-1" d="M139.1,85.1l5.4,11.7h-2.3l-1.1-2.3h-5.7l-1.1,2.3h-.9Zm1.7,8.7-2.5-5.4-2.6,5.4Z" transform="translate(-89.7 -17.6)"/><path class="cls-1" d="M166.6,85.8h2.1v11h-2.1v-6h-7.7v6h-2v-11h2v4.3h7.7Z" transform="translate(-89.7 -17.6)"/><path class="cls-1" d="M181.2,88.5a6.4,6.4,0,0,1,.6,2.8,5.5,5.5,0,0,1-.7,2.8,5.2,5.2,0,0,1-1.9,2,7.2,7.2,0,0,1-6.2,0,5.2,5.2,0,0,1-1.9-2,6,6,0,0,1,0-5.6,4.6,4.6,0,0,1,1.9-2,6.4,6.4,0,0,1,6.2,0A4.8,4.8,0,0,1,181.2,88.5Zm-3,6.9a4.5,4.5,0,0,0,1.3-1.7,7.4,7.4,0,0,0,0-4.8,4.9,4.9,0,0,0-1.3-1.8,3.7,3.7,0,0,0-2.1-.6,3.2,3.2,0,0,0-2,.6,3.4,3.4,0,0,0-1.3,1.8,6,6,0,0,0,0,4.8,3.1,3.1,0,0,0,1.3,1.7,3.2,3.2,0,0,0,2,.7A3.8,3.8,0,0,0,178.2,95.4Z" transform="translate(-89.7 -17.6)"/><path class="cls-1" d="M192.4,85.8h.8v6.7a4.1,4.1,0,0,1-1.2,3.1,4.6,4.6,0,0,1-3.6,1.2,6.7,6.7,0,0,1-2.6-.5,4,4,0,0,1-1.7-1.4,3.3,3.3,0,0,1-.6-1.9V85.8h2.1v6.9a6.1,6.1,0,0,0,.2,1.5,2.9,2.9,0,0,0,.6,1l.8.6.8.2h.6a4.2,4.2,0,0,0,2-.5,2.4,2.4,0,0,0,1.3-1.1,3.4,3.4,0,0,0,.5-1.7Z" transform="translate(-89.7 -17.6)"/><path class="cls-1" d="M203.5,92.3a1.8,1.8,0,0,1,.5,1.6,2,2,0,0,1-.6,1.5,5,5,0,0,1-1.7,1.1,6.1,6.1,0,0,1-2.4.4,5.5,5.5,0,0,1-2.4-.4,2.5,2.5,0,0,1-1.2-.8,4.4,4.4,0,0,1-.8-1.1v-.2h1v.2l.2.2.3.3c.1.1.2.3.4.4l.6.3a4,4,0,0,0,2,.4,4.9,4.9,0,0,0,2.3-.5l.4-.4c.2-.1.2-.3.3-.4a.7.7,0,0,0,.1-.5,1.1,1.1,0,0,0-.3-.8l-1-.6-1.7-.7-2.3-.8-1.4-1.1a2.2,2.2,0,0,1-.7-1.7,2.5,2.5,0,0,1,.6-1.6,3.8,3.8,0,0,1,1.6-1.1,5.3,5.3,0,0,1,2.3-.4,4.2,4.2,0,0,1,2,.4l.8.5c.2.1.3.3.4.4l.3.5.2.3h0V88h-.8a2,2,0,0,0-.8-.8,3.2,3.2,0,0,0-2.2-.7,3.2,3.2,0,0,0-2,.6l-.5.4c-.1.2-.1.3-.2.4s-.1.3-.1.5a.9.9,0,0,0,.4.8,2.1,2.1,0,0,0,1,.6l1.7.7,2.3.8A4.2,4.2,0,0,1,203.5,92.3Z" transform="translate(-89.7 -17.6)"/><path class="cls-1" d="M214.2,86.5h-6.4v3.6h3.7v.7h-3.7V96h6.4v.8h-8.5v-11h8.5Z" transform="translate(-89.7 -17.6)"/></svg>