<?xml version="1.0" encoding="utf-8"?>
<!-- Generator: Adobe Illustrator 23.0.1, SVG Export Plug-In . SVG Version: 6.00 Build 0)  -->
<svg version="1.1" id="Layer_1" xmlns="http://www.w3.org/2000/svg" xmlns:xlink="http://www.w3.org/1999/xlink" x="0px" y="0px"
	 viewBox="0 0 300 120" style="enable-background:new 0 0 300 120;" xml:space="preserve">
<style type="text/css">
	.st0{fill:#FFFFFF;}
</style>
<g>
	<g>
		<g>
			<path class="st0" d="M149.66,92.73c-18.03,0-32.7-14.7-32.7-32.77s14.67-32.77,32.7-32.77s32.7,14.7,32.7,32.77
				S167.69,92.73,149.66,92.73z M149.66,28.24C132.2,28.24,118,42.47,118,59.96c0,17.49,14.2,31.72,31.65,31.72
				c17.45,0,31.65-14.23,31.65-31.72C181.31,42.47,167.11,28.24,149.66,28.24z"/>
		</g>
		<g>
			<path class="st0" d="M149.66,90.53c-16.82,0-30.51-13.71-30.51-30.57c0-16.86,13.69-30.57,30.51-30.57s30.51,13.71,30.51,30.57
				C180.17,76.81,166.48,90.53,149.66,90.53z M149.66,29.91c-16.53,0-29.98,13.48-29.98,30.04c0,16.57,13.45,30.04,29.98,30.04
				s29.98-13.48,29.98-30.04C179.64,43.39,166.19,29.91,149.66,29.91z"/>
		</g>
		<g>
			<g>
				<path class="st0" d="M156.54,50.41h7.86v0.82c-2.43,0.24-2.67,0.38-2.67,2.85v11.78c0,2.47,0.26,2.56,2.67,2.82v0.82h-7.86
					v-0.82c2.43-0.29,2.67-0.35,2.67-2.82v-7.11h-12.42l0.48-0.7c3.7-5.29,7.42-10.65,11.16-16.04h-12.9
					c-5.83,0-6.81,0.39-8.18,2.43c-0.63,0.83-1.57,2.88-2.4,5.27c-0.03,0.08-0.06,0.16-0.08,0.24l-0.65-0.02l-1.32-0.04
					c0.33-3.41,1.11-9.12,1.24-12.01h1.7c0.72,1.57,1.5,1.51,3.47,1.51h26.45l0.52,1.05c-2.2,3.09-4.38,6.18-6.56,9.27h-3.89v2.17
					l0.64,0.06c0.61,0.05,1.18,0.11,1.52,0.24c-1.37,1.96-2.74,3.91-4.11,5.88h5.32v-3.97c0-2.44-0.32-2.64-2.67-2.85V50.41z"/>
			</g>
			<g>
				<path class="st0" d="M168.31,70.81c-0.46,2.23-2.03,8.4-2.68,11.22h-34.05L131,80.98c2.57-3.56,5.14-7.15,7.71-10.78h4.73v-2.15
					l-0.62-0.08c-0.83-0.1-1.6-0.2-1.81-0.4c-0.07-0.07-0.12-0.22-0.15-0.42c1.52-2.14,3.03-4.3,4.55-6.47h-5.32v5.17
					c0,2.44,0.23,2.53,2.64,2.82v0.82h-7.83v-0.82c2.37-0.26,2.64-0.35,2.64-2.82V54.08c0-2.47-0.27-2.61-2.64-2.85v-0.82h7.83v0.82
					c-2.34,0.21-2.64,0.41-2.64,2.85v5.9h12.39l-0.44,0.7c-4.24,6.1-8.47,12.25-12.74,18.52c2.03,0.13,6.28,0.2,10.74,0.2
					c8.58,0,10.54-0.33,12.37-2.36c1.37-1.38,2.81-3.94,3.99-6.69L168.31,70.81z"/>
			</g>
		</g>
	</g>
	<g>
		<g>
			<path class="st0" d="M100.96,6.37c0.69,0.4,1.23,0.95,1.63,1.64c0.39,0.69,0.59,1.44,0.59,2.25c0,0.81-0.19,1.56-0.58,2.24
				c-0.39,0.68-0.92,1.23-1.59,1.63c-0.67,0.4-1.4,0.6-2.19,0.6h-4.27v3.16h-2.25V5.76h6.42C99.52,5.76,100.27,5.96,100.96,6.37z
				 M94.54,6.63v7.24h2.86c0.64-0.02,1.23-0.2,1.77-0.54c0.54-0.34,0.96-0.78,1.28-1.32c0.32-0.54,0.47-1.13,0.47-1.77
				c0-0.68-0.14-1.29-0.42-1.83c-0.28-0.54-0.7-0.98-1.25-1.31c-0.55-0.32-1.23-0.47-2.01-0.47H94.54z"/>
			<path class="st0" d="M108.98,5l5.87,12.87h-2.49l-1.15-2.51h-6.33l-1.2,2.51h-0.9L108.98,5z M110.84,14.55l-2.71-5.94l-2.84,5.94
				H110.84z"/>
			<path class="st0" d="M124.83,16.36c0.64,0.64,1.17,1.04,1.57,1.19l0.1,0.03v0.29h-0.17h-1.74c-0.95,0-1.76-0.33-2.44-1
				l-1.46-1.44c-0.49-0.47-1.06-0.71-1.73-0.71h-1.1v3.16h-2.25V5.76h6.42c0.99,0,1.9,0.3,2.71,0.92c0.33,0.25,0.62,0.54,0.86,0.86
				c0.6,0.81,0.9,1.71,0.9,2.7c0,0.81-0.19,1.56-0.58,2.25c-0.39,0.68-0.92,1.22-1.6,1.62c-0.37,0.23-0.76,0.39-1.17,0.49
				c-0.05,0.01-0.12,0.03-0.24,0.05c0.38,0.24,0.63,0.41,0.74,0.53L124.83,16.36z M120.56,6.63h-2.69v7.24h2.86
				c0.4-0.02,0.78-0.1,1.17-0.24c0.22-0.09,0.43-0.19,0.61-0.3c0.53-0.34,0.95-0.78,1.27-1.32c0.32-0.54,0.47-1.13,0.47-1.77
				c0-0.68-0.14-1.29-0.42-1.83c-0.28-0.54-0.7-0.98-1.25-1.31C122.02,6.79,121.35,6.63,120.56,6.63z"/>
			<path class="st0" d="M137.72,6.58h-7.08v3.95h4.08v0.81h-4.08v6.53h-2.25V5.76h9.33V6.58z"/>
			<path class="st0" d="M148.83,5.76h0.86v7.45c0,1.33-0.41,2.44-1.24,3.32c-0.84,0.89-2.18,1.34-4.03,1.34
				c-1.11,0-2.06-0.19-2.86-0.56c-0.81-0.38-1.42-0.89-1.84-1.53c-0.41-0.63-0.62-1.31-0.62-2.03V5.76h2.25v7.6
				c0,0.64,0.09,1.21,0.28,1.7s0.4,0.85,0.65,1.1c0.25,0.25,0.54,0.45,0.88,0.59c0.34,0.15,0.62,0.24,0.84,0.27
				c0.22,0.03,0.43,0.05,0.63,0.05c0.87,0,1.62-0.16,2.25-0.47c0.62-0.29,1.1-0.71,1.43-1.26c0.33-0.54,0.5-1.15,0.5-1.83V5.76z"/>
			<path class="st0" d="M163.94,5.76h2.1v12.11h-2.25V7.68l-5.47,9.36l-0.25,0.42l-0.05-0.49c0-0.07-0.04-0.2-0.13-0.41
				c-0.08-0.2-0.19-0.44-0.32-0.7c-0.13-0.27-0.26-0.51-0.38-0.72c-0.28-0.46-0.81-1.16-1.57-2.1c-0.25-0.31-0.43-0.53-0.54-0.66
				c-1.12-1.38-1.97-2.75-2.56-4.12v9.62h-0.85V6.17l-0.17-0.41h2.44l0.03,0.14c0.27,1.01,0.63,1.87,1.07,2.6
				c0.44,0.73,1.03,1.55,1.76,2.47l0.24,0.29c0.99,1.21,1.66,2.16,2.01,2.85L163.94,5.76z"/>
			<path class="st0" d="M177.2,6.58h-7.08v3.95h4.08v0.81h-4.08v5.72h7.08v0.81h-9.33V5.76h9.33V6.58z"/>
			<path class="st0" d="M195.55,15.5l0.07,0.07c0,0.06,0,0.13-0.01,0.21c-0.01,0.08-0.04,0.25-0.09,0.48
				c-0.06,0.24-0.14,0.46-0.24,0.68c-0.1,0.22-0.27,0.45-0.49,0.7s-0.49,0.45-0.8,0.61c-0.15,0.07-0.33,0.14-0.56,0.2
				c-0.23,0.07-0.51,0.13-0.85,0.19c-0.34,0.06-0.68,0.08-1.02,0.08c-0.54,0-1.04-0.07-1.51-0.2c-0.95-0.26-2.09-0.8-3.42-1.61
				c-0.21-0.14-0.36-0.23-0.44-0.27c-0.24-0.14-0.55-0.32-0.93-0.54c-0.38-0.24-0.68-0.41-0.88-0.52c-0.2-0.11-0.45-0.23-0.75-0.38
				c-0.3-0.15-0.58-0.25-0.86-0.32c-0.27-0.07-0.56-0.12-0.86-0.15h-0.42v3.16h-2.25V5.76h6.42c0.99,0,1.9,0.3,2.71,0.92
				c0.33,0.24,0.62,0.53,0.86,0.86c0.6,0.81,0.9,1.71,0.9,2.7c0,0.81-0.19,1.56-0.58,2.25s-0.92,1.22-1.6,1.62
				c-0.37,0.23-0.76,0.39-1.17,0.49c-0.06,0.01-0.14,0.03-0.24,0.05l-0.08,0.02c-0.05,0.01-0.11,0.02-0.2,0.02
				c0.36,0.17,0.9,0.45,1.63,0.83c1.18,0.62,2.12,1.05,2.81,1.27c0.49,0.16,0.96,0.25,1.41,0.29c0.46,0.03,0.85,0.01,1.18-0.07
				c0.33-0.08,0.6-0.16,0.79-0.24c0.19-0.08,0.36-0.16,0.49-0.24c0.38-0.24,0.66-0.49,0.83-0.76L195.55,15.5z M186.14,13.33
				c0.53-0.34,0.95-0.78,1.27-1.32c0.32-0.54,0.47-1.13,0.47-1.77c0-0.68-0.14-1.29-0.42-1.83c-0.28-0.54-0.7-0.98-1.25-1.31
				c-0.55-0.32-1.22-0.47-2.01-0.47h-2.69v7.24h2.86c0.4-0.02,0.78-0.11,1.17-0.25C185.75,13.53,185.96,13.43,186.14,13.33z
				 M195.09,14.65h-2.25V5.76h2.25V14.65z"/>
			<path class="st0" d="M206.99,6.58h-7.08v3.95h4.08v0.81h-4.08v5.72h7.08v0.81h-9.33V5.76h9.33V6.58z"/>
		</g>
		<g>
			<path class="st0" d="M81.59,102.72h11.39v0.74l-0.03,0.05l-8.32,10.4h8.29v0.86H81.59v-0.74l0.03-0.05l8.44-10.4h-8.47V102.72z"
				/>
			<path class="st0" d="M100.11,101.96l5.86,12.81h-2.48l-1.15-2.5h-6.31l-1.2,2.5h-0.89L100.11,101.96z M101.96,111.46l-2.7-5.91
				l-2.84,5.91H101.96z"/>
			<path class="st0" d="M116.26,114.63l0.01,0.08v0.23h-0.13c-0.35,0-0.71-0.06-1.06-0.18s-0.61-0.23-0.78-0.34
				c-0.17-0.1-0.38-0.25-0.63-0.42c-0.05-0.03-0.08-0.05-0.1-0.06c-0.81,0.71-1.82,1.06-3.03,1.06c-0.62,0-1.15-0.12-1.61-0.35
				c-0.46-0.24-0.82-0.56-1.07-0.98c-0.25-0.41-0.37-0.87-0.37-1.35c0-1.22,0.73-2.11,2.18-2.7l-0.25-0.38
				c-0.19-0.3-0.33-0.57-0.42-0.84c-0.09-0.27-0.14-0.54-0.14-0.8c0-0.7,0.21-1.23,0.62-1.6c0.41-0.35,0.98-0.53,1.7-0.53
				c0.69,0,1.25,0.15,1.67,0.46c0.43,0.31,0.65,0.73,0.65,1.24c0,0.57-0.22,1.08-0.67,1.51c-0.47,0.46-1,0.78-1.59,0.95
				c0.78,1.05,1.63,2.02,2.56,2.89c0.26-0.42,0.39-0.86,0.39-1.33v-0.16c0.01-0.35-0.03-0.62-0.11-0.81
				c-0.07-0.17-0.14-0.28-0.22-0.35c-0.08-0.06-0.17-0.11-0.29-0.15l-0.1-0.03v-0.3h1.39v1.39c0,0.6-0.08,1.16-0.24,1.68
				c-0.07,0.24-0.16,0.44-0.27,0.62c0.46,0.59,1.07,1.09,1.85,1.51L116.26,114.63z M109.26,110.85c-0.18,0.29-0.27,0.66-0.27,1.11
				c0,0.4,0.09,0.76,0.27,1.09c0.17,0.33,0.42,0.59,0.75,0.79c0.33,0.2,0.72,0.3,1.16,0.3c0.39,0,0.73-0.06,1.01-0.18
				c0.19-0.08,0.45-0.24,0.8-0.48c-0.41-0.4-0.78-0.75-1.09-1.05c-0.81-0.84-1.44-1.59-1.89-2.25
				C109.67,110.36,109.42,110.59,109.26,110.85z M111.98,108.38c0.25-0.31,0.38-0.68,0.38-1.09c0-0.35-0.11-0.64-0.33-0.85
				c-0.24-0.21-0.54-0.32-0.92-0.32c-0.33,0-0.59,0.1-0.8,0.3c-0.2,0.2-0.3,0.46-0.3,0.79c0,0.2,0.09,0.48,0.27,0.82
				c0.26,0.49,0.48,0.85,0.65,1.09C111.32,108.99,111.68,108.74,111.98,108.38z"/>
			<path class="st0" d="M127.09,113.27c0.64,0.64,1.16,1.04,1.57,1.18l0.1,0.03v0.29h-0.17h-1.74c-0.94,0-1.75-0.33-2.43-1
				l-1.45-1.44c-0.48-0.47-1.06-0.71-1.72-0.71h-1.1v3.14h-2.24v-12.05h6.4c0.99,0,1.89,0.3,2.7,0.91c0.33,0.25,0.61,0.53,0.86,0.86
				c0.6,0.81,0.89,1.7,0.89,2.68c0,0.81-0.19,1.56-0.58,2.24c-0.39,0.68-0.92,1.22-1.59,1.61c-0.37,0.23-0.76,0.39-1.16,0.49
				c-0.05,0.01-0.12,0.03-0.24,0.05c0.38,0.24,0.63,0.41,0.74,0.52L127.09,113.27z M122.84,103.58h-2.68v7.21h2.85
				c0.39-0.02,0.78-0.1,1.16-0.24c0.22-0.09,0.43-0.19,0.61-0.3c0.53-0.34,0.95-0.77,1.27-1.31c0.31-0.53,0.47-1.12,0.47-1.76
				c0-0.67-0.14-1.28-0.42-1.82c-0.28-0.54-0.7-0.97-1.25-1.3C124.3,103.74,123.63,103.58,122.84,103.58z"/>
			<path class="st0" d="M135.56,101.96l5.86,12.81h-2.48l-1.15-2.5h-6.31l-1.2,2.5h-0.9L135.56,101.96z M137.42,111.46l-2.7-5.91
				l-2.83,5.91H137.42z"/>
			<path class="st0" d="M165.67,102.72h2.26v12.05h-2.26v-6.5h-8.42v6.5H155v-12.05h2.24v4.74h8.42V102.72z"/>
			<path class="st0" d="M181.55,105.71c0.47,0.92,0.71,1.95,0.71,3.07c0,1.1-0.24,2.12-0.73,3.04c-0.48,0.92-1.2,1.66-2.14,2.2
				c-0.94,0.55-2.06,0.82-3.36,0.82c-1.32,0-2.44-0.27-3.37-0.81c-0.95-0.54-1.66-1.27-2.14-2.19c-0.47-0.92-0.71-1.94-0.71-3.06
				c0-1.12,0.24-2.15,0.71-3.07c0.48-0.92,1.19-1.66,2.13-2.2c0.94-0.55,2.07-0.82,3.38-0.82c1.32,0,2.45,0.27,3.39,0.82
				C180.37,104.05,181.08,104.78,181.55,105.71z M178.29,113.3c0.62-0.46,1.09-1.09,1.42-1.87c0.33-0.8,0.49-1.68,0.49-2.65
				c0-0.98-0.16-1.87-0.49-2.67c-0.33-0.79-0.8-1.41-1.42-1.87c-0.63-0.46-1.38-0.69-2.26-0.69c-0.88,0-1.63,0.23-2.24,0.69
				c-0.63,0.46-1.1,1.09-1.42,1.87c-0.33,0.8-0.49,1.69-0.49,2.67c0,0.97,0.16,1.85,0.49,2.65c0.31,0.78,0.79,1.4,1.42,1.87
				c0.62,0.45,1.37,0.67,2.25,0.67C176.92,113.97,177.67,113.75,178.29,113.3z"/>
			<path class="st0" d="M193.82,102.72h0.86v7.41c0,1.33-0.41,2.43-1.23,3.31c-0.83,0.89-2.17,1.33-4.02,1.33
				c-1.1,0-2.05-0.19-2.85-0.56c-0.81-0.38-1.42-0.89-1.83-1.52c-0.41-0.63-0.62-1.3-0.62-2.02v-7.95h2.24v7.56
				c0,0.64,0.09,1.2,0.28,1.69c0.19,0.48,0.4,0.85,0.65,1.1s0.54,0.44,0.88,0.59c0.34,0.15,0.62,0.24,0.84,0.27
				c0.22,0.03,0.43,0.05,0.63,0.05c0.87,0,1.61-0.16,2.24-0.47c0.62-0.29,1.09-0.71,1.43-1.25c0.33-0.54,0.5-1.15,0.5-1.82V102.72z"
				/>
			<path class="st0" d="M205.99,109.86c0.45,0.48,0.65,1.07,0.59,1.77c-0.05,0.61-0.3,1.16-0.76,1.67
				c-0.46,0.48-1.08,0.87-1.86,1.16c-0.76,0.29-1.62,0.44-2.57,0.44c-1.1,0-1.97-0.13-2.61-0.41c-0.54-0.24-0.98-0.52-1.33-0.86
				c-0.34-0.34-0.62-0.77-0.84-1.3l-0.1-0.22h1l0.03,0.1c0.01,0.02,0.03,0.06,0.06,0.11c0.03,0.05,0.09,0.14,0.18,0.27
				c0.09,0.13,0.19,0.25,0.3,0.37c0.11,0.12,0.26,0.25,0.46,0.39c0.19,0.14,0.4,0.26,0.62,0.36c0.56,0.25,1.31,0.37,2.25,0.37
				c1.02,0,1.84-0.19,2.45-0.56c0.21-0.14,0.38-0.27,0.51-0.4c0.13-0.13,0.23-0.27,0.3-0.43c0.07-0.16,0.11-0.34,0.12-0.54
				c0.02-0.33-0.09-0.61-0.35-0.84c-0.28-0.27-0.64-0.5-1.08-0.69c-0.45-0.2-1.08-0.44-1.89-0.73c-0.99-0.35-1.8-0.66-2.43-0.94
				c-0.64-0.3-1.19-0.69-1.64-1.16c-0.47-0.51-0.71-1.12-0.71-1.84c0-0.66,0.21-1.25,0.62-1.77c0.42-0.52,1-0.92,1.76-1.22
				c0.73-0.28,1.58-0.42,2.53-0.42c0.83,0,1.58,0.16,2.23,0.47c0.29,0.14,0.55,0.3,0.78,0.48c0.23,0.19,0.41,0.36,0.53,0.51
				c0.12,0.15,0.23,0.31,0.31,0.47c0.08,0.16,0.14,0.28,0.16,0.34c0.02,0.06,0.03,0.11,0.03,0.14l0.05,0.2h-0.89l-0.05-0.09
				c-0.2-0.39-0.47-0.7-0.81-0.93c-0.7-0.47-1.52-0.71-2.46-0.71c-0.91,0-1.64,0.22-2.19,0.66c-0.21,0.16-0.38,0.31-0.49,0.45
				c-0.11,0.14-0.2,0.29-0.25,0.44c-0.06,0.15-0.09,0.33-0.09,0.53c0,0.33,0.14,0.61,0.41,0.86c0.3,0.27,0.68,0.5,1.11,0.69
				c0.46,0.19,1.09,0.42,1.89,0.69c1.02,0.34,1.86,0.65,2.5,0.93C205.02,108.98,205.56,109.37,205.99,109.86z"/>
			<path class="st0" d="M217.72,103.53h-7.06v3.93h4.07v0.81h-4.07v5.69h7.06v0.81h-9.3v-12.05h9.3V103.53z"/>
		</g>
	</g>
</g>
</svg>
