<svg id="_x31_px" enable-background="new 0 0 24 24" height="512" viewBox="0 0 24 24" width="512" xmlns="http://www.w3.org/2000/svg"><g id="XMLID_1_"><path d="m19.5 18.997c.28 0 .5.23.5.5 0 .28-.22.5-.5.5h-.5v-1z"/><path d="m5 18.997h14v1h-14z"/><path d="m20 12.497v.66 6.34c0-.27-.22-.5-.5-.5h-.5v-6.5c0-.27-.23-.5-.5-.5h-2c-.28 0-.5-.22-.5-.5 0-.27.22-.5.5-.5h2c.83 0 1.5.68 1.5 1.5z"/><path d="m18.5 21.997h-4.01c-.12-.21-.23-.44-.31-.67-.07-.2-.27-.33-.47-.33h4.79c.27 0 .5-.22.5-.5v-.5h.5c.28 0 .5-.22.5-.5v1c0 .83-.67 1.5-1.5 1.5z"/><path d="m14 8.707v3.79c0 .28-.22.5-.5.5s-.5-.22-.5-.5v-3.79l.5-.5z"/><path d="m14.18 21.327c.08.23.19.46.31.67h-1.12c-.05-.11-.09-.22-.13-.33-.09-.26.04-.54.3-.64.06-.02.11-.03.17-.03.2 0 .4.13.47.33z"/><path d="m14 7.747v.96l-.5-.5-.5.5v-.96c0-.27.22-.5.5-.5s.5.23.5.5z"/><path d="m10.28 20.997h3.43c-.06 0-.11.01-.17.03-.26.1-.39.38-.3.64.04.11.08.22.13.33h-2.75c.05-.11.09-.23.13-.34.09-.26-.05-.54-.31-.63-.05-.02-.11-.03-.16-.03z"/><path d="m11.65 8.647 1.5-1.5c.19-.2.51-.2.7 0l1.5 1.5c.2.19.2.51 0 .71-.09.09-.22.14-.35.14s-.26-.05-.35-.14l-.65-.65v-.96c0-.27-.22-.5-.5-.5s-.5.23-.5.5v.96l-.65.65c-.19.19-.51.19-.7 0-.2-.2-.2-.52 0-.71z"/><path d="m11 14.297v.95c0 .28-.22.5-.5.5s-.5-.22-.5-.5v-.95l.5.5z"/><path d="m11 10.497v3.8l-.5.5-.5-.5v-3.8c0-.27.22-.5.5-.5s.5.23.5.5z"/><path d="m10.44 21.027c.26.09.4.37.31.63-.04.11-.08.23-.13.34h-1.11c.13-.21.22-.43.3-.66.07-.21.26-.34.47-.34.05 0 .11.01.16.03z"/><path d="m12.35 14.357-1.5 1.5c-.09.09-.22.14-.35.14s-.26-.05-.35-.14l-1.5-1.5c-.2-.2-.2-.51 0-.71.19-.19.51-.19.7 0l.65.65v.95c0 .28.22.5.5.5s.5-.22.5-.5v-.95l.64-.65c.2-.19.52-.19.71 0 .2.2.2.51 0 .71z"/><path d="m10.07 22.997h3.86c-.22-.31-.41-.65-.56-1h1.12c.22.41.51.8.86 1.15.15.14.19.36.11.54-.08.19-.26.31-.46.31h-6c-.2 0-.39-.12-.46-.31-.08-.18-.04-.4.11-.54.35-.36.64-.74.86-1.15h1.11c-.14.35-.32.68-.55 1z"/><path d="m5 18.997v1h-.5c-.28 0-.5-.22-.5-.5 0-.27.22-.5.5-.5z"/><path d="m5.5 11.997c-.28 0-.5.23-.5.5v6.5h-.5c-.28 0-.5.23-.5.5v-5.68-1.32c0-.82.67-1.5 1.5-1.5h2c.28 0 .5.23.5.5 0 .28-.22.5-.5.5z"/><path d="m5.5 20.997h4.78c-.21 0-.4.13-.47.34-.08.23-.17.45-.3.66h-4.01c-.83 0-1.5-.67-1.5-1.5v-1c0 .28.22.5.5.5h.5v.5c0 .28.22.5.5.5z"/><path d="m4.66 6.017c.69-3.46 3.77-6.02 7.34-6.02 2.8 0 5.38 1.58 6.65 4.05 3.02.31 5.35 2.88 5.35 5.95 0 1.25-.38 2.44-1.09 3.45-.16.23-.47.28-.7.12-.14-.1-.21-.25-.21-.41 0-.1.03-.2.09-.29.6-.83.91-1.83.91-2.87 0-2.64-2.06-4.83-4.7-4.98-.18-.01-.35-.12-.42-.29-1.06-2.26-3.37-3.73-5.88-3.73-3.22 0-5.98 2.4-6.43 5.57-.03.25-.24.43-.49.43-2.29 0-4.08 1.8-4.08 4 0 .93.31 1.8.89 2.51.07.09.11.2.11.31 0 .15-.06.29-.18.39-.1.08-.21.11-.32.11-.14 0-.29-.06-.39-.18-.73-.89-1.11-1.97-1.11-3.14 0-2.64 2.06-4.81 4.66-4.98z"/></g></svg>