<?xml version="1.0" encoding="iso-8859-1"?>
<!-- Generator: Adobe Illustrator 19.0.0, SVG Export Plug-In . SVG Version: 6.00 Build 0)  -->
<svg version="1.1" id="Capa_1" xmlns="http://www.w3.org/2000/svg" xmlns:xlink="http://www.w3.org/1999/xlink" x="0px" y="0px"
	 viewBox="0 0 512 512" style="enable-background:new 0 0 512 512;" xml:space="preserve">
<polygon style="fill:#FFFFFF;" points="322.4,504 189.6,504 203.2,444 308.8,444 "/>
<rect x="8" y="8" style="fill:#D3D7DA;" width="496" height="436"/>
<rect x="48" y="48" style="fill:#FFFFFF;" width="416" height="318.4"/>
<g>
	<rect x="182.4" y="395.2" style="fill:#193651;" width="16" height="16"/>
	<rect x="313.6" y="395.2" style="fill:#193651;" width="16" height="16"/>
	<path style="fill:#193651;" d="M512,452V0H0v452h192.8l-9.6,44H168v16h176v-16h-15.2l-9.6-44H512z M16,436V16h480v420H16z M312,496
		H200l9.6-44h93.6L312,496z"/>
</g>
<g>
	<path style="fill:#4FBF9F;" d="M407.2,293.6H296c-16.8,0-31.2-13.6-31.2-31.2l0,0c0-16.8,13.6-31.2,31.2-31.2h111.2
		c16.8,0,31.2,13.6,31.2,31.2l0,0C437.6,279.2,424,293.6,407.2,293.6z"/>
	<path style="fill:#4FBF9F;" d="M296,210.4h111.2c16.8,0,31.2-13.6,31.2-31.2l0,0c0-16.8-13.6-31.2-31.2-31.2H296
		c-16.8,0-31.2,13.6-31.2,31.2l0,0C264.8,196.8,279.2,210.4,296,210.4z"/>
	<path style="fill:#4FBF9F;" d="M296,128h111.2c16.8,0,31.2-13.6,31.2-31.2l0,0c0-16.8-13.6-31.2-31.2-31.2H296
		c-16.8,0-31.2,13.6-31.2,31.2l0,0C264.8,113.6,279.2,128,296,128z"/>
</g>
<rect x="224.8" y="316.8" style="fill:#FDBF5E;" width="212.8" height="16"/>
<rect x="74.4" y="316.8" style="fill:#F16051;" width="148" height="16"/>
<g>
	<circle style="fill:#193651;" cx="256" cy="403.2" r="16"/>
	<circle style="fill:#193651;" cx="302.4" cy="262.4" r="9.6"/>
	<circle style="fill:#193651;" cx="400.8" cy="180" r="9.6"/>
	<circle style="fill:#193651;" cx="400.8" cy="96.8" r="9.6"/>
	<circle style="fill:#193651;" cx="222.4" cy="324.8" r="16"/>
</g>
<path style="fill:#F16051;" d="M153.6,87.2c-37.6,0-68.8,30.4-68.8,68.8c0,37.6,30.4,68.8,68.8,68.8l0,0c37.6,0,68.8-30.4,68.8-68.8
	h-68.8V87.2z"/>
<path style="fill:#2EA2DB;" d="M174.4,66.4L174.4,66.4v68.8h68.8l0,0C243.2,96.8,212.8,66.4,174.4,66.4z"/>
<g>
</g>
<g>
</g>
<g>
</g>
<g>
</g>
<g>
</g>
<g>
</g>
<g>
</g>
<g>
</g>
<g>
</g>
<g>
</g>
<g>
</g>
<g>
</g>
<g>
</g>
<g>
</g>
<g>
</g>
</svg>
