<?xml version="1.0" encoding="utf-8"?>
<!-- Generator: Adobe Illustrator 23.0.1, SVG Export Plug-In . SVG Version: 6.00 Build 0)  -->
<svg version="1.1" id="Layer_1" xmlns="http://www.w3.org/2000/svg" xmlns:xlink="http://www.w3.org/1999/xlink" x="0px" y="0px"
	 viewBox="0 0 25 25" style="enable-background:new 0 0 25 25;" xml:space="preserve">
<style type="text/css">
	.st0{fill:#DDEDF8;}
</style>
<g>
	<g>
		<g>
			<path class="st0" d="M12.5,25C5.61,25,0,19.39,0,12.5C0,5.61,5.61,0,12.5,0C19.39,0,25,5.61,25,12.5C25,19.39,19.39,25,12.5,25z
				 M12.5,1.35c-6.15,0-11.15,5-11.15,11.15c0,6.15,5,11.15,11.15,11.15c6.15,0,11.15-5,11.15-11.15
				C23.65,6.35,18.65,1.35,12.5,1.35z"/>
		</g>
	</g>
	<g>
		<g>
			<path class="st0" d="M17.24,10.44c-3.42,0-3.42,3.4-3.42,3.42c0,0-0.23,3.41,3.42,3.41c0,0,2.75,0.16,3.03-2.01
				c0.02-0.19-0.12-0.36-0.32-0.36H19c-0.14,0-0.26,0.09-0.3,0.22c-0.08,0.28-0.38,0.74-1.4,0.74c0,0-1.32,0.09-1.54-1.18
				c-0.03-0.19,0.12-0.36,0.32-0.36h3.97c0.17,0,0.31-0.13,0.32-0.31C20.4,13.09,20.23,10.44,17.24,10.44z M15.95,13.12
				c-0.13,0-0.22-0.12-0.18-0.24c0.13-0.39,0.5-1.13,1.5-1.13c1.04,0,1.28,0.77,1.34,1.16c0.02,0.11-0.07,0.21-0.18,0.21H15.95z
				 M11.85,12.32c-0.11-0.04-0.13-0.19-0.02-0.24c0.38-0.19,0.83-0.62,0.83-1.53c0-1.59-1.11-2.37-2.52-2.37h-4.4
				c-0.13,0-0.23,0.1-0.23,0.23v8.44c0,0.13,0.1,0.23,0.23,0.23h4.4c0,0,2.83,0.09,2.83-2.63C12.97,14.45,13.06,12.73,11.85,12.32z
				 M7.54,9.93c0-0.09,0.08-0.17,0.17-0.17h2.42c0,0,0.63,0,0.63,0.93c0,0.93-0.37,1.06-0.79,1.06H7.71c-0.09,0-0.17-0.08-0.17-0.17
				V9.93z M10.01,15.5H7.71c-0.09,0-0.17-0.08-0.17-0.17v-2.05c0-0.09,0.08-0.17,0.17-0.17h2.42c0,0,0.94-0.01,0.94,1.23
				C11.07,15.39,10.38,15.49,10.01,15.5z M15.33,8.53v0.76c0,0.09,0.07,0.17,0.17,0.17h3.34c0.09,0,0.17-0.08,0.17-0.17V8.53
				c0-0.09-0.08-0.17-0.17-0.17H15.5C15.4,8.36,15.33,8.44,15.33,8.53z"/>
		</g>
	</g>
</g>
</svg>
