<?xml version="1.0" encoding="utf-8"?>
<!-- Generator: Adobe Illustrator 23.0.1, SVG Export Plug-In . SVG Version: 6.00 Build 0)  -->
<svg version="1.1" id="Layer_1" xmlns="http://www.w3.org/2000/svg" xmlns:xlink="http://www.w3.org/1999/xlink" x="0px" y="0px"
	 viewBox="0 0 25 25" style="enable-background:new 0 0 25 25;" xml:space="preserve">
<style type="text/css">
	.st0{fill:#DDEDF8;}
	.st1{fill-rule:evenodd;clip-rule:evenodd;fill:#DDEDF8;}
</style>
<g>
	<path class="st0" d="M12.5,25C5.61,25,0,19.39,0,12.5C0,5.61,5.61,0,12.5,0C19.39,0,25,5.61,25,12.5C25,19.39,19.39,25,12.5,25z
		 M12.5,1.34C6.35,1.34,1.34,6.35,1.34,12.5c0,6.15,5.01,11.16,11.16,11.16c6.15,0,11.16-5.01,11.16-11.16
		C23.66,6.35,18.65,1.34,12.5,1.34z"/>
</g>
<g>
	<path class="st1" d="M10.54,12.56v7.24c0,0.1,0.08,0.19,0.19,0.19h2.69c0.1,0,0.19-0.08,0.19-0.19v-7.36h1.95
		c0.1,0,0.18-0.08,0.19-0.17l0.19-2.22c0.01-0.11-0.08-0.2-0.19-0.2h-2.14V8.27c0-0.37,0.3-0.67,0.67-0.67h1.5
		c0.1,0,0.19-0.08,0.19-0.19V5.2c0-0.1-0.08-0.19-0.19-0.19h-2.54c-1.49,0-2.7,1.21-2.7,2.7v2.14H9.19c-0.1,0-0.19,0.08-0.19,0.19
		v2.22c0,0.1,0.08,0.19,0.19,0.19h1.35V12.56z"/>
</g>
</svg>
