<?xml version="1.0" encoding="utf-8"?>
<!-- Generator: Adobe Illustrator 23.0.1, SVG Export Plug-In . SVG Version: 6.00 Build 0)  -->
<svg version="1.1" id="Layer_1" xmlns="http://www.w3.org/2000/svg" xmlns:xlink="http://www.w3.org/1999/xlink" x="0px" y="0px"
	 viewBox="0 0 600 600" style="enable-background:new 0 0 600 600;" xml:space="preserve">
<style type="text/css">
	.st0{fill:#DCECF7;}
	.st1{fill:#1780E0;}
	.st2{fill:#1755E0;}
	.st3{fill:#E7E6FF;}
	.st4{fill:#1755E1;}
	.st5{fill:#FFFFFF;}
	.st6{fill:#FEFEFE;}
</style>
<g>
	<g>
		<path class="st0" d="M551.58,575.44H51.03c-2.76,0-4.99-2.23-4.99-4.99v-3.75c0-2.75,2.23-4.99,4.99-4.99h500.55
			c2.76,0,4.99,2.23,4.99,4.99v3.75C556.56,573.21,554.33,575.44,551.58,575.44z"/>
	</g>
	<g>
		<path class="st0" d="M493.84,576.08h-71.3c-4.13,0-7.48-3.35-7.48-7.48v-68.32c0-3.89,2.98-7.13,6.86-7.45
			c12.65-1.06,43.9-5.23,60.62-21c1.49-1.41,3.42-2.13,5.55-2.03c2.04,0.11,3.96,1.06,5.29,2.62c1.1,1.29,26.95,32.01,29.46,60.56
			c2.24,25.57-16.35,39.09-26.5,42.67C495.53,575.93,494.69,576.08,493.84,576.08z M430.02,561.12h62.37
			c4.15-1.85,17.1-9.07,15.54-26.83c-1.53-17.34-14.43-36.9-21.45-46.4c-17.45,12.52-41.69,17.31-56.46,19.12V561.12z"/>
	</g>
	<g>
		<path class="st0" d="M180.06,576.08h-63.58c-1.43,0-2.83-0.41-4.04-1.19c-1.11-0.71-27.05-17.68-25.56-43.29
			c1.32-23.6,31.63-55.9,35.08-59.51c2.74-2.85,7.22-3.09,10.23-0.54c11.97,10.11,28.49,16.97,49.1,20.39
			c3.61,0.6,6.25,3.72,6.25,7.38v69.27C187.54,572.73,184.19,576.08,180.06,576.08z M118.87,561.12h53.71v-55.58
			c-17.54-3.6-32.4-9.68-44.34-18.14c-9.84,11.26-25.7,31.98-26.43,45.06C101,546.35,114.13,557.55,118.87,561.12z"/>
	</g>
	<g>
		<circle class="st0" cx="299.68" cy="300.05" r="299.95"/>
	</g>
	<g>
		<path class="st1" d="M572.45,190.4H458.3c-6.84,0-12.39-5.55-12.39-12.39V63.86c0-6.84,5.55-12.39,12.39-12.39h114.15
			c6.84,0,12.39,5.55,12.39,12.39v114.15C584.84,184.85,579.3,190.4,572.45,190.4z"/>
		<path class="st2" d="M572.45,191.52H458.3c-7.45,0-13.51-6.06-13.51-13.51V63.86c0-7.45,6.06-13.51,13.51-13.51h114.15
			c7.45,0,13.51,6.06,13.51,13.51v114.15C585.97,185.46,579.9,191.52,572.45,191.52z M458.3,52.59c-6.21,0-11.27,5.05-11.27,11.27
			v114.15c0,6.21,5.06,11.27,11.27,11.27h114.15c6.21,0,11.27-5.05,11.27-11.27V63.86c0-6.21-5.06-11.27-11.27-11.27H458.3z"/>
	</g>
	<g>
		<rect x="20.19" y="234.27" class="st3" width="124.3" height="92.8"/>
		<path class="st2" d="M146.18,328.75H18.51v-96.16h127.68V328.75z M21.88,325.38h120.94v-89.43H21.88V325.38z"/>
	</g>
	<g>
		<path class="st2" d="M583.67,376.01H475.92c-3.67,0-6.65-2.98-6.65-6.65V266.48c0-3.67,2.98-6.65,6.65-6.65h107.75
			c3.67,0,6.65,2.98,6.65,6.65v102.87C590.32,373.03,587.34,376.01,583.67,376.01z"/>
	</g>
	<g>
		<g>
			<path class="st2" d="M79.91,312.8c-18.66,0-33.84-15.18-33.84-33.84c0-18.66,15.18-33.84,33.84-33.84s33.84,15.18,33.84,33.84
				C113.75,297.62,98.57,312.8,79.91,312.8z M79.91,249.43c-16.28,0-29.53,13.25-29.53,29.53s13.25,29.53,29.53,29.53
				s29.53-13.25,29.53-29.53S96.19,249.43,79.91,249.43z"/>
		</g>
	</g>
	<g>
		<g>
			<polygon class="st2" points="75.53,289.96 64.17,281.27 66.8,277.84 75.35,284.39 92.91,269.1 95.74,272.36 			"/>
		</g>
	</g>
	<g>
		<path class="st3" d="M351.28,249.72c-6.3,18.34-15.45,28.57-24.3,34.27c-14.11,9.06-27.49,6.56-27.49,6.56
			s-17.18-0.78-32.63-12.26c-8.63-6.39-16.75-16.19-21.02-31.03c0,0-30.77,3.67-26.8-26.2c2.24-17.01,11.05-14.63,18.17-9.5
			c5.44,3.97,9.88,9.5,9.88,9.5l3.02-48.73c0,0,29.26,4.58,45.71-12.21c16.44-16.75,31.08-7.16,31.08-7.16s-4.27,4.45,9.75,18.78
			c11.05,11.22,14.5,34.87,15.5,44.46c0.26,2.63,0.34,4.19,0.34,4.19s1.04-2.93,2.55-7.6c6.69-7.12,16.27-12.26,23.35,4.62
			C390.43,246.18,351.28,249.72,351.28,249.72z"/>
		<path class="st2" d="M304.06,292.56c-2.88,0-4.68-0.32-4.88-0.36c-0.49,0-17.64-0.91-33.32-12.56
			c-10.15-7.51-17.28-17.8-21.24-30.6c-3.91,0.2-14.87,0.09-21.81-6.96c-4.83-4.89-6.66-12.04-5.44-21.25
			c1.03-7.77,3.44-12.37,7.37-14.07c3.62-1.56,8.15-0.41,13.46,3.43c2.97,2.16,5.61,4.74,7.47,6.7l2.89-46.52l1.82,0.28
			c0.28,0.04,28.62,4.23,44.24-11.73c17.22-17.53,33.05-7.5,33.2-7.39l1.7,1.11l-1.41,1.46l0,0c0.02,0-2.19,4.25,9.74,16.43
			c10.13,10.29,14.09,30.59,15.54,41.82c0.01-0.04,0.03-0.08,0.04-0.12l0.37-0.63c5.18-5.51,10.11-7.9,14.64-7.07
			c4.58,0.83,8.45,4.93,11.5,12.19c3.3,7.89,3.24,14.77-0.18,20.44c-6.46,10.72-22.82,13.52-27.24,14.09
			c-5.58,15.72-13.86,27.2-24.63,34.13C318.46,291.46,309.41,292.56,304.06,292.56z M247.06,245.42l0.39,1.38
			c3.65,12.69,10.52,22.83,20.41,30.15c14.87,11.05,31.54,11.92,31.71,11.93c0.35,0.05,13.17,2.27,26.51-6.3
			c10.35-6.66,18.29-17.9,23.61-33.4l0.36-1.03l1.09-0.1c0.19-0.02,19.31-1.88,25.76-12.61c2.83-4.7,2.81-10.55-0.05-17.4
			c-2.58-6.14-5.6-9.56-8.98-10.17c-4.08-0.73-8.35,2.68-11.33,5.79c-1.46,4.48-2.44,7.27-2.44,7.27l-2.81,7.96l-0.45-8.43
			c0-0.02-0.08-1.54-0.34-4.11c-0.98-9.47-4.41-32.67-15.02-43.44c-10.46-10.69-11.36-16.48-10.73-19.22
			c-3.71-1.75-15-5.34-27.7,7.61c-14.65,14.95-38.53,13.65-45.34,12.93l-3.18,51.27l-2.72-3.38c-0.04-0.05-4.38-5.4-9.57-9.19
			c-2.94-2.12-7.08-4.39-10.15-3.06c-2.67,1.15-4.53,5.1-5.36,11.42c-1.08,8.12,0.43,14.33,4.49,18.45
			c7.24,7.34,20.31,5.88,20.44,5.86L247.06,245.42z"/>
	</g>
	<g>
		<path class="st2" d="M355.03,212.78c-1.51,4.66-2.55,7.6-2.55,7.6s-0.09-1.55-0.34-4.19c-0.99-9.58-4.45-33.23-15.5-44.46
			c-14.03-14.33-9.75-18.78-9.75-18.78s-14.63-9.58-31.08,7.16c-16.44,16.79-45.71,12.21-45.71,12.21l-3.02,48.73
			c0,0-4.44-5.52-9.88-9.5l-2.93-41.09c0,0-26.8-6.69-10.96-39.28c15.84-32.63,68.8-19.21,68.8-19.21
			c0.26-11.57,8.59-19.81,26.85-7.29c18.3,12.47,18.3,32.89,18.3,32.89s20.11-1.51,26.8,15.37
			C369.15,165.82,359.83,198.01,355.03,212.78z"/>
	</g>
	<g>
		<path class="st4" d="M260.25,202.92c-0.65,0-1.33-0.17-2.01-0.61c-2.31-1.49-2.71-5.04-1.75-7.48l0,0
			c1.73-4.37,7.34-5.15,10.7-5.61c5.51-0.76,13.09-0.1,16.26,2.32c1.25,0.95,1.62,2.02,1.72,2.74c0.35,2.68-2.35,4.6-3.99,5.51
			c-2.93,1.62-5.46,1.13-7.71,0.69c-1.85-0.36-3.59-0.7-5.97-0.17c-1.61,0.36-2.81,0.97-3.87,1.51
			C262.63,202.34,261.47,202.92,260.25,202.92z M260.5,196.42c-0.37,0.93-0.15,2.05,0.1,2.29c-0.11-0.12,0.58-0.47,1.08-0.72
			c1.16-0.59,2.74-1.39,4.88-1.87c3.27-0.73,5.75-0.24,7.74,0.14c2.19,0.42,3.3,0.59,4.79-0.23c0.73-0.4,1.3-0.86,1.6-1.18
			c-1.5-1.02-7.16-2.14-12.9-1.35C265.36,193.83,261.31,194.39,260.5,196.42L260.5,196.42z"/>
	</g>
	<g>
		<path class="st4" d="M334.23,204.17c-1.36,0-2.62-0.66-3.78-1.26c-1.35-0.71-2.88-1.51-5.05-1.78c-1.86-0.24-3.03,0.06-4.27,0.37
			c-1.62,0.41-3.44,0.88-6.17,0c-3.07-0.99-7.5-3.83-7.12-7.6c0.17-1.73,1.37-3.3,3.38-4.42c3.13-1.73,6.13-0.88,9.94,0.19
			l1.87,0.52c3.84,1.03,6.72,1.51,8.83,1.85c3.63,0.6,6.03,0.99,7.09,3.72c1.09,2.78-0.14,6.45-2.63,7.84
			C335.6,204.01,334.9,204.17,334.23,204.17z M324.09,196.72c0.56,0,1.18,0.03,1.85,0.12c2.94,0.37,5,1.45,6.51,2.24
			c0.63,0.33,1.52,0.75,1.76,0.77c0.56-0.32,1.04-1.7,0.72-2.52c-0.16-0.41-1.47-0.65-3.77-1.02c-2.2-0.36-5.2-0.85-9.25-1.94
			l-1.93-0.54c-3.54-1-5.16-1.4-6.67-0.57l0,0c-0.94,0.52-1.17,0.98-1.18,1.06c-0.05,0.56,1.7,2.28,4.15,3.07
			c1.54,0.5,2.39,0.28,3.79-0.07C321.13,197.04,322.4,196.72,324.09,196.72z"/>
	</g>
	<g>
		<ellipse class="st4" cx="272.28" cy="222.29" rx="5.41" ry="6.86"/>
	</g>
	<g>
		<ellipse class="st4" cx="321.79" cy="222.29" rx="5.41" ry="6.86"/>
	</g>
	<g>
		<polygon class="st4" points="297.09,245.32 289.58,239.51 291.7,226.21 295.97,226.89 294.25,237.66 299.73,241.91 		"/>
	</g>
	<g>
		<path class="st4" d="M298.33,256.62c-3.46,0-7-0.01-9.85-0.04c-3.8-0.03-6.43-1.08-7.81-3.1c-1.67-2.45-0.71-5.17-0.59-5.47
			l4.03,1.54l-2.02-0.77l2.03,0.74c0,0.01-0.31,0.92,0.13,1.54c0.24,0.35,1.16,1.17,4.26,1.2c8.52,0.08,23.27,0,23.28,0l0.02,4.31
			C311.82,256.58,305.25,256.62,298.33,256.62z"/>
	</g>
	<g>
		<path class="st2" d="M499.32,458.1c-1.99,7.68-6.17,13.94-11.65,19.16c-18.17,17.13-50.67,21.8-65.13,23.01v-93.36H180.06v92.41
			c-25.98-4.32-42.43-13.38-52.7-22.06c-12.47-10.49-15.75-20.37-15.75-20.37c51.45-78.21,110.75-112.18,139.54-124.95
			c4.96,9.97,18.43,25.21,54.3,25.59c30.47,0.39,42.08-14.11,46.4-26.67C454.87,365.26,499.32,458.1,499.32,458.1z"/>
	</g>
	<g>
		<path class="st3" d="M351.84,330.87c-4.32,12.56-15.93,27.06-46.4,26.67c-35.87-0.39-49.33-15.62-54.3-25.59
			c11.01-4.92,17.57-6.69,17.57-6.69l-1.86-46.96c15.45,11.48,32.63,12.26,32.63,12.26s13.38,2.5,27.49-6.56l0.22,40.05
			C335.74,325.94,343.99,328.23,351.84,330.87z"/>
		<path class="st2" d="M306.63,359.23c-0.4,0-0.8,0-1.21-0.01c-37.25-0.4-50.93-16.79-55.78-26.53l-0.78-1.57l1.6-0.72
			c8.31-3.72,14.08-5.65,16.52-6.4l-1.94-49.16l2.82,2.1c14.87,11.05,31.54,11.92,31.71,11.93c0.35,0.05,13.17,2.27,26.51-6.3
			l2.58-1.65l0.22,41.77c8.05,1.84,15.96,4.04,23.51,6.57l1.61,0.54l-0.55,1.6C349.05,344.15,337.37,359.23,306.63,359.23z
			 M253.48,332.75c5.17,9.13,18.49,22.74,51.98,23.1c0.39,0,0.77,0.01,1.16,0.01c27.47,0,38.59-12.62,43.04-23.95
			c-7.35-2.4-15.02-4.49-22.83-6.23l-1.31-0.29l-0.2-38.45c-13.51,7.49-25.59,5.36-26.14,5.26c-0.46,0-15.65-0.8-30.5-10.59
			l1.77,44.91l-1.3,0.35C269.09,326.9,263.23,328.5,253.48,332.75z"/>
	</g>
	<g>
		<path class="st3" d="M493.84,568.6h-71.3v-68.32c14.46-1.21,46.96-5.87,65.13-23.01c0,0,25.38,29.87,27.71,56.37
			C517.71,560.18,493.84,568.6,493.84,568.6z"/>
		<path class="st2" d="M494.13,570.28h-73.27v-71.56l1.54-0.13c13.26-1.11,46.06-5.53,64.12-22.55l1.29-1.21l1.14,1.35
			c1.05,1.23,25.75,30.58,28.1,57.31c2.42,27.53-22.4,36.61-22.65,36.7L494.13,570.28z M424.23,566.92h69.32
			c2.63-1.01,22.25-9.4,20.16-33.13c-1.99-22.54-21.35-48-26.21-54.08c-18.35,16.13-49.14,20.79-63.26,22.11V566.92z"/>
	</g>
	<g>
		<path class="st3" d="M180.06,499.32v69.27h-63.58c0,0-23.39-15.02-22.14-36.56c1.21-21.54,33.02-54.77,33.02-54.77
			C137.63,485.94,154.08,495.01,180.06,499.32z"/>
		<path class="st2" d="M181.74,570.28h-65.76l-0.42-0.27c-0.99-0.64-24.2-15.81-22.91-38.07c1.23-21.9,32.16-54.46,33.48-55.84
			l1.1-1.14l1.21,1.02c12.78,10.79,30.23,18.08,51.89,21.68l1.41,0.23V570.28z M117,566.92h61.38v-66.17
			c-20.94-3.66-38.03-10.78-50.87-21.17c-5.51,5.99-30.45,34.08-31.49,52.56C94.93,550.92,113.98,564.84,117,566.92z"/>
	</g>
	<g>
		<rect x="130.68" y="501.83" class="st4" width="49.38" height="4.31"/>
	</g>
	<g>
		<rect x="422.54" y="501.83" class="st4" width="59.13" height="4.31"/>
	</g>
	<g>
		<rect x="180.06" y="406.92" class="st3" width="242.48" height="161.68"/>
		<path class="st2" d="M424.23,570.28H178.38V405.23h245.85V570.28z M181.74,566.92h239.11V408.6H181.74V566.92z"/>
	</g>
	<g>
		<rect x="468.22" y="75.36" class="st5" width="94.32" height="4.31"/>
	</g>
	<g>
		<rect x="468.22" y="93.71" class="st5" width="94.32" height="4.31"/>
	</g>
	<g>
		<rect x="468.22" y="112.07" class="st5" width="94.32" height="4.31"/>
	</g>
	<g>
		<rect x="468.22" y="130.43" class="st5" width="94.32" height="4.31"/>
	</g>
	<g>
		<rect x="468.22" y="148.78" class="st5" width="94.32" height="4.31"/>
	</g>
	<g>
		<rect x="468.22" y="167.14" class="st5" width="94.32" height="4.31"/>
	</g>
	<g>
		<path class="st6" d="M545.3,356.36h-31.75c-4.74,0-8.57-3.84-8.57-8.57v-59.73c0-4.74,3.84-8.57,8.57-8.57h31.75
			c4.74,0,8.57,3.84,8.57,8.57v59.73C553.88,352.52,550.04,356.36,545.3,356.36z"/>
	</g>
	<g>
		<path class="st1" d="M543.87,342.3h-29.61c-3.84,0-6.95-3.11-6.95-6.95v-46.48c0-3.84,3.11-6.95,6.95-6.95h29.61
			c3.84,0,6.95,3.11,6.95,6.95v46.48C550.83,339.18,547.72,342.3,543.87,342.3z"/>
	</g>
	<g>
		<circle class="st1" cx="529.07" cy="349.33" r="3.28"/>
	</g>
	<g>
		<rect x="51.02" y="566.7" class="st4" width="500.55" height="3.75"/>
	</g>
	<g>
		<circle class="st4" cx="107.79" cy="128.84" r="4.11"/>
	</g>
	<g>
		<circle class="st4" cx="119.62" cy="119.12" r="4.11"/>
	</g>
	<g>
		<circle class="st4" cx="131.45" cy="109.4" r="4.11"/>
	</g>
	<g>
		<circle class="st4" cx="115.17" cy="137.82" r="4.11"/>
	</g>
	<g>
		<circle class="st4" cx="127" cy="128.1" r="4.11"/>
	</g>
	<g>
		<circle class="st4" cx="138.82" cy="118.38" r="4.11"/>
	</g>
	<g>
		<circle class="st4" cx="122.54" cy="146.79" r="4.11"/>
	</g>
	<g>
		<circle class="st4" cx="134.37" cy="137.07" r="4.11"/>
	</g>
	<g>
		<circle class="st4" cx="146.2" cy="127.35" r="4.11"/>
	</g>
	<g>
		<circle class="st4" cx="129.91" cy="155.76" r="4.11"/>
	</g>
	<g>
		<circle class="st4" cx="141.74" cy="146.04" r="4.11"/>
	</g>
	<g>
		<circle class="st4" cx="153.57" cy="136.32" r="4.11"/>
	</g>
	<g>
		<path class="st2" d="M298.36,50.63l-9.94,9.94l9.56,9.55l-2.54,2.54l-9.55-9.56l-10.02,10.02l-2.71-2.7l10.02-10.02l-9.56-9.56
			l2.54-2.54l9.56,9.56l9.93-9.94L298.36,50.63z"/>
	</g>
</g>
</svg>
