<?xml version="1.0" encoding="utf-8"?>
<!-- Generator: Adobe Illustrator 23.0.1, SVG Export Plug-In . SVG Version: 6.00 Build 0)  -->
<svg version="1.1" id="Layer_1" xmlns="http://www.w3.org/2000/svg" xmlns:xlink="http://www.w3.org/1999/xlink" x="0px" y="0px"
	 viewBox="0 0 600 600" style="enable-background:new 0 0 600 600;" xml:space="preserve">
<style type="text/css">
	.st0{fill:#DCECF7;}
	.st1{fill:#1C1C1C;}
	.st2{fill:#FEFEFE;}
	.st3{fill:#1755E0;}
	.st4{fill:#E7E6FF;}
	.st5{fill:#1780E0;}
</style>
<g>
	<g>
		<circle class="st0" cx="519.12" cy="102.43" r="42.24"/>
	</g>
	<g>
		<circle class="st0" cx="56.73" cy="106.69" r="42.24"/>
	</g>
	<g>
		<g>
			<circle class="st0" cx="299.89" cy="300.12" r="299.88"/>
		</g>
		<g>
			<g>
				<path class="st1" d="M348.16,509.73h-88.59v-1.68h88.59V509.73z M469.32,270.78l-0.38-0.41c-2.64-2.88-6.4-4.54-10.32-4.54
					c-1.02,0-2.03,0.11-3,0.32l-0.38,0.08l-6.91-10.5h31.03v5.83l-0.18,0.17L469.32,270.78z M458.62,264.71
					c4.04,0,7.93,1.63,10.76,4.49l8.87-8.13v-4.22h-27.83l5.34,8.12C456.69,264.8,457.65,264.71,458.62,264.71z"/>
			</g>
			<g>
				<path class="st2" d="M478.81,276.79v180.24H126.69V256.3H438.8l9.13,13.65c-2.4,2.6-3.88,6.08-3.88,9.9
					c0,8.05,6.53,14.58,14.58,14.58c7.28,0,13.31-5.33,14.4-12.3L478.81,276.79z"/>
			</g>
			<g>
				<path class="st2" d="M478.81,256.3v5.02l-9.45,8.67c-2.66-2.9-6.48-4.72-10.73-4.72c-1.07,0-2.11,0.11-3.12,0.34l-6.12-9.31
					H478.81z"/>
			</g>
			<g>
				<path class="st3" d="M492.82,472.73v26.43c0,5.53-4.49,10.01-10.01,10.01H347.6v-0.56h-87.47v0.56H124.93
					c-4.37,0-8.09-2.8-9.45-6.71v-29.74H492.82z"/>
			</g>
			<g>
				<rect x="259.57" y="508.05" class="st1" width="88.59" height="1.68"/>
			</g>
			<g>
				<path class="st4" d="M370.03,530.48c0,1.7-0.7,3.25-1.81,4.36c-1.11,1.11-2.66,1.81-4.36,1.81H242.75
					c-3.41,0-6.17-2.76-6.17-6.17c0-1.7,0.7-3.25,1.81-4.36c1.11-1.11,2.66-1.81,4.36-1.81h121.11
					C367.27,524.31,370.03,527.07,370.03,530.48z"/>
				<path class="st3" d="M363.86,538.33H242.75c-4.33,0-7.85-3.52-7.85-7.85c0-2.1,0.82-4.07,2.3-5.55c1.48-1.48,3.45-2.3,5.55-2.3
					h121.11c4.33,0,7.85,3.52,7.85,7.85c0,2.1-0.82,4.07-2.3,5.55C367.94,537.51,365.96,538.33,363.86,538.33z M242.75,525.99
					c-1.2,0-2.32,0.47-3.17,1.31c-0.85,0.85-1.31,1.97-1.31,3.17c0,2.47,2.01,4.49,4.49,4.49h121.11c1.2,0,2.33-0.47,3.17-1.31
					c0.85-0.85,1.31-1.97,1.31-3.17c0-2.47-2.01-4.49-4.49-4.49H242.75z"/>
			</g>
			<g>
				<rect x="260.13" y="509.17" class="st4" width="87.47" height="15.14"/>
				<path class="st3" d="M349.28,525.99h-90.83v-18.5h90.83V525.99z M261.81,522.63h84.11v-11.78h-84.11V522.63z"/>
			</g>
			<g>
				<path class="st3" d="M473.02,282.12c-1.09,6.98-7.12,12.3-14.4,12.3c-8.05,0-14.58-6.53-14.58-14.58c0-3.82,1.48-7.3,3.88-9.9
					c1.98-2.15,4.62-3.7,7.58-4.34c1.01-0.22,2.05-0.34,3.12-0.34c4.25,0,8.07,1.82,10.73,4.72l-10.73,9.86c0,0,0.04,4.24,4.32,5.74
					c4.27,1.5,6.34,0,6.34,0L473.02,282.12z"/>
			</g>
			<g>
				<path class="st3" d="M202.64,181.93c0,3.53-1.72,6.66-4.35,8.6c-1.76,1.29-3.94,2.05-6.3,2.05c-0.34,0-0.67-0.01-1-0.04
					c-3.35-0.31-6.26-2.18-7.98-4.87c-1.05-1.66-1.67-3.63-1.67-5.74c0-0.93,0.12-1.83,0.35-2.69v-0.01
					c1.2-4.58,5.35-7.95,10.31-7.95C197.87,171.27,202.64,176.05,202.64,181.93z"/>
			</g>
			<g>
				<path class="st3" d="M552.82,197.98c0,15.03-9.85,27.74-23.44,32.06c-3.22,1.03-6.65,1.58-10.2,1.58
					c-2.47,0-4.87-0.27-7.19-0.78c-15.13-3.27-26.45-16.74-26.45-32.86c0-12.92,7.28-24.12,17.95-29.76
					c0.34-0.18,0.68-0.36,1.03-0.53c0.27,0.15,0.55,0.26,0.84,0.35c0,0.01,0,0.01,0,0.01c0.02,0.08,0.03,0.15,0.04,0.21
					c0.79,3.43,3.3,6.19,6.58,7.3l0.71,8.12c-5.44,2.47-9.22,7.94-9.22,14.3c0,8.67,7.03,15.7,15.7,15.7c8.67,0,15.7-7.03,15.7-15.7
					c0-6.49-3.94-12.06-9.57-14.45l0.77-7.41h0.38c2.78,0,5.32-1.13,7.13-2.96c1.17-1.16,2.04-2.6,2.53-4.22
					C546.13,174.76,552.82,185.59,552.82,197.98z"/>
			</g>
			<g>
				<path class="st5" d="M539.92,163.22c0,1.39-0.56,2.66-1.48,3.57c-0.57,0.58-1.29,1.02-2.09,1.26c0,0.01,0,0.01,0,0.01h-31
					c0,0,0,0,0-0.01c-0.29-0.09-0.57-0.2-0.84-0.35c-0.3-0.15-0.59-0.34-0.85-0.56c-1.14-0.92-1.87-2.33-1.87-3.91
					c0-1.39,0.56-2.66,1.48-3.57c0.34-0.34,0.71-0.63,1.13-0.85c0.72-0.4,1.55-0.63,2.43-0.63h28.04
					C537.66,158.17,539.92,160.43,539.92,163.22z"/>
			</g>
			<g>
				<path class="st0" d="M536.35,168.05c-0.07,0.3-0.13,0.59-0.22,0.89c-0.49,1.61-1.37,3.06-2.53,4.22
					c-1.82,1.83-4.35,2.96-7.13,2.96h-11.21c-1.14,0-2.24-0.19-3.26-0.55c-3.29-1.11-5.8-3.87-6.58-7.3
					c-0.01-0.07-0.02-0.13-0.04-0.21H536.35z"/>
			</g>
			<g>
				<path class="st3" d="M544.97,153.13c0,1.39-0.56,2.66-1.48,3.57c-0.91,0.92-2.18,1.48-3.57,1.48H501.8
					c-2.79,0-5.05-2.25-5.05-5.05c0-1.39,0.56-2.66,1.48-3.57c0.91-0.92,2.18-1.48,3.57-1.48h38.13
					C542.72,148.08,544.97,150.34,544.97,153.13z"/>
			</g>
			<g>
				<path class="st2" d="M554.5,102.66c0,0.19,0,0.38-0.01,0.56c-0.03,2.41-0.31,4.77-0.81,7.04c-0.01,0.04-0.02,0.09-0.03,0.13
					c0,0.01-0.01,0.02-0.01,0.03c-1.23,4.79-4.13,11.47-10.88,18.51c-0.03,0.04-0.07,0.07-0.1,0.11l-0.01,0.01
					c-4.96,5.25-7.23,12.32-8.17,19.01h-30.59c-0.94-6.68-3.22-13.76-8.17-19.01l-0.01-0.01c-0.03-0.04-0.07-0.07-0.1-0.11
					c-6.75-7.04-9.64-13.73-10.88-18.51c0-0.01-0.01-0.02-0.01-0.03c-0.01-0.04-0.02-0.09-0.03-0.13c-0.49-2.28-0.77-4.63-0.81-7.04
					c-0.01-0.18-0.01-0.37-0.01-0.56c0-19.51,15.81-35.32,35.32-35.32C538.69,67.34,554.5,83.15,554.5,102.66z"/>
			</g>
			<g>
				<path class="st3" d="M419.37,206.39c0,1.2-0.2,2.34-0.57,3.42c-1.05,3.13-3.52,5.61-6.65,6.66c-1.08,0.37-2.23,0.57-3.43,0.57
					c-2.69,0-5.17-1-7.04-2.66c-1.95-1.72-3.26-4.14-3.55-6.87c-0.03-0.37-0.06-0.74-0.06-1.12c0-5.89,4.77-10.65,10.65-10.65
					C414.61,195.74,419.37,200.51,419.37,206.39z"/>
			</g>
			<g>
				<path class="st4" d="M401.68,214.39l-35.03,22.2c-0.12-3.06-1.21-5.89-2.96-8.18l34.44-20.9
					C398.41,210.25,399.73,212.67,401.68,214.39z"/>
				<path class="st3" d="M365.6,238.58l-0.08-1.94c-0.11-2.74-1.05-5.34-2.73-7.54l-0.76-0.99l37.02-22.47l0.19,1.75
					c0.26,2.39,1.38,4.57,3.18,6.15l1.12,0.99L365.6,238.58z M365.29,228.75c1.17,1.81,1.94,3.81,2.29,5.92l32.32-20.48
					c-1.24-1.4-2.12-3.06-2.58-4.87L365.29,228.75z"/>
			</g>
			<g>
				<path class="st4" d="M183,187.67l-63.51,28.44c-0.4-2.64-1.57-5.04-3.27-6.93l65.46-29.94c-0.22,0.86-0.35,1.76-0.35,2.69
					C181.33,184.03,181.95,186.01,183,187.67z"/>
				<path class="st3" d="M118.61,217.73l-0.22-1.46c-0.36-2.37-1.4-4.57-3-6.35l-1.02-1.13l68.99-31.56l-0.59,2.28
					c-0.21,0.8-0.31,1.61-0.31,2.41c0,1.82,0.52,3.6,1.5,5.14l0.7,1.1L118.61,217.73z M118,209.59c1.07,1.48,1.86,3.14,2.31,4.92
					l61.11-27.37c-0.8-1.62-1.22-3.4-1.22-5.22c0-0.27,0.01-0.53,0.03-0.8L118,209.59z"/>
			</g>
			<g>
				<path class="st3" d="M119.65,218.16c0,7.43-6.02,13.47-13.47,13.47c-7.43,0-13.47-6.03-13.47-13.47c0-2.9,0.93-5.61,2.51-7.82
					l2.23,7.55c0.63,2.13,2.58,3.52,4.71,3.52c0.41,0,0.84-0.06,1.27-0.17c2.67-0.71,4.23-3.49,3.44-6.13l-3.03-10.22
					c0.75-0.13,1.54-0.2,2.33-0.2c3.99,0,7.57,1.73,10.04,4.49c1.7,1.9,2.87,4.29,3.27,6.93
					C119.6,216.78,119.65,217.46,119.65,218.16z"/>
			</g>
			<g>
				<path class="st3" d="M221.94,221.53c-2.38,0-4.62,0.57-6.6,1.58c-1.67,0.84-3.15,2.01-4.37,3.41v0.01
					c-0.58,0.66-1.1,1.37-1.55,2.13c-1.3,2.18-2.05,4.72-2.05,7.45c0,1.36,0.19,2.68,0.54,3.92c0.19,0.7,0.44,1.37,0.73,2.02
					c2.27,5.09,7.38,8.63,13.31,8.63c6.69,0,12.34-4.51,14.04-10.65c0.35-1.24,0.54-2.57,0.54-3.92
					C236.52,228.06,229.99,221.53,221.94,221.53z M227.4,240.04c-1.22,1.69-3.21,2.8-5.46,2.8c-2.25,0-4.24-1.11-5.46-2.8
					c-0.8-1.1-1.27-2.46-1.27-3.92c0-3.71,3.02-6.73,6.73-6.73c3.71,0,6.73,3.02,6.73,6.73C228.67,237.58,228.2,238.94,227.4,240.04
					z"/>
			</g>
			<g>
				<path class="st4" d="M215.33,223.11c-1.67,0.84-3.15,2.01-4.37,3.41v0.01c-0.58,0.66-1.1,1.37-1.55,2.13l-18.42-36.13
					c0.33,0.03,0.66,0.04,1,0.04c2.37,0,4.54-0.76,6.3-2.05l14.74,28.17L215.33,223.11z"/>
				<path class="st3" d="M209.34,230.99l-20.29-39.79l2.05,0.21c2.27,0.22,4.64-0.42,6.52-1.8l1.05-0.77l18.18,34.75l-1.02,0.51
					c-1.44,0.72-2.73,1.7-3.83,2.91l-0.21,0.24c-0.55,0.62-1.01,1.27-1.42,1.96L209.34,230.99z M192.83,193.67l16.73,32.8
					c0.09-0.12,0.19-0.24,0.28-0.35v-0.01l0.28-0.33c1.08-1.24,2.33-2.29,3.72-3.12l-15.97-30.52
					C196.32,193.02,194.61,193.55,192.83,193.67z"/>
			</g>
			<g>
				<path class="st4" d="M160.66,128.2l-71.98,25.51l-9.21,3.26l-1.17,0.41c-3.08,1.09-6.47-0.5-7.58-3.58l-4.97-13.63l-6.37-17.43
					l-0.15-0.39l1.63,0.13l25.97,2.15l28.97,2.41l37.74-37.16l10.75,30.72C165.39,123.71,163.76,127.11,160.66,128.2z"/>
				<path class="st3" d="M76.34,159.41c-3.13,0-6.08-1.93-7.19-5.03l-12.24-33.52l2.48-0.18l55.8,4.64l39.07-38.49l11.63,33.22
					c0.67,1.92,0.56,3.99-0.32,5.82c-0.88,1.84-2.42,3.22-4.34,3.9l-82.35,29.19C78.04,159.27,77.18,159.41,76.34,159.41z
					 M61.73,124.26l10.58,28.97c0.79,2.2,3.23,3.35,5.44,2.57l82.36-29.19c1.07-0.38,1.93-1.15,2.43-2.18
					c0.49-1.03,0.55-2.19,0.18-3.26l-9.88-28.21l-36.39,35.84L61.73,124.26z"/>
			</g>
			<g>
				<path class="st3" d="M41.13,106.69c0,8.95,7.26,16.2,16.2,16.2c0.7,0,1.38-0.04,2.05-0.13l6.37,17.43
					c-2.69,0.68-5.52,1.04-8.42,1.04c-19.08,0-34.54-15.46-34.54-34.54c0-19.08,15.46-34.54,34.54-34.54
					c12.65,0,23.71,6.8,29.72,16.93l-18.08,6.35c-2.94-3.04-7.08-4.93-11.64-4.93C48.39,90.5,41.13,97.75,41.13,106.69z"/>
			</g>
			<g>
				<path class="st5" d="M153.54,89.9l-37.74,37.16l-28.97-2.41l-25.97-2.15l-1.63-0.13l-5.54-15.18c-1.13-3.12,0.49-6.56,3.62-7.66
					l11.65-4.09l18.08-6.35l53.31-18.73c3.11-1.09,6.52,0.55,7.6,3.66L153.54,89.9z"/>
				<path class="st3" d="M116.44,128.81l-58.41-4.85l-5.91-16.19c-0.7-1.94-0.61-4.03,0.28-5.89c0.88-1.86,2.43-3.25,4.37-3.93
					l83.04-29.17c1.92-0.68,4-0.56,5.84,0.33c1.84,0.89,3.23,2.43,3.9,4.36l5.92,16.9L116.44,128.81z M60.46,120.78l54.72,4.55
					l36.42-35.87l-5.22-14.88c-0.38-1.08-1.15-1.94-2.19-2.44c-1.04-0.5-2.19-0.56-3.27-0.18l-83.04,29.17
					c-1.08,0.38-1.95,1.16-2.44,2.2c-0.49,1.04-0.55,2.21-0.15,3.3L60.46,120.78z"/>
			</g>
			<g>
				<path class="st5" d="M59.24,122.37l0.15,0.39c-0.67,0.09-1.36,0.13-2.05,0.13c-8.95,0-16.2-7.26-16.2-16.2
					c0-8.94,7.26-16.19,16.2-16.19c4.56,0,8.7,1.9,11.64,4.93l-11.65,4.09c-3.13,1.1-4.75,4.54-3.62,7.66L59.24,122.37z"/>
			</g>
			<g>
				<path class="st4" d="M103.44,221.24c-0.43,0.11-0.85,0.17-1.27,0.17c-2.13,0-4.08-1.39-4.71-3.52l-2.23-7.55l-15.76-53.37
					l9.21-3.26l15.17,51.18l3.03,10.22C107.67,217.75,106.11,220.54,103.44,221.24z"/>
				<path class="st3" d="M102.17,222.53c-2.66,0-5.04-1.78-5.79-4.33L78.1,156.27l11.32-4.01l18.54,62.53
					c0.47,1.57,0.28,3.23-0.53,4.66c-0.8,1.43-2.12,2.45-3.7,2.87l0,0C103.21,222.46,102.69,222.53,102.17,222.53z M80.85,157.67
					l17.68,59.9c0.57,1.91,2.57,3.13,4.61,2.59l0,0c0.99-0.26,1.82-0.9,2.32-1.8c0.51-0.9,0.62-1.94,0.33-2.93l-17.87-60.26
					L80.85,157.67z"/>
			</g>
			<g>
				<path class="st4" d="M277.28,229.1l-7.09,10.93h-8.53l8.76-12.06C272.66,228.49,274.95,228.87,277.28,229.1z"/>
				<path class="st3" d="M270.8,241.16h-11.34l10.48-14.43l0.72,0.16c2.24,0.5,4.5,0.87,6.73,1.1l1.83,0.18L270.8,241.16z
					 M263.86,238.91h5.72l5.77-8.91c-1.49-0.2-2.98-0.46-4.46-0.77L263.86,238.91z"/>
			</g>
			<g>
				<path class="st4" d="M299.89,240.04h-6.98l-1.87-11.25c2.68-0.39,5.3-0.98,7.84-1.74L299.89,240.04z"/>
				<path class="st3" d="M301.1,241.16h-9.14l-2.22-13.31l1.13-0.17c2.6-0.38,5.19-0.95,7.68-1.7l1.33-0.4L301.1,241.16z
					 M293.86,238.91h4.81l-0.81-10.41c-1.81,0.5-3.67,0.9-5.53,1.21L293.86,238.91z"/>
			</g>
			<g>
				<path class="st4" d="M330.87,240.04h-8.02c-2.51-3.2-8.83-11.25-13.48-17.34c2.71-1.47,5.29-3.16,7.72-5.06L330.87,240.04z"/>
				<path class="st3" d="M332.88,241.16h-10.57l-0.34-0.43c-2.51-3.2-8.83-11.25-13.49-17.35l-0.8-1.04l1.16-0.62
					c2.64-1.43,5.18-3.09,7.56-4.96l0.99-0.77L332.88,241.16z M323.4,238.91h5.47l-12.08-19.63c-1.83,1.37-3.75,2.63-5.73,3.76
					C315.4,228.72,320.85,235.67,323.4,238.91z"/>
			</g>
			<g>
				<path class="st5" d="M228.67,236.11c0,1.47-0.47,2.83-1.27,3.92c-1.22,1.69-3.21,2.8-5.46,2.8c-2.25,0-4.24-1.11-5.46-2.8
					c-0.8-1.1-1.27-2.46-1.27-3.92c0-3.71,3.02-6.73,6.73-6.73C225.65,229.38,228.67,232.4,228.67,236.11z"/>
			</g>
			<g>
				<path class="st3" d="M366.64,236.59c-0.12-3.06-1.21-5.89-2.96-8.18c-2.65-3.5-6.85-5.76-11.6-5.76
					c-8.05,0-14.58,6.53-14.58,14.58c0,0.96,0.09,1.9,0.27,2.8c1.31,6.71,7.22,11.77,14.31,11.77s13-5.07,14.31-11.77
					c0.18-0.91,0.27-1.84,0.27-2.8C366.67,237.02,366.67,236.81,366.64,236.59z M358.67,240.04c-1.22,1.69-3.21,2.8-5.46,2.8
					s-4.24-1.11-5.46-2.8c-0.8-1.1-1.27-2.46-1.27-3.92c0-3.71,3.02-6.73,6.73-6.73s6.73,3.02,6.73,6.73
					C359.94,237.58,359.47,238.94,358.67,240.04z"/>
			</g>
			<g>
				<path class="st5" d="M359.94,236.11c0,1.47-0.47,2.83-1.27,3.92c-1.22,1.69-3.21,2.8-5.46,2.8s-4.24-1.11-5.46-2.8
					c-0.8-1.1-1.27-2.46-1.27-3.92c0-3.71,3.02-6.73,6.73-6.73S359.94,232.4,359.94,236.11z"/>
			</g>
			<g>
				<path class="st4" d="M318.01,140.95c-11.74,0-23.04,1.84-33.64,5.26c-4.91,1.57-9.68,3.49-14.25,5.72
					c-4.93,2.39-9.66,5.15-14.13,8.23c-7.8,5.35-14.87,11.68-21.03,18.81c-4.35,5.03-5.35,12.17-2.55,18.19
					c7.15,15.37,21.13,26.94,38.02,30.81c2.24,0.5,4.53,0.89,6.86,1.12c1.85,0.19,3.72,0.28,5.62,0.28c2.77,0,5.48-0.2,8.14-0.59
					c2.68-0.39,5.3-0.98,7.84-1.74c3.68-1.1,7.19-2.56,10.5-4.35c2.71-1.47,5.29-3.16,7.72-5.06
					c13.08-10.18,21.49-26.07,21.49-43.93c0-8.09-1.73-15.79-4.84-22.73C330.98,144.83,324.76,140.95,318.01,140.95
					C318.01,140.95,318.01,140.95,318.01,140.95z M283.41,177.01c-23.18,11.16-43.71,16.57-45.87,12.1
					c-1.73-3.61,9.06-12.57,25.5-21.77c3.76-2.1,7.82-4.22,12.09-6.28c0.16-0.08,0.33-0.16,0.48-0.24
					c3.59-1.73,7.11-3.31,10.51-4.74c18.58-7.85,33.54-11.14,35.35-7.37C323.63,153.2,306.58,165.86,283.41,177.01z"/>
				<path class="st3" d="M282.9,231.06c-1.97,0-3.92-0.1-5.79-0.29c-2.34-0.24-4.72-0.62-7.06-1.15
					c-17.11-3.93-31.75-15.8-39.17-31.74c-3.08-6.62-1.98-14.47,2.8-20c6.27-7.25,13.45-13.68,21.36-19.1
					c4.57-3.15,9.4-5.96,14.35-8.36c4.66-2.27,9.53-4.23,14.47-5.81c10.98-3.54,22.47-5.34,34.15-5.34l0,0c0,0,0,0,0.01,0
					c7.49,0,14.26,4.33,17.26,11.04c3.31,7.39,4.98,15.27,4.98,23.41c0,17.8-8.07,34.3-22.13,45.25c-2.5,1.95-5.17,3.71-7.95,5.21
					c-3.41,1.85-7.05,3.36-10.81,4.48c-2.62,0.79-5.34,1.39-8.08,1.79C288.53,230.86,285.71,231.06,282.9,231.06z M318.01,142.63
					c-11.33,0-22.48,1.74-33.13,5.18c-4.79,1.53-9.51,3.42-14.03,5.63c-4.8,2.32-9.48,5.05-13.91,8.11
					c-7.67,5.26-14.64,11.5-20.72,18.53c-3.92,4.53-4.82,10.96-2.3,16.39c6.99,15.01,20.77,26.18,36.87,29.88
					c2.21,0.5,4.45,0.87,6.66,1.09c4.25,0.44,8.93,0.35,13.34-0.3c2.58-0.38,5.14-0.94,7.6-1.68c3.55-1.06,6.97-2.48,10.18-4.22
					c2.61-1.41,5.13-3.06,7.48-4.9c13.25-10.32,20.84-25.84,20.84-42.6c0-7.67-1.58-15.09-4.69-22.04
					C329.75,146.18,324.18,142.63,318.01,142.63C318.02,142.63,318.01,142.63,318.01,142.63L318.01,142.63z M242.14,192.32
					c-3.07,0-5.27-0.73-6.11-2.48c-3.17-6.63,17.26-18.97,26.2-23.96c3.93-2.2,8.03-4.32,12.18-6.33l0.49-0.24
					c3.61-1.74,7.16-3.33,10.58-4.78c7.93-3.35,34.08-13.72,37.52-6.54c3.65,7.6-23.82,23.3-38.85,30.54l0,0
					C272.56,184.11,252.44,192.32,242.14,192.32z M275.14,161.07l0.73,1.51c-4.09,1.98-8.13,4.07-12,6.24
					c-20.32,11.36-25.35,18.42-24.8,19.57c1.06,2.22,17.45-0.29,43.62-12.89l0,0c26.16-12.6,38.35-23.82,37.28-26.05
					c-0.68-1.42-11.2-1.09-33.18,8.19c-3.37,1.42-6.87,3-10.43,4.71L275.14,161.07z"/>
			</g>
			<g>
				<path class="st5" d="M283.41,177.01c-23.18,11.16-43.71,16.57-45.87,12.1c-1.73-3.61,9.06-12.57,25.5-21.77
					c3.76-2.1,7.82-4.22,12.09-6.28c0.16-0.08,0.33-0.16,0.48-0.24c3.59-1.73,7.11-3.31,10.51-4.74
					c18.58-7.85,33.54-11.14,35.35-7.37C323.63,153.2,306.58,165.86,283.41,177.01z"/>
			</g>
			<g>
				<path class="st3" d="M227.48,59.94c0,3.01-1.69,5.61-4.17,6.91c-1.09,0.57-2.33,0.9-3.64,0.9c-4.31,0-7.81-3.49-7.81-7.8
					c0-4.32,3.5-7.81,7.81-7.81C223.98,52.13,227.48,55.62,227.48,59.94z"/>
			</g>
			<g>
				<g>
					<g>
						<path class="st3" d="M279.51,174.55c-0.6,0-1.19-0.33-1.49-0.89l-1.84-3.47c-0.44-0.82-0.12-1.84,0.7-2.27
							c0.82-0.44,1.84-0.12,2.27,0.7l1.84,3.47c0.44,0.82,0.12,1.84-0.7,2.27C280.05,174.49,279.78,174.55,279.51,174.55z"/>
					</g>
				</g>
				<g>
					<g>
						<path class="st3" d="M273.93,164.02c-0.6,0-1.19-0.33-1.49-0.9l-3.74-7.07c-0.44-0.82-0.12-1.84,0.7-2.27
							c0.82-0.44,1.84-0.12,2.27,0.7l3.74,7.07c0.44,0.82,0.12,1.84-0.7,2.27C274.47,163.96,274.2,164.02,273.93,164.02z
							 M266.44,149.89c-0.6,0-1.19-0.33-1.49-0.9l-3.74-7.07c-0.44-0.82-0.12-1.84,0.7-2.27c0.82-0.44,1.84-0.12,2.27,0.7l3.74,7.07
							c0.44,0.82,0.12,1.84-0.7,2.27C266.98,149.82,266.71,149.89,266.44,149.89z M258.95,135.75c-0.6,0-1.19-0.33-1.49-0.9
							l-3.74-7.07c-0.44-0.82-0.12-1.84,0.7-2.27c0.82-0.44,1.84-0.12,2.27,0.7l3.74,7.07c0.44,0.82,0.12,1.84-0.7,2.27
							C259.49,135.69,259.22,135.75,258.95,135.75z M251.46,121.62c-0.6,0-1.19-0.33-1.49-0.89l-3.74-7.07
							c-0.44-0.82-0.12-1.84,0.7-2.27c0.82-0.44,1.84-0.12,2.27,0.7l3.74,7.07c0.44,0.82,0.12,1.84-0.7,2.27
							C252,121.56,251.73,121.62,251.46,121.62z M243.97,107.49c-0.6,0-1.19-0.33-1.49-0.9l-3.74-7.07
							c-0.44-0.82-0.12-1.84,0.7-2.27c0.82-0.44,1.84-0.12,2.27,0.7l3.74,7.07c0.44,0.82,0.12,1.84-0.7,2.27
							C244.51,107.42,244.24,107.49,243.97,107.49z M236.49,93.35c-0.6,0-1.19-0.33-1.49-0.9l-3.74-7.07
							c-0.44-0.82-0.12-1.84,0.7-2.27c0.82-0.43,1.84-0.12,2.27,0.7l3.74,7.07c0.44,0.82,0.12,1.84-0.7,2.27
							C237.02,93.29,236.75,93.35,236.49,93.35z M229,79.22c-0.6,0-1.19-0.33-1.49-0.9l-3.74-7.07c-0.44-0.82-0.12-1.84,0.7-2.27
							c0.82-0.44,1.84-0.12,2.27,0.7l3.74,7.07c0.44,0.82,0.12,1.84-0.7,2.27C229.53,79.16,229.26,79.22,229,79.22z"/>
					</g>
				</g>
				<g>
					<g>
						<path class="st3" d="M221.51,65.09c-0.6,0-1.19-0.33-1.49-0.9l-1.84-3.47c-0.43-0.82-0.12-1.84,0.7-2.27
							c0.82-0.43,1.84-0.12,2.27,0.7l1.84,3.47c0.43,0.82,0.12,1.84-0.7,2.27C222.04,65.03,221.77,65.09,221.51,65.09z"/>
					</g>
				</g>
			</g>
			<g>
				<g>
					<g>
						<path class="st3" d="M289.11,170.6c-0.8,0-1.51-0.57-1.65-1.38l-0.7-3.86c-0.16-0.91,0.44-1.79,1.36-1.95
							c0.91-0.16,1.79,0.44,1.95,1.36l0.7,3.86c0.16,0.91-0.44,1.79-1.36,1.95C289.31,170.59,289.21,170.6,289.11,170.6z"/>
					</g>
				</g>
				<g>
					<g>
						<path class="st3" d="M286.95,158.62c-0.8,0-1.51-0.57-1.65-1.38l-1.46-8.12c-0.16-0.91,0.44-1.79,1.36-1.95
							c0.91-0.17,1.79,0.44,1.95,1.36l1.46,8.12c0.16,0.91-0.44,1.79-1.36,1.95C287.15,158.61,287.05,158.62,286.95,158.62z
							 M284.02,142.38c-0.8,0-1.51-0.57-1.65-1.38l-1.46-8.12c-0.16-0.91,0.44-1.79,1.36-1.95c0.91-0.16,1.79,0.44,1.95,1.36
							l1.46,8.12c0.16,0.91-0.44,1.79-1.36,1.95C284.22,142.37,284.12,142.38,284.02,142.38z M281.1,126.14
							c-0.8,0-1.51-0.57-1.65-1.38l-1.46-8.12c-0.16-0.91,0.44-1.79,1.36-1.95c0.91-0.17,1.79,0.44,1.95,1.36l1.46,8.12
							c0.16,0.91-0.44,1.79-1.36,1.95C281.29,126.13,281.19,126.14,281.1,126.14z M278.17,109.9c-0.8,0-1.51-0.57-1.65-1.38
							l-1.46-8.12c-0.16-0.91,0.44-1.79,1.36-1.95c0.91-0.17,1.79,0.44,1.95,1.36l1.46,8.12c0.16,0.91-0.44,1.79-1.36,1.95
							C278.37,109.89,278.27,109.9,278.17,109.9z"/>
					</g>
				</g>
				<g>
					<g>
						<path class="st3" d="M275.24,93.66c-0.8,0-1.51-0.57-1.65-1.38l-0.7-3.86c-0.16-0.91,0.44-1.79,1.36-1.95
							c0.91-0.17,1.79,0.44,1.95,1.36l0.7,3.86c0.16,0.91-0.44,1.79-1.36,1.95C275.44,93.65,275.34,93.66,275.24,93.66z"/>
					</g>
				</g>
			</g>
			<g>
				<g>
					<g>
						<path class="st3" d="M272.01,178.04c-0.43,0-0.87-0.17-1.2-0.5l-2.76-2.79c-0.65-0.66-0.65-1.73,0.01-2.38
							c0.66-0.65,1.73-0.65,2.38,0.01l2.76,2.79c0.65,0.66,0.65,1.73-0.01,2.38C272.87,177.87,272.44,178.04,272.01,178.04z"/>
					</g>
				</g>
				<g>
					<g>
						<path class="st3" d="M264.27,170.2c-0.43,0-0.87-0.17-1.2-0.5l-4.98-5.04c-0.65-0.66-0.65-1.73,0.01-2.38
							c0.66-0.65,1.73-0.65,2.38,0.01l4.98,5.04c0.65,0.66,0.65,1.73-0.01,2.38C265.13,170.04,264.7,170.2,264.27,170.2z
							 M254.31,160.11c-0.43,0-0.87-0.17-1.2-0.5l-4.98-5.04c-0.65-0.66-0.65-1.73,0.01-2.38c0.66-0.65,1.73-0.65,2.38,0.01
							l4.98,5.04c0.65,0.66,0.65,1.73-0.01,2.38C255.17,159.95,254.74,160.11,254.31,160.11z M244.35,150.03
							c-0.43,0-0.87-0.17-1.2-0.5l-4.98-5.04c-0.65-0.66-0.65-1.73,0.01-2.38c0.66-0.65,1.73-0.65,2.38,0.01l4.98,5.04
							c0.65,0.66,0.65,1.73-0.01,2.38C245.21,149.86,244.78,150.03,244.35,150.03z M234.39,139.94c-0.43,0-0.87-0.17-1.2-0.5
							l-4.98-5.04c-0.65-0.66-0.65-1.73,0.01-2.38c0.66-0.65,1.73-0.65,2.38,0.01l4.98,5.04c0.65,0.66,0.65,1.73-0.01,2.38
							C235.24,139.78,234.82,139.94,234.39,139.94z"/>
					</g>
				</g>
				<g>
					<g>
						<path class="st3" d="M224.43,129.85c-0.43,0-0.87-0.17-1.2-0.5l-2.76-2.79c-0.65-0.66-0.65-1.73,0.02-2.38
							c0.66-0.65,1.73-0.65,2.38,0.02l2.76,2.79c0.65,0.66,0.65,1.73-0.02,2.38C225.28,129.69,224.85,129.85,224.43,129.85z"/>
					</g>
				</g>
			</g>
			<g>
				<path class="st4" d="M115.47,472.73l-0.56-222.68c0-5.53,4.49-10.01,10.01-10.01h82.97c0.19,0.7,0.44,1.37,0.73,2.02
					c2.27,5.09,7.38,8.63,13.31,8.63c6.69,0,12.34-4.51,14.04-10.65h101.8c1.31,6.71,7.22,11.77,14.31,11.77s13-5.07,14.31-11.77
					h61.52l10.88,16.26H126.69v200.73h352.12V276.79l14.02-12.96v208.91H115.47"/>
				<path class="st3" d="M494.51,474.41H113.79l-0.56-224.35c0-6.45,5.25-11.7,11.7-11.7h84.25l0.34,1.23
					c0.17,0.61,0.39,1.2,0.65,1.78c2.07,4.64,6.69,7.64,11.78,7.64c5.77,0,10.88-3.87,12.42-9.42l0.34-1.23h104.47l0.27,1.36
					c1.18,6.04,6.51,10.42,12.66,10.42c6.15,0,11.48-4.38,12.66-10.42l0.27-1.36h63.8l13.13,19.62H128.37v197.37h348.76v-179.3
					l17.38-16.08V474.41z M117.15,471.05h373.99V267.67l-10.65,9.85v181.19H125v-204.1h310.64l-8.63-12.9h-59.3
					c-1.98,6.9-8.34,11.78-15.63,11.78c-7.29,0-13.65-4.88-15.63-11.78H237.2c-2.32,6.33-8.42,10.65-15.26,10.65
					c-6.42,0-12.24-3.78-14.85-9.63c-0.15-0.34-0.29-0.68-0.42-1.02h-81.75c-4.59,0-8.33,3.74-8.33,8.33L117.15,471.05z"/>
			</g>
			<g>
				<path class="st4" d="M478.81,261.32v-5.02h-29.43l-10.7-16.26h44.13c5.01,0,9.17,3.7,9.9,8.51L478.81,261.32z"/>
				<path class="st3" d="M477.12,265.15v-7.17h-28.65l-12.91-19.62h47.25c5.73,0,10.71,4.27,11.56,9.94l0.13,0.88L477.12,265.15z
					 M450.29,254.62h30.2v2.88l10.39-9.54c-0.94-3.61-4.27-6.23-8.06-6.23H441.8L450.29,254.62z"/>
			</g>
			<g>
				<path class="st4" d="M529.38,230.04l-36.56,33.78l-14.02,12.96l-5.79,5.34l-3.75,3.47c0,0-2.06,1.5-6.34,0
					c-4.27-1.5-4.32-5.74-4.32-5.74l10.73-9.86l9.45-8.67l13.91-12.77l19.28-17.7v-0.01c2.32,0.52,4.72,0.78,7.19,0.78
					C522.73,231.63,526.16,231.08,529.38,230.04z"/>
				<path class="st3" d="M466.47,287.38c-1.06,0-2.36-0.19-3.9-0.73c-4.96-1.74-5.07-6.58-5.07-6.79l0-0.5l53.37-49v-0.91l1.37,0.29
					c5.54,1.23,11.45,0.95,16.81-0.77l4.83-1.55l-63.83,58.98C469.79,286.59,468.63,287.38,466.47,287.38z M459.79,280.3
					c0.15,0.99,0.8,3.28,3.52,4.23c3.57,1.26,5.25,0.18,5.32,0.14l56.77-52.48c-4.27,0.77-8.78,0.74-13.07-0.13L459.79,280.3z"/>
			</g>
			<g>
				<path class="st4" d="M455.5,265.6c-2.96,0.64-5.6,2.19-7.58,4.34l-9.13-13.65l-10.88-16.26l-0.82-1.21l-14.95-22.35
					c3.13-1.05,5.6-3.53,6.65-6.66l2.53,3.85l17.35,26.38l10.7,16.26L455.5,265.6z"/>
				<path class="st3" d="M447.78,271.75l-37.38-55.87l1.39-0.47c2.78-0.94,5-3.16,5.94-5.96l0.74-2.18l38.87,59.08l-1.6,0.35
					c-2.7,0.58-5.12,1.97-6.99,4L447.78,271.75z M413.84,216.99l34.25,51.2c1.63-1.48,3.53-2.58,5.62-3.26l-34.72-52.79
					C417.81,214.24,416.01,215.95,413.84,216.99z"/>
			</g>
			<g>
				<path class="st5" d="M348.11,423.31h-96.45c-6.08,0-11.01-4.93-11.01-11.01v-66.42c0-6.08,4.93-11.01,11.01-11.01h96.45
					c6.08,0,11.01,4.93,11.01,11.01v66.42C359.12,418.38,354.19,423.31,348.11,423.31z"/>
				<path class="st3" d="M348.11,424.43h-96.45c-6.69,0-12.13-5.44-12.13-12.13v-66.42c0-6.69,5.44-12.13,12.13-12.13h96.45
					c6.69,0,12.13,5.44,12.13,12.13v66.42C360.25,418.99,354.8,424.43,348.11,424.43z M251.66,335.98c-5.45,0-9.89,4.44-9.89,9.89
					v66.42c0,5.45,4.44,9.89,9.89,9.89h96.45c5.45,0,9.89-4.44,9.89-9.89v-66.42c0-5.45-4.44-9.89-9.89-9.89H251.66z"/>
			</g>
			<g>
				<g>
					<path class="st4" d="M275.32,324.67h-27.08c-3.58,0-6.48-2.9-6.48-6.48v-25.47c0-3.58,2.9-6.48,6.48-6.48h27.08
						c3.58,0,6.48,2.9,6.48,6.48v25.47C281.81,321.76,278.91,324.67,275.32,324.67z"/>
					<path class="st3" d="M275.32,325.79h-27.08c-4.19,0-7.61-3.41-7.61-7.61v-25.47c0-4.2,3.41-7.61,7.61-7.61h27.08
						c4.19,0,7.61,3.41,7.61,7.61v25.47C282.93,322.38,279.52,325.79,275.32,325.79z M248.24,287.35c-2.96,0-5.36,2.41-5.36,5.36
						v25.47c0,2.96,2.4,5.36,5.36,5.36h27.08c2.96,0,5.36-2.4,5.36-5.36v-25.47c0-2.96-2.4-5.36-5.36-5.36H248.24z"/>
				</g>
				<g>
					<g>
						<path class="st3" d="M261.78,313.99l-0.47-0.41c-0.79-0.68-7.7-6.72-8.54-8.73c-0.55-1.3-0.39-3.03,0.41-4.42
							c0.79-1.36,2.1-2.22,3.69-2.41c2.52-0.31,4.12,0.77,4.91,1.54c0.8-0.77,2.41-1.85,4.93-1.54c1.59,0.19,2.9,1.05,3.69,2.41
							c0.8,1.38,0.96,3.12,0.41,4.42c-0.85,2.01-7.77,8.05-8.56,8.73L261.78,313.99z M257.73,299.4c-0.22,0-0.45,0.01-0.69,0.04
							c-1.46,0.18-2.24,1.02-2.63,1.71c-0.57,0.98-0.7,2.27-0.33,3.15c0.51,1.22,4.8,5.26,7.7,7.8c2.9-2.54,7.2-6.58,7.71-7.8l0,0
							c0.37-0.88,0.24-2.17-0.33-3.15c-0.39-0.68-1.17-1.53-2.63-1.71c-2.82-0.35-4.11,1.52-4.16,1.6l-0.6,0.9l-0.59-0.91
							C261.13,300.96,260.06,299.4,257.73,299.4z"/>
					</g>
				</g>
			</g>
			<g>
				<g>
					<path class="st3" d="M218.3,349.06h-68.85c-4.13,0-7.47-3.35-7.47-7.47v-68.85c0-4.13,3.35-7.47,7.47-7.47h68.85
						c4.13,0,7.47,3.35,7.47,7.47v68.85C225.78,345.71,222.43,349.06,218.3,349.06z"/>
				</g>
				<g>
					<g>
						<path class="st2" d="M198.15,314.65h-25.16l-6.25-26.46h-5.95v-2.6h8.01l1.89,8.02l33.53-0.32L198.15,314.65z M175.05,312.05
							h21.14l4.58-16.12l-29.47,0.28L175.05,312.05z"/>
					</g>
				</g>
				<g>
					<g>
						<path class="st2" d="M175.95,327.79c-2.74,0-4.98-2.23-4.98-4.98c0-2.74,2.23-4.98,4.98-4.98c2.74,0,4.98,2.23,4.98,4.98
							C180.92,325.56,178.69,327.79,175.95,327.79z M175.95,320.44c-1.31,0-2.37,1.07-2.37,2.37c0,1.31,1.07,2.37,2.37,2.37
							c1.31,0,2.37-1.07,2.37-2.37C178.32,321.51,177.26,320.44,175.95,320.44z"/>
					</g>
				</g>
				<g>
					<g>
						<path class="st2" d="M194.42,327.79c-2.74,0-4.98-2.23-4.98-4.98c0-2.74,2.23-4.98,4.98-4.98c2.74,0,4.98,2.23,4.98,4.98
							C199.4,325.56,197.16,327.79,194.42,327.79z M194.42,320.44c-1.31,0-2.37,1.07-2.37,2.37c0,1.31,1.07,2.37,2.37,2.37
							c1.31,0,2.37-1.07,2.37-2.37C196.79,321.51,195.73,320.44,194.42,320.44z"/>
					</g>
				</g>
			</g>
			<g>
				<g>
					<g>
						<path class="st2" d="M297.56,409.71c-17.78,0-32.26-14.47-32.26-32.26s14.47-32.26,32.26-32.26
							c17.79,0,32.26,14.47,32.26,32.26S315.35,409.71,297.56,409.71z M297.56,349.31c-15.52,0-28.14,12.62-28.14,28.14
							c0,15.52,12.62,28.14,28.14,28.14c15.52,0,28.14-12.62,28.14-28.14C325.71,361.93,313.08,349.31,297.56,349.31z"/>
					</g>
				</g>
				<g>
					<g>
						<polygon class="st2" points="293.39,387.95 282.57,379.65 285.07,376.39 293.22,382.64 309.96,368.06 312.66,371.16 						"/>
					</g>
				</g>
			</g>
			<g>
				<path class="st5" d="M455,448.11h-76.52c-1.95,0-3.53-1.58-3.53-3.53v-22.07c0-1.95,1.58-3.53,3.53-3.53H455
					c1.95,0,3.53,1.58,3.53,3.53v22.07C458.53,446.53,456.95,448.11,455,448.11z"/>
			</g>
			<g>
				<path class="st2" d="M391.78,438.34l-3.5-10.71h1.49l1.67,5.28c0.46,1.45,0.86,2.75,1.14,4.01h0.03
					c0.3-1.24,0.75-2.59,1.22-3.99l1.81-5.29h1.48l-3.83,10.71H391.78z"/>
				<path class="st2" d="M404.16,433.32h-4.16v3.86h4.64v1.16h-6.03v-10.71h5.79v1.16h-4.4v3.39h4.16V433.32z"/>
				<path class="st2" d="M406.74,438.34v-10.71h1.51l3.43,5.42c0.79,1.26,1.41,2.39,1.92,3.48l0.03-0.01
					c-0.13-1.43-0.16-2.73-0.16-4.4v-4.48h1.3v10.71h-1.4l-3.4-5.44c-0.75-1.19-1.46-2.41-2-3.58l-0.05,0.01
					c0.08,1.35,0.11,2.64,0.11,4.42v4.58H406.74z"/>
				<path class="st2" d="M417.51,427.77c0.84-0.13,1.84-0.22,2.94-0.22c1.99,0,3.4,0.46,4.34,1.34c0.95,0.87,1.51,2.12,1.51,3.85
					c0,1.75-0.54,3.18-1.54,4.17c-1,1-2.66,1.54-4.74,1.54c-0.99,0-1.81-0.05-2.51-0.13V427.77z M418.9,437.24
					c0.35,0.06,0.86,0.08,1.4,0.08c2.96,0,4.56-1.65,4.56-4.55c0.01-2.53-1.41-4.13-4.34-4.13c-0.72,0-1.26,0.06-1.62,0.14V437.24z"
					/>
				<path class="st2" d="M428.41,427.77c0.7-0.14,1.7-0.22,2.66-0.22c1.48,0,2.43,0.27,3.1,0.87c0.54,0.48,0.84,1.21,0.84,2.03
					c0,1.42-0.89,2.35-2.02,2.74v0.05c0.83,0.29,1.32,1.05,1.57,2.16c0.35,1.49,0.6,2.53,0.83,2.94h-1.43
					c-0.18-0.3-0.41-1.22-0.72-2.56c-0.32-1.48-0.89-2.03-2.15-2.08h-1.3v4.64h-1.38V427.77z M429.8,432.65h1.41
					c1.48,0,2.42-0.81,2.42-2.03c0-1.38-1-1.99-2.47-2c-0.67,0-1.14,0.06-1.37,0.13V432.65z"/>
				<path class="st2" d="M442.83,433.32h-4.16v3.86h4.64v1.16h-6.03v-10.71h5.79v1.16h-4.4v3.39h4.16V433.32z"/>
			</g>
			<g>
				<path class="st5" d="M407.69,323.85h-23.11c-2.36,0-4.27-1.91-4.27-4.27v-23.11c0-2.36,1.91-4.27,4.27-4.27h23.11
					c2.36,0,4.27,1.91,4.27,4.27v23.11C411.97,321.94,410.05,323.85,407.69,323.85z"/>
				<path class="st3" d="M407.69,324.97h-23.12c-2.97,0-5.4-2.42-5.4-5.4v-23.12c0-2.97,2.42-5.4,5.4-5.4h23.12
					c2.97,0,5.4,2.42,5.4,5.4v23.12C413.09,322.55,410.67,324.97,407.69,324.97z M384.58,293.31c-1.74,0-3.15,1.41-3.15,3.15v23.12
					c0,1.74,1.41,3.15,3.15,3.15h23.12c1.74,0,3.15-1.41,3.15-3.15v-23.12c0-1.74-1.41-3.15-3.15-3.15H384.58z"/>
			</g>
			<g>
				<path class="st5" d="M445.38,323.85h-23.11c-2.36,0-4.27-1.91-4.27-4.27v-23.11c0-2.36,1.91-4.27,4.27-4.27h23.11
					c2.36,0,4.27,1.91,4.27,4.27v23.11C449.66,321.94,447.75,323.85,445.38,323.85z"/>
				<path class="st3" d="M445.38,324.97h-23.11c-2.97,0-5.4-2.42-5.4-5.4v-23.12c0-2.97,2.42-5.4,5.4-5.4h23.11
					c2.98,0,5.4,2.42,5.4,5.4v23.12C450.78,322.55,448.36,324.97,445.38,324.97z M422.27,293.31c-1.74,0-3.15,1.41-3.15,3.15v23.12
					c0,1.74,1.41,3.15,3.15,3.15h23.11c1.74,0,3.15-1.41,3.15-3.15v-23.12c0-1.74-1.41-3.15-3.15-3.15H422.27z"/>
			</g>
			<g>
				<path class="st5" d="M407.69,363.11h-23.11c-2.36,0-4.27-1.91-4.27-4.27v-23.11c0-2.36,1.91-4.27,4.27-4.27h23.11
					c2.36,0,4.27,1.91,4.27,4.27v23.11C411.97,361.2,410.05,363.11,407.69,363.11z"/>
				<path class="st3" d="M407.69,364.23h-23.12c-2.97,0-5.4-2.42-5.4-5.4v-23.11c0-2.98,2.42-5.4,5.4-5.4h23.12
					c2.97,0,5.4,2.42,5.4,5.4v23.11C413.09,361.81,410.67,364.23,407.69,364.23z M384.58,332.57c-1.74,0-3.15,1.41-3.15,3.15v23.11
					c0,1.74,1.41,3.15,3.15,3.15h23.12c1.74,0,3.15-1.41,3.15-3.15v-23.11c0-1.74-1.41-3.15-3.15-3.15H384.58z"/>
			</g>
			<g>
				<path class="st5" d="M445.38,363.11h-23.11c-2.36,0-4.27-1.91-4.27-4.27v-23.11c0-2.36,1.91-4.27,4.27-4.27h23.11
					c2.36,0,4.27,1.91,4.27,4.27v23.11C449.66,361.2,447.75,363.11,445.38,363.11z"/>
				<path class="st3" d="M445.38,364.23h-23.11c-2.97,0-5.4-2.42-5.4-5.4v-23.11c0-2.98,2.42-5.4,5.4-5.4h23.11
					c2.98,0,5.4,2.42,5.4,5.4v23.11C450.78,361.81,448.36,364.23,445.38,364.23z M422.27,332.57c-1.74,0-3.15,1.41-3.15,3.15v23.11
					c0,1.74,1.41,3.15,3.15,3.15h23.11c1.74,0,3.15-1.41,3.15-3.15v-23.11c0-1.74-1.41-3.15-3.15-3.15H422.27z"/>
			</g>
			<g>
				<path class="st5" d="M407.69,402.37h-23.11c-2.36,0-4.27-1.91-4.27-4.27v-23.11c0-2.36,1.91-4.27,4.27-4.27h23.11
					c2.36,0,4.27,1.91,4.27,4.27v23.11C411.97,400.46,410.05,402.37,407.69,402.37z"/>
				<path class="st3" d="M407.69,403.49h-23.12c-2.97,0-5.4-2.42-5.4-5.4v-23.12c0-2.97,2.42-5.4,5.4-5.4h23.12
					c2.97,0,5.4,2.42,5.4,5.4v23.12C413.09,401.07,410.67,403.49,407.69,403.49z M384.58,371.83c-1.74,0-3.15,1.41-3.15,3.15v23.12
					c0,1.74,1.41,3.15,3.15,3.15h23.12c1.74,0,3.15-1.41,3.15-3.15v-23.12c0-1.74-1.41-3.15-3.15-3.15H384.58z"/>
			</g>
			<g>
				<path class="st5" d="M445.38,402.37h-23.11c-2.36,0-4.27-1.91-4.27-4.27v-23.11c0-2.36,1.91-4.27,4.27-4.27h23.11
					c2.36,0,4.27,1.91,4.27,4.27v23.11C449.66,400.46,447.75,402.37,445.38,402.37z"/>
				<path class="st3" d="M445.38,403.49h-23.11c-2.97,0-5.4-2.42-5.4-5.4v-23.12c0-2.97,2.42-5.4,5.4-5.4h23.11
					c2.98,0,5.4,2.42,5.4,5.4v23.12C450.78,401.07,448.36,403.49,445.38,403.49z M422.27,371.83c-1.74,0-3.15,1.41-3.15,3.15v23.12
					c0,1.74,1.41,3.15,3.15,3.15h23.11c1.74,0,3.15-1.41,3.15-3.15v-23.12c0-1.74-1.41-3.15-3.15-3.15H422.27z"/>
			</g>
			<g>
				<rect x="141.98" y="355.9" class="st5" width="86.22" height="86.22"/>
				<path class="st3" d="M229.48,443.4h-88.77v-88.77h88.77V443.4z M143.26,440.85h83.68v-83.68h-83.68V440.85z"/>
			</g>
			<g>
				<path class="st2" d="M197.29,369.87h-45.81c-1.92,0-3.48-1.56-3.48-3.48l0,0c0-1.92,1.56-3.48,3.48-3.48h45.81
					c1.92,0,3.48,1.56,3.48,3.48l0,0C200.77,368.31,199.21,369.87,197.29,369.87z"/>
			</g>
			<g>
				<path class="st2" d="M197.29,380.93h-45.81c-1.92,0-3.48-1.56-3.48-3.48l0,0c0-1.92,1.56-3.48,3.48-3.48h45.81
					c1.92,0,3.48,1.56,3.48,3.48l0,0C200.77,379.37,199.21,380.93,197.29,380.93z"/>
			</g>
			<g>
				<path class="st2" d="M197.29,392h-45.81c-1.92,0-3.48-1.56-3.48-3.48v0c0-1.92,1.56-3.48,3.48-3.48h45.81
					c1.92,0,3.48,1.56,3.48,3.48v0C200.77,390.44,199.21,392,197.29,392z"/>
			</g>
			<g>
				<path class="st2" d="M197.29,403.07h-45.81c-1.92,0-3.48-1.56-3.48-3.48l0,0c0-1.92,1.56-3.48,3.48-3.48h45.81
					c1.92,0,3.48,1.56,3.48,3.48l0,0C200.77,401.51,199.21,403.07,197.29,403.07z"/>
			</g>
			<g>
				<path class="st2" d="M197.29,414.14h-45.81c-1.92,0-3.48-1.56-3.48-3.48l0,0c0-1.92,1.56-3.48,3.48-3.48h45.81
					c1.92,0,3.48,1.56,3.48,3.48l0,0C200.77,412.58,199.21,414.14,197.29,414.14z"/>
			</g>
		</g>
	</g>
</g>
</svg>
