<?xml version="1.0" encoding="utf-8"?>
<!-- Generator: Adobe Illustrator 23.0.1, SVG Export Plug-In . SVG Version: 6.00 Build 0)  -->
<svg version="1.1" id="Layer_1" xmlns="http://www.w3.org/2000/svg" xmlns:xlink="http://www.w3.org/1999/xlink" x="0px" y="0px"
	 viewBox="0 0 300 120" style="enable-background:new 0 0 300 120;" xml:space="preserve">
<style type="text/css">
	.st0{fill:#1781E2;}
	.st1{fill:url(#SVGID_1_);}
	.st2{fill:url(#SVGID_2_);}
</style>
<g>
	<g>
		<path class="st0" d="M146.75,86.4V33.33h34.37v3.76h-30.7v20.9h23.92v3.76h-23.92v20.82h30.7v3.84H146.75z"/>
		<path class="st0" d="M216.4,78.15l20.08-44.82h4.08L216.4,87.29l-24.09-53.97h4L216.4,78.15z"/>
		<path class="st0" d="M273.14,86.97c-4.85,0-9.34-1.21-13.47-3.63c-4.14-2.42-7.4-5.72-9.8-9.88c-2.4-4.16-3.59-8.7-3.59-13.59
			s1.2-9.43,3.59-13.59c2.39-4.16,5.66-7.46,9.8-9.88c4.14-2.42,8.63-3.63,13.47-3.63c4.84,0,9.33,1.21,13.47,3.63
			c4.14,2.42,7.4,5.72,9.8,9.88c2.39,4.16,3.59,8.7,3.59,13.59s-1.2,9.43-3.59,13.59c-2.4,4.16-5.66,7.46-9.8,9.88
			C282.47,85.76,277.98,86.97,273.14,86.97z M273.14,36.51c-4.19,0-8.06,1.05-11.59,3.14c-3.54,2.1-6.36,4.93-8.45,8.49
			c-2.1,3.57-3.14,7.47-3.14,11.72s1.05,8.15,3.14,11.72c2.09,3.57,4.91,6.4,8.45,8.49c3.54,2.1,7.4,3.14,11.59,3.14
			c4.19,0,8.05-1.05,11.59-3.14c3.54-2.09,6.34-4.93,8.41-8.49c2.07-3.56,3.1-7.47,3.1-11.72s-1.03-8.15-3.1-11.72
			c-2.07-3.56-4.87-6.4-8.41-8.49C281.19,37.56,277.33,36.51,273.14,36.51z"/>
	</g>
	<linearGradient id="SVGID_1_" gradientUnits="userSpaceOnUse" x1="14.1622" y1="119.2158" x2="-0.0758" y2="94.5548">
		<stop  offset="0" style="stop-color:#1781E2"/>
		<stop  offset="0.3145" style="stop-color:#1778E2"/>
		<stop  offset="0.8346" style="stop-color:#175EE2"/>
		<stop  offset="1" style="stop-color:#1755E2"/>
	</linearGradient>
	<path class="st1" d="M28.98,119.78H0V91.01C6.44,103.34,16.6,113.43,28.98,119.78z"/>
	<linearGradient id="SVGID_2_" gradientUnits="userSpaceOnUse" x1="99.1132" y1="106.238" x2="50.2378" y2="21.5833">
		<stop  offset="0" style="stop-color:#1781E2"/>
		<stop  offset="0.3145" style="stop-color:#1778E2"/>
		<stop  offset="0.8346" style="stop-color:#175EE2"/>
		<stop  offset="1" style="stop-color:#1755E2"/>
	</linearGradient>
	<path class="st2" d="M5.2,84.61c0.8,1.77,1.7,3.5,2.67,5.19c6.26,10.81,15.8,19.48,27.26,24.65c7.49,3.39,15.82,5.27,24.58,5.27
		c22.15,0,41.5-12.03,51.85-29.92c5.09-8.81,8.01-19.02,8.01-29.93V0.08C65.72,0.08,20.19,35.67,5.2,84.61z M63.05,37.96l2.21-3.8
		l2.22-3.8l0.01,0.01l0.89,5.95l0.88,5.95l0.88,5.93l-0.01,0.01l-9.29-6.47L63.05,37.96z M79.03,75.78l-3.7,2.77l-0.65,0.48
		l-1.41,1.06l-1.63,1.23l-3.7,2.78l-3.7,2.77l-3.7,2.77L36.87,73.15l0.17-0.13l3.52-2.64l3.69-2.78l3.7-2.77l3.7-2.77l3.69-2.77
		L59,56.55l0.03-0.02l-0.08-0.04l-3.42-5.64l-2.18-3.59l-5.59-9.23l10.85,7.54l7.8,5.44l4.59,3.19l6.41,4.45l-2.16,3.84l-2.16,3.84
		l-0.24,0.43l-1.91,3.41l-1.61,2.87h13.36L79.03,75.78z"/>
	<path class="st0" d="M119.57,0.08C65.72,0.08,20.19,35.66,5.2,84.6C2.31,78.25,0.5,71.28,0,63.96v-8.2
		c0.62-9.35,3.41-18.13,7.87-25.82C18.21,12.05,37.56,0.01,59.71,0.01L119.57,0.08z"/>
	<path class="st0" d="M0,91.01l0,28.98h0.11c0-8.35,0.85-16.51,2.49-24.37C1.68,94.12,0.81,92.59,0,91.01z"/>
</g>
</svg>
